<svg width="32" height="32" viewBox="0 0 32 32" fill="none" xmlns="http://www.w3.org/2000/svg">
<rect x="0.5" y="0.5" width="31" height="31" rx="9.5" stroke="#5E4507"/>
<path d="M10.6667 15.5C10.3905 15.5 10.1667 15.7239 10.1667 16C10.1667 16.2761 10.3905 16.5 10.6667 16.5V15.5ZM21.6869 16.3536C21.8822 16.1583 21.8822 15.8417 21.6869 15.6464L18.5049 12.4645C18.3097 12.2692 17.9931 12.2692 17.7978 12.4645C17.6026 12.6597 17.6026 12.9763 17.7978 13.1716L20.6262 16L17.7978 18.8284C17.6026 19.0237 17.6026 19.3403 17.7978 19.5355C17.9931 19.7308 18.3097 19.7308 18.5049 19.5355L21.6869 16.3536ZM10.6667 16V16.5H21.3334V16V15.5H10.6667V16Z" fill="#5E4507"/>
</svg>
