<svg width="60" height="60" viewBox="0 0 60 60" fill="none" xmlns="http://www.w3.org/2000/svg">
<rect x="0.5" y="0.5" width="59" height="59" rx="14.5" stroke="#5E4507"/>
<path d="M30 18.8C29.1513 18.8 28.3374 19.1371 27.7373 19.7372C27.1372 20.3373 26.8 21.1513 26.8 22C26.8 22.8486 27.1372 23.6626 27.7373 24.2627C28.3374 24.8628 29.1513 25.2 30 25.2C30.8487 25.2 31.6626 24.8628 32.2628 24.2627C32.8629 23.6626 33.2 22.8486 33.2 22C33.2 21.1513 32.8629 20.3373 32.2628 19.7372C31.6626 19.1371 30.8487 18.8 30 18.8ZM25.2 22C25.2 20.7269 25.7057 19.506 26.6059 18.6058C27.5061 17.7057 28.727 17.2 30 17.2C31.273 17.2 32.4939 17.7057 33.3941 18.6058C34.2943 19.506 34.8 20.7269 34.8 22C34.8 23.273 34.2943 24.4939 33.3941 25.3941C32.4939 26.2942 31.273 26.8 30 26.8C28.727 26.8 27.5061 26.2942 26.6059 25.3941C25.7057 24.4939 25.2 23.273 25.2 22ZM22.0848 29.9936C22.0304 30.2538 22.0032 30.5226 22.0032 30.8V31.672L17.7936 32.8C17.5887 32.8547 17.4139 32.9886 17.3077 33.1723C17.2014 33.3559 17.1725 33.5742 17.2272 33.7792L18.2624 37.6432C18.5661 38.7748 19.2733 39.7562 20.2506 40.4026C21.2279 41.0489 22.4078 41.3154 23.568 41.1519C23.936 41.6479 24.36 42.1023 24.8304 42.5007L24.5568 42.5808C23.7449 42.7985 22.8981 42.8542 22.0647 42.7447C21.2312 42.6352 20.4276 42.3625 19.6995 41.9423C18.9715 41.5222 18.3334 40.9627 17.8216 40.2958C17.3098 39.629 16.9344 38.8679 16.7168 38.056L15.6816 34.1919C15.6001 33.8875 15.5793 33.57 15.6205 33.2575C15.6617 32.945 15.764 32.6437 15.9217 32.3707C16.0793 32.0978 16.2891 31.8586 16.5392 31.6668C16.7893 31.475 17.0747 31.3343 17.3792 31.2528L22.0848 29.9936ZM38.0032 31.672V30.8C38.0021 30.5226 37.9755 30.2538 37.9232 29.9936L42.6272 31.2544C43.2418 31.4193 43.7657 31.8216 44.0838 32.3728C44.4018 32.924 44.4879 33.5789 44.3232 34.1936L43.288 38.0576C43.0642 38.8925 42.6735 39.6734 42.1397 40.3532C41.6058 41.0331 40.9397 41.5977 40.1816 42.0131C39.4236 42.4284 38.5892 42.6859 37.7289 42.77C36.8686 42.8541 36.0002 42.7631 35.176 42.5023C35.6485 42.1013 36.0693 41.6517 36.4384 41.1536C37.5986 41.3165 38.7783 41.0496 39.7553 40.403C40.7323 39.7564 41.439 38.7748 41.7424 37.6432L42.7792 33.7792C42.8339 33.5742 42.805 33.3559 42.6988 33.1723C42.5926 32.9886 42.4178 32.8547 42.2128 32.8L38.0032 31.672ZM38 24.4C38 23.7634 38.2529 23.153 38.703 22.7029C39.153 22.2528 39.7635 22 40.4 22C41.0365 22 41.647 22.2528 42.0971 22.7029C42.5472 23.153 42.8 23.7634 42.8 24.4C42.8 25.0365 42.5472 25.6469 42.0971 26.097C41.647 26.5471 41.0365 26.8 40.4 26.8C39.7635 26.8 39.153 26.5471 38.703 26.097C38.2529 25.6469 38 25.0365 38 24.4ZM40.4 20.4C39.3391 20.4 38.3217 20.8214 37.5716 21.5715C36.8214 22.3217 36.4 23.3391 36.4 24.4C36.4 25.4608 36.8214 26.4782 37.5716 27.2284C38.3217 27.9785 39.3391 28.4 40.4 28.4C41.4609 28.4 42.4783 27.9785 43.2284 27.2284C43.9786 26.4782 44.4 25.4608 44.4 24.4C44.4 23.3391 43.9786 22.3217 43.2284 21.5715C42.4783 20.8214 41.4609 20.4 40.4 20.4ZM19.6 22C18.9635 22 18.353 22.2528 17.903 22.7029C17.4529 23.153 17.2 23.7634 17.2 24.4C17.2 25.0365 17.4529 25.6469 17.903 26.097C18.353 26.5471 18.9635 26.8 19.6 26.8C20.2365 26.8 20.847 26.5471 21.2971 26.097C21.7472 25.6469 22 25.0365 22 24.4C22 23.7634 21.7472 23.153 21.2971 22.7029C20.847 22.2528 20.2365 22 19.6 22ZM15.6 24.4C15.6 23.3391 16.0214 22.3217 16.7716 21.5715C17.5217 20.8214 18.5391 20.4 19.6 20.4C20.6609 20.4 21.6783 20.8214 22.4284 21.5715C23.1786 22.3217 23.6 23.3391 23.6 24.4C23.6 25.4608 23.1786 26.4782 22.4284 27.2284C21.6783 27.9785 20.6609 28.4 19.6 28.4C18.5391 28.4 17.5217 27.9785 16.7716 27.2284C16.0214 26.4782 15.6 25.4608 15.6 24.4ZM26 28.4C25.3635 28.4 24.753 28.6528 24.303 29.1029C23.8529 29.553 23.6 30.1634 23.6 30.8V36.4C23.6 38.0973 24.2743 39.7252 25.4745 40.9254C26.6748 42.1257 28.3026 42.7999 30 42.7999C31.6974 42.7999 33.3253 42.1257 34.5255 40.9254C35.7257 39.7252 36.4 38.0973 36.4 36.4V30.8C36.4 30.1634 36.1472 29.553 35.6971 29.1029C35.247 28.6528 34.6365 28.4 34 28.4H26ZM25.2 30.8C25.2 30.5878 25.2843 30.3843 25.4343 30.2343C25.5844 30.0842 25.7878 30 26 30H34C34.2122 30 34.4157 30.0842 34.5657 30.2343C34.7157 30.3843 34.8 30.5878 34.8 30.8V36.4C34.8 37.673 34.2943 38.8939 33.3941 39.7941C32.4939 40.6942 31.273 41.1999 30 41.1999C28.727 41.1999 27.5061 40.6942 26.6059 39.7941C25.7057 38.8939 25.2 37.673 25.2 36.4V30.8Z" fill="black"/>
</svg>
