<svg width="132" height="48" viewBox="0 0 132 48" fill="none" xmlns="http://www.w3.org/2000/svg">
<path d="M5.16815 33.5119C4.38386 33.2541 3.57808 32.8566 2.69709 32.1582C2.2566 31.7715 1.97726 31.5029 1.85866 31.331C0.408263 29.6446 0.0107428 27.9033 0 26.0876C0 24.1004 0.655369 22.0694 1.93428 20.0281C2.03057 19.9207 2.10619 19.8674 2.19213 19.8674H2.21321C2.29916 19.8674 2.36404 19.9314 2.36404 20.0819C2.36404 20.1786 2.2566 20.3831 2.06321 20.6835C0.935115 22.6715 0.548342 24.2827 0.548342 26.0553C0.558673 29.0855 2.35329 31.9219 5.56567 32.9855C6.38219 33.2438 7.25244 33.3727 8.16565 33.3727C8.46647 33.3727 8.77804 33.3615 9.08961 33.3297C11.1309 33.1471 13.3334 32.3839 15.5792 30.6116C15.8908 30.3425 16.2561 29.9983 16.6858 29.5797C17.1801 29.0318 17.4916 28.6665 17.6098 28.4835C19.361 26.1413 19.909 23.9715 19.909 22.0265C19.8982 19.8781 19.1569 18.0087 17.6635 16.4079C16.7288 15.4302 15.8371 14.8282 15.1817 14.4629C14.1718 13.8823 13.0755 13.3993 11.8941 13.0125C11.4644 12.905 11.2495 12.8302 11.2495 12.7864C11.2065 12.7443 11.1846 12.6906 11.1739 12.6472C11.1739 12.4534 11.3677 12.3249 11.7222 12.2707C12.9685 11.9377 13.8061 11.5406 14.5693 11.0889C15.0313 10.7993 15.5363 10.4125 16.0735 9.91787C16.5032 9.46703 16.7933 9.13399 16.933 8.94014C17.3627 8.33854 17.6635 7.85507 17.8139 7.47862C18.2759 6.52323 18.5015 5.63107 18.5015 4.79265C18.4908 3.32117 17.7495 2.66581 16.6429 2.66581C16.5569 2.66581 16.471 2.67615 16.3743 2.68727C14.8057 2.83775 13.0974 3.9121 11.2495 5.93192C10.7119 6.57655 10.3037 7.12489 10.0566 7.58646C9.9706 7.68313 9.91688 7.78025 9.91688 7.86619C8.88548 12.7224 6.97309 21.1566 5.79128 25.3789C5.63013 25.9157 5.49046 26.3025 5.37228 26.5603C5.22187 26.8186 5.09294 26.8719 4.89955 26.8938H4.85658C4.4913 26.8938 4.31939 26.3136 4.31939 25.6149C4.31939 22.8326 5.44749 16.9451 6.88714 12.8191C7.54252 10.8959 8.26234 9.25178 9.02515 7.87697C9.17556 7.6406 9.25077 7.48979 9.25077 7.40385C9.57308 5.88895 9.83093 4.47039 10.0243 3.17124L9.84167 3.19187C9.66977 3.19187 9.57308 3.11704 9.5301 2.8695C9.5301 2.75176 9.5516 2.65508 9.76647 2.08606C9.93837 1.69849 10.0888 1.59103 10.3251 1.5704H10.3681C10.6801 1.5704 10.8301 1.90306 10.8301 2.46168C10.8301 2.9555 10.6582 4.10505 10.3037 5.93192C11.3784 4.60008 12.6569 3.56832 13.3764 3.13855C14.1933 2.54763 15.5148 1.96749 16.5569 1.88154C16.6858 1.86003 16.804 1.86003 16.9115 1.86003C18.5123 1.86003 19.2858 3.00958 19.2858 4.55634C19.2858 5.86788 18.8453 7.18938 17.9536 8.52155C17.771 8.81167 17.4809 9.17652 17.0726 9.62819C16.5569 10.1972 16.1379 10.584 15.8371 10.7993C14.7842 11.6592 13.6883 12.2497 12.8607 12.5187C13.9888 12.9162 15.2247 13.4637 16.7503 14.5377C17.0189 14.7315 17.3627 15.0108 17.7817 15.3864C18.9528 16.5261 19.3825 17.2563 19.7478 18.0087C20.4247 19.3732 20.6181 20.4905 20.6181 21.8658V21.9195C20.6181 23.488 20.1668 25.1748 19.2858 26.9686C18.104 29.2359 16.3313 31.0297 13.9569 32.3628C13.3871 32.6955 12.6458 33.007 11.7541 33.319C10.7979 33.6194 9.94911 33.8128 9.18631 33.8772C8.73507 33.9202 8.30532 33.9417 7.89706 33.9417C7.01607 33.9417 6.17806 33.8236 5.16815 33.5119ZM7.0483 17.9009C7.19871 17.1918 7.67144 14.9356 8.45574 11.1216L8.63838 10.305H8.62763C7.9078 11.9274 7.2202 14.0546 6.56483 16.7084C6.04913 18.7496 5.3508 22.3918 5.26484 25.3033L5.27559 25.3144C5.92021 22.9294 6.51111 20.4579 7.0483 17.9009Z" fill="white"/>
<path d="M23.3252 25.5273V25.345C23.3252 24.8719 23.4537 23.4864 23.7116 21.1868C24.3136 16.9542 25.0975 13.398 26.0644 10.4963C26.6024 8.90628 27.1388 7.58478 27.6653 6.55335C27.9557 6.09184 28.2566 5.85547 28.5677 5.85547C28.8152 5.85547 28.9553 5.89761 29.0194 6.21992L29.0305 6.27362C29.0305 6.5001 28.9227 6.76871 28.6867 7.10136C28.6111 7.14434 28.5574 7.16579 28.5037 7.16579H28.4392L28.3533 7.14434C27.5045 8.60586 26.7847 10.4104 26.2041 12.5596C25.452 15.181 24.8293 18.6839 24.3454 23.0567C24.3025 23.6261 24.2491 24.002 24.195 24.2062V24.2169H24.2165C24.6355 23.3145 25.2157 22.3261 25.9355 21.2513C26.9351 19.8872 27.7409 19.2104 28.3533 19.2104C28.783 19.2104 29.0512 19.2963 29.309 19.8219C29.3743 20.0265 29.4169 20.2095 29.4276 20.3814L29.5136 21.7347C29.5995 22.6372 29.9756 23.1851 30.6206 23.3893C30.7813 23.4219 30.9318 23.443 31.0714 23.4537C32.178 23.4537 33.7789 22.6802 35.8954 21.1439L36.014 21.1223C36.1102 21.176 36.1644 21.2298 36.1751 21.3157L36.1854 21.3591C36.1854 21.4662 35.9173 21.681 35.3797 22.0033C33.4784 23.3033 31.9851 23.9479 30.8995 23.9479C30.0297 23.9479 29.395 23.4649 29.0086 22.4872C28.8694 22.1108 28.7933 21.7781 28.7615 21.488C28.6756 20.6711 28.6326 20.2095 28.3855 20.0802L28.2351 20.0695C27.8913 20.0695 27.2682 20.6071 26.3553 21.6918C25.6454 22.648 25.033 23.6364 24.5388 24.6463C24.2595 25.2054 24.0446 25.5599 23.9157 25.7099C23.8083 25.807 23.7008 25.85 23.5934 25.85C23.4537 25.85 23.3678 25.743 23.3252 25.5273Z" fill="white"/>
<path d="M39.2045 20.2861C39.3111 20.2861 39.3764 20.3828 39.4082 20.5758C39.4082 22.2303 39.9239 23.0468 40.9661 23.0468C41.6644 23.0468 42.5673 22.6605 43.6842 21.8865L44.5656 21.1452C44.6189 21.1237 44.6619 21.1022 44.6834 21.1022C44.7801 21.113 44.8231 21.1559 44.8231 21.2418C44.8231 21.3278 44.5549 21.5964 44.0065 22.0369C43.2334 22.6287 42.6099 23.0047 42.1586 23.1543C41.6107 23.3906 41.1272 23.498 40.6979 23.498C39.8917 23.498 39.333 23.0254 38.9995 22.0799C38.8706 21.7361 38.7954 21.5642 38.7748 21.5642C38.7095 21.5642 38.4309 21.7683 37.9037 22.1765C37.2376 22.6386 36.6582 22.8641 36.1743 22.8641H36.1636C35.7553 22.8641 35.5082 22.6815 35.4008 22.3167C35.3896 22.2518 35.3896 22.2088 35.3896 22.1765V22.0799C35.3896 21.6179 35.6694 21.1774 36.2277 20.7476C36.6467 20.4687 37.1301 20.3287 37.6785 20.3287H37.7004C38.0541 20.3287 38.4309 20.4039 38.8607 20.5332V20.5224C38.9785 20.3613 39.0966 20.2861 39.1822 20.2861H39.2045ZM36.1851 22.413H36.2603C36.7219 22.413 37.4206 21.9832 38.3553 21.1452C38.3553 21.1237 38.3876 21.0915 38.452 21.0163C38.1194 20.9415 37.8177 20.8985 37.5384 20.8985C36.7545 20.8985 36.2062 21.1774 35.8946 21.7253C35.8516 21.8542 35.8305 21.9402 35.8305 22.0047C35.8305 22.2303 35.9483 22.3703 36.1851 22.413Z" fill="white"/>
<path d="M45.7794 19.5656C45.7794 19.5656 45.7902 19.587 45.7902 19.6511C45.5645 21.1556 45.3711 22.3696 45.2207 23.2932V23.3043H45.2422C45.3927 22.8423 45.6182 22.3374 45.9083 21.7895C46.7141 20.4787 47.4447 19.823 48.0893 19.823C48.3901 19.823 48.605 19.9093 48.7666 20.1027V20.1564C48.7447 20.2101 48.691 20.2313 48.6158 20.2313H48.5942C48.5298 20.2313 48.3687 20.2209 48.1215 20.2101C47.5091 20.2101 46.8753 20.8762 46.2199 22.2295C45.7902 22.9928 45.3927 23.9597 45.0273 25.1308C44.9306 25.5927 44.7695 25.8184 44.5331 25.8184C44.3397 25.8184 44.2216 25.7002 44.1786 25.4531V25.4208C44.1786 24.7655 44.4579 22.7994 45.0273 19.5114C45.1348 19.3291 45.2744 19.2432 45.4571 19.2432C45.672 19.2754 45.7794 19.3829 45.7794 19.5656Z" fill="white"/>
<path d="M63.1202 7.86539C63.1202 8.048 62.9049 8.81081 62.4649 10.1323C62.0669 11.4431 61.745 12.6034 61.4872 13.603H61.4975C66.7731 13.5596 70.1037 13.5385 71.5003 13.5385H73.3053C73.5421 13.5385 73.8747 13.5385 74.3045 13.5492C74.4553 13.5918 74.5305 13.6348 74.5305 13.6992C74.5305 13.7637 74.4441 13.8174 74.2722 13.8389H72.6933C71.2536 13.8389 67.5037 13.9033 61.4438 14.043H61.369C60.1008 18.8459 59.467 23.6054 59.467 28.3111V28.7736C59.467 29.3537 59.4884 30.181 59.5207 31.2554H59.5426C59.6066 31.2338 59.6711 31.2124 59.736 31.2016C59.8541 31.2016 59.9186 31.2768 59.9289 31.4276C59.9289 31.6314 59.8219 31.8355 59.6066 32.0289C59.5529 32.0611 59.4781 32.0826 59.4029 32.0826H59.3595C59.1343 32.0826 58.9727 31.8677 58.876 31.4488V29.5578C58.876 24.293 59.5314 19.1252 60.8318 14.0542H60.724C59.6389 16.493 58.5649 18.5558 57.5224 20.2426C57.0819 21.0269 56.4587 21.8971 55.6637 22.8426C54.9653 23.5839 54.3744 23.9599 53.9017 23.9599C53.3108 23.9599 52.9348 23.4657 52.7521 22.4773C52.7091 22.3591 52.6662 22.3054 52.6443 22.2946H52.6232C52.5583 22.2946 52.3224 22.5095 51.9141 22.9285C51.2691 23.5087 50.7645 23.7992 50.3992 23.7992C50.0769 23.7992 49.8943 23.5839 49.8401 23.1542V23.0682C49.8401 22.3591 50.1951 21.5318 50.6571 20.9839C51.2153 20.3285 51.7637 19.9951 52.3116 19.9951H52.3224C52.7414 19.9951 53.1277 20.1996 53.4715 20.6079C53.4715 20.6293 53.4827 20.6616 53.4935 20.7261C53.4935 20.898 53.386 20.9946 53.16 21.0269C53.1067 21.0269 52.967 20.9302 52.7521 20.7475C52.6017 20.6509 52.4401 20.6079 52.2682 20.6079H52.2472C51.667 20.6079 51.0546 21.2203 50.6786 22.0476C50.5067 22.5203 50.41 22.8322 50.41 22.993C50.41 23.1864 50.474 23.2723 50.6137 23.2723C51.0331 23.2723 51.817 22.617 52.9348 21.2851C52.9777 21.2632 53.0207 21.2417 53.0422 21.2417H53.1067C53.2356 21.2417 53.2996 21.4137 53.2996 21.7467C53.2996 22.3376 53.3968 22.8103 53.6009 23.1975C53.7405 23.3368 53.9017 23.412 54.1058 23.412C55.0298 23.412 56.4695 21.607 58.4356 17.9864C59.0806 16.7509 59.7033 15.4504 60.2942 14.1075C60.3054 14.0865 60.3054 14.0753 60.3054 14.0649H60.2942C60.0149 14.0649 59.2413 14.0753 57.9736 14.0865C55.3951 14.0865 54.0199 14.0005 53.8265 13.8389C53.6331 13.7852 53.5364 13.7104 53.5364 13.6244C53.5364 13.4736 53.7298 13.3451 54.1058 13.2269C54.2455 13.1943 54.4067 13.1732 54.5893 13.1732H54.8794C55.1372 13.1732 55.2662 13.248 55.2662 13.3989V13.4628C55.2662 13.4951 55.2554 13.5385 55.2124 13.5918V13.603C55.7281 13.6133 56.1256 13.6244 56.4372 13.6244H60.5198C61.3153 11.7654 61.9169 10.1001 62.3359 8.60669C62.4541 7.92982 62.6149 7.58604 62.8409 7.58604C63.0343 7.58604 63.1202 7.68272 63.1202 7.86539Z" fill="white"/>
<path d="M62.2061 25.5273V25.345C62.2061 24.8719 62.335 23.4864 62.5932 21.1868C63.1949 16.9542 63.9788 13.398 64.9457 10.4963C65.4833 8.90628 66.0201 7.58478 66.5469 6.55335C66.8366 6.09184 67.1378 5.85547 67.449 5.85547C67.6961 5.85547 67.8362 5.89761 67.9002 6.21992L67.9114 6.27362C67.9114 6.5001 67.8039 6.76871 67.5676 7.10136C67.4924 7.14434 67.4387 7.16579 67.3845 7.16579H67.3205L67.2345 7.14434C66.3854 8.60586 65.6655 10.4104 65.0858 12.5596C64.3333 15.181 63.7106 18.6839 63.2267 23.0567C63.1837 23.6261 63.13 24.002 63.0763 24.2062V24.2169H63.0978C63.5168 23.3145 64.0969 22.3261 64.8168 21.2513C65.816 19.8872 66.6221 19.2104 67.2345 19.2104C67.6643 19.2104 67.9324 19.2963 68.1903 19.8219C68.2552 20.0265 68.2982 20.2095 68.3089 20.3814L68.3948 21.7347C68.4808 22.6372 68.8568 23.1851 69.5015 23.3893C69.6626 23.4219 69.813 23.443 69.9527 23.4537C71.0593 23.4537 72.6601 22.6802 74.7766 21.1439L74.8948 21.1223C74.9915 21.176 75.0452 21.2298 75.0564 21.3157L75.0667 21.3591C75.0667 21.4662 74.7985 21.681 74.2609 22.0033C72.3593 23.3033 70.8659 23.9479 69.7808 23.9479C68.9106 23.9479 68.2762 23.4649 67.8899 22.4872C67.7502 22.1108 67.6746 21.7781 67.6424 21.488C67.5564 20.6711 67.5139 20.2095 67.2668 20.0802L67.1164 20.0695C66.7725 20.0695 66.149 20.6071 65.2358 21.6918C64.5267 22.648 63.9143 23.6364 63.4201 24.6463C63.1412 25.2054 62.9259 25.5599 62.7974 25.7099C62.6895 25.807 62.5821 25.85 62.4746 25.85C62.335 25.85 62.249 25.743 62.2061 25.5273Z" fill="white"/>
<path d="M92.247 0C93.6003 0 94.8792 0.547955 96.0718 1.64425C96.7057 2.2781 97.1243 2.80415 97.3499 3.20212C97.7048 3.72856 98.0164 4.29753 98.285 4.91036C98.5321 5.45832 98.79 6.18889 99.0371 7.09134C99.4238 8.69212 99.6172 10.1962 99.6172 11.5934V12.1306C99.6172 14.8165 99.0263 17.6099 97.8553 20.5107C97.3288 21.7785 96.6305 23.1111 95.7388 24.5078C95.1797 25.3883 94.4495 26.3343 93.5681 27.3764C92.6119 28.4078 91.8813 29.1384 91.3764 29.5466C90.4309 30.3309 89.6681 30.8792 89.0772 31.2119C87.326 32.2755 85.7144 32.8024 84.2314 32.8024C82.7599 32.8024 81.5454 32.2755 80.6 31.2119C79.8479 30.2986 79.4719 29.0631 79.4719 27.5161C79.4719 25.421 80.1703 22.9173 81.5669 19.995C81.1802 18.7062 80.9975 17.2875 80.9975 15.762C80.9975 12.431 81.8248 9.21901 83.469 6.13513C83.8558 5.44753 84.3607 4.70623 84.9838 3.90045C85.2739 3.53516 85.6925 3.09428 86.2301 2.57851C87.1111 1.80497 87.8202 1.30048 88.3574 1.05338C88.8194 0.795497 89.3243 0.569413 89.8727 0.376069C90.7103 0.129357 91.4198 0 91.9892 0H92.247ZM81.481 15.9446C81.481 17.0834 81.6099 18.2222 81.8682 19.3615C81.9004 19.3074 82.1905 18.781 82.7277 17.7818C83.6297 16.1702 84.6401 14.612 85.7467 13.0868C86.3268 12.3025 87.1219 11.3678 88.1318 10.3041C89.2061 9.28305 89.9904 8.63842 90.4954 8.3806C90.9041 8.09052 91.3441 7.87605 91.8061 7.71446C91.9458 7.67148 92.0751 7.63924 92.1822 7.63924H92.2037C92.5152 7.68227 92.6768 7.83264 92.6768 8.09052C92.6768 8.42357 92.3867 8.79958 91.8061 9.22935C91.5375 9.41202 91.3227 9.50869 91.1723 9.53059C90.9144 9.47684 90.7859 9.35871 90.7859 9.16487V9.11117H90.7747C90.3562 9.36899 89.7755 9.83095 89.045 10.5083C88.1318 11.4318 87.5512 12.0553 87.3153 12.3884C86.6169 13.205 85.9293 14.1285 85.2417 15.1496C84.5111 16.2347 83.7694 17.4487 83.0392 18.8024C81.1694 22.3586 80.2347 25.2813 80.2347 27.5586V27.6449C80.2347 29.7292 81.019 31.1259 82.5983 31.835C83.1359 32.0503 83.6942 32.1573 84.2958 32.1573C85.6714 32.1573 87.2723 31.5879 89.0772 30.4495C89.6789 30.0731 90.4421 29.4822 91.3656 28.6871C92.2574 27.8384 92.8268 27.2582 93.0743 26.9466C94.0086 25.8718 94.8036 24.8194 95.4487 23.7875C96.1466 22.6814 96.7916 21.4565 97.361 20.1239C97.6619 19.3937 97.9627 18.5342 98.2528 17.5454C98.79 15.5901 99.0586 13.7958 99.0586 12.1517V11.6145C99.0586 9.86325 98.7685 8.07974 98.1991 6.25331C97.8553 5.30789 97.49 4.5021 97.0925 3.83558C95.7388 1.61162 94.0623 0.505426 92.0317 0.505426C90.6565 0.505426 89.1309 1.06372 87.4549 2.20294C86.4557 2.96575 85.5747 3.85748 84.833 4.87812C84.1566 5.83427 83.6082 6.80127 83.1785 7.77894C82.0504 10.3682 81.481 13.0649 81.481 15.8909V15.9446Z" fill="white"/>
<path d="M127.476 2.16113C128.055 2.16113 128.421 2.88103 128.571 4.3211C128.614 4.75081 128.636 5.21244 128.636 5.7281V6.28678C128.636 8.62892 128.174 13.507 127.26 20.9201C126.766 25.1214 126.508 28.1623 126.508 30.0313V30.2354C126.508 31.9119 126.734 32.911 127.174 33.2329C127.218 33.33 127.228 33.3837 127.228 33.4267C127.228 33.6524 127.132 33.7813 126.917 33.835C126.906 33.8457 126.874 33.8565 126.82 33.8565C126.348 33.8565 126.047 33.0292 125.907 31.3854C125.875 30.8049 125.864 30.2466 125.864 29.7309C125.864 26.9371 126.272 21.6941 127.11 14.0012C127.605 9.44587 127.851 6.28678 127.851 4.5463C127.851 3.45044 127.669 2.90249 127.304 2.90249H127.26C126.573 2.90249 125.219 4.83681 123.188 8.72598C121.512 11.9599 119.654 15.9351 117.591 20.652C117.236 21.4578 116.967 21.8768 116.796 21.8983C116.796 21.9412 116.677 21.9842 116.441 22.0164C115.936 22.0164 115.689 21.1354 115.689 19.3627V18.9008C115.689 18.2342 115.775 15.9458 115.936 12.0458C115.968 11.4872 115.979 10.9285 115.979 10.3806C115.979 7.95244 115.71 6.46978 115.184 5.94301C115.13 5.89998 115.066 5.87852 115.002 5.87852C114.583 5.92188 114.013 6.53388 113.272 7.69466C112.143 9.4884 110.736 12.4863 109.049 16.6871C106.653 22.8652 104.483 29.1073 102.527 35.4144C102.398 35.6507 102.28 35.7689 102.173 35.7689H102.13C102.012 35.7689 101.937 35.6721 101.894 35.468C102.291 34.0924 102.925 32.116 103.774 29.5155C106.353 21.6941 108.738 15.4194 110.919 10.7132C111.81 8.84416 112.681 7.35084 113.529 6.24381C114.11 5.5347 114.658 5.18058 115.152 5.18058C115.99 5.18058 116.505 6.09382 116.699 7.93098C116.785 8.75822 116.828 9.81116 116.828 11.1219C116.828 12.0995 116.753 14.7318 116.592 19.0404V19.9425C116.592 20.652 116.646 21.0061 116.742 21.0061H116.785C116.849 21.0061 117.086 20.5983 117.483 19.7706C118.01 18.6644 119.02 16.3863 120.535 12.9591C122.233 9.14458 123.683 6.31941 124.897 4.4603C125.939 2.924 126.788 2.16113 127.454 2.16113H127.476Z" fill="white"/>
<path d="M0.92627 39.5547H1.19073C2.11634 39.5547 2.86304 39.8596 3.43039 40.4679C3.99774 41.077 4.28162 41.8071 4.28162 42.658C4.28162 43.5096 3.99939 44.2377 3.43452 44.8439C2.86965 45.4501 2.12172 45.753 1.19073 45.753H0.92627V39.5547ZM1.25684 39.8026H1.19073V45.4968H1.25684C2.06139 45.4968 2.72089 45.2187 3.23617 44.6625C3.75146 44.1059 4.0089 43.4377 4.0089 42.658C4.0089 41.8782 3.75146 41.2076 3.23617 40.6456C2.72089 40.084 2.06139 39.8026 1.25684 39.8026Z" fill="white"/>
<path d="M6.38077 41.1338C6.22086 41.1338 6.14111 41.059 6.14111 40.9107C6.14111 40.7619 6.22086 40.6875 6.38077 40.6875C6.54069 40.6875 6.62044 40.7619 6.62044 40.9107C6.62044 41.059 6.54069 41.1338 6.38077 41.1338ZM6.51301 45.7537H6.24854V42.0429H6.51301V45.7537Z" fill="white"/>
<path d="M12.0586 42.0337H12.3231V45.4061C12.3231 46.0449 12.1466 46.5491 11.7941 46.9185C11.4417 47.287 10.9788 47.4722 10.4057 47.4722C10.0917 47.4722 9.78588 47.4003 9.48836 47.2569C9.19085 47.1135 8.95944 46.9263 8.79415 46.6953V46.3152C8.93754 46.5792 9.16192 46.7999 9.4677 46.9759C9.77349 47.1524 10.0863 47.2404 10.4057 47.2404C10.8904 47.2404 11.2875 47.0767 11.5958 46.749C11.9045 46.4209 12.0586 45.9735 12.0586 45.4061V44.8523C11.9098 45.1552 11.6755 45.3974 11.3561 45.5796C11.0367 45.761 10.7061 45.8524 10.3644 45.8524C9.82431 45.8524 9.3615 45.661 8.97597 45.2776C8.59044 44.895 8.39746 44.4363 8.39746 43.9015C8.39746 43.3673 8.59044 42.909 8.97597 42.5259C9.3615 42.1429 9.82431 41.9512 10.3644 41.9512C10.7227 41.9512 11.0574 42.0408 11.3685 42.2202C11.6797 42.399 11.9098 42.6458 12.0586 42.9598V42.0337ZM8.66192 43.9015C8.66192 44.3701 8.83134 44.7734 9.17019 45.1127C9.50903 45.4512 9.91109 45.6206 10.3768 45.6206C10.8425 45.6206 11.2404 45.4512 11.571 45.1127C11.9016 44.7734 12.0669 44.3701 12.0669 43.9015C12.0669 43.4333 11.9016 43.03 11.571 42.6908C11.2404 42.352 10.8425 42.183 10.3768 42.183C9.91109 42.183 9.50903 42.352 9.17019 42.6908C8.83134 43.03 8.66192 43.4333 8.66192 43.9015Z" fill="white"/>
<path d="M14.5464 41.1338C14.3869 41.1338 14.3071 41.059 14.3071 40.9107C14.3071 40.7619 14.3869 40.6875 14.5464 40.6875C14.7063 40.6875 14.786 40.7619 14.786 40.9107C14.786 41.059 14.7063 41.1338 14.5464 41.1338ZM14.679 45.7537H14.4146V42.0429H14.679V45.7537Z" fill="white"/>
<rect x="16.6045" y="42.2988" width="2.57023" height="0.906106" fill="white"/>
<path d="M23.0961 39.886C22.8783 39.7542 22.6345 39.6881 22.3643 39.6881C22.0944 39.6881 21.8647 39.772 21.6746 39.9397C21.4845 40.1079 21.3895 40.3381 21.3895 40.6298V40.6711C21.3895 41.0183 21.5825 41.3352 21.968 41.6216C22.1333 41.7426 22.3192 41.8624 22.5258 41.9811C22.7325 42.0996 22.9391 42.2265 23.1457 42.3612C23.3523 42.4963 23.5395 42.6397 23.7072 42.791C23.8758 42.9426 24.0134 43.1286 24.1205 43.3488C24.2283 43.5695 24.282 43.8116 24.282 44.0765V44.1587C24.282 44.6823 24.1044 45.098 23.749 45.4067C23.3936 45.7154 22.9539 45.8695 22.4308 45.8695C21.742 45.8695 21.2077 45.586 20.8275 45.0183V44.572C20.9705 44.8864 21.1812 45.1409 21.4597 45.3364C21.7378 45.5323 22.0837 45.6298 22.4969 45.6298C22.9101 45.6298 23.2684 45.4976 23.5713 45.2331C23.8742 44.9687 24.0258 44.6161 24.0258 44.1753V44.1257C24.0258 43.8505 23.9539 43.598 23.8105 43.3699C23.6676 43.141 23.4887 42.9538 23.2738 42.8075C23.0589 42.6616 22.8246 42.5088 22.5709 42.3488C22.3176 42.1889 22.0837 42.0406 21.8688 41.9025C21.6539 41.7649 21.4746 41.5914 21.3312 41.3819C21.1883 41.1724 21.1168 40.9443 21.1168 40.696V40.6381C21.1168 40.2525 21.2407 39.9579 21.4887 39.7542C21.7366 39.5505 22.0424 39.448 22.406 39.448C22.913 39.448 23.3151 39.6356 23.6126 40.01V40.4315C23.4858 40.2 23.3134 40.0183 23.0961 39.886Z" fill="white"/>
<path d="M26.0996 47.4057V42.0338H26.3641V42.9434C26.5128 42.64 26.7455 42.3975 27.0624 42.2161C27.3793 42.0338 27.7083 41.9434 28.05 41.9434C28.5955 41.9434 29.0595 42.1347 29.4426 42.5173C29.8256 42.9004 30.0169 43.3594 30.0169 43.8933C30.0169 44.4276 29.8256 44.8867 29.4426 45.2698C29.0595 45.6525 28.5955 45.8438 28.05 45.8438C27.7194 45.8438 27.3971 45.7541 27.0831 45.5756C26.7695 45.3962 26.5294 45.1553 26.3641 44.8524V47.4057H26.0996ZM26.3476 43.9016C26.3476 44.3644 26.517 44.7656 26.8558 45.1041C27.1946 45.4429 27.5967 45.6127 28.0624 45.6127C28.5277 45.6127 28.926 45.4429 29.2566 45.1041C29.5872 44.7656 29.7525 44.3631 29.7525 43.8975C29.7525 43.4322 29.5859 43.0289 29.2525 42.6871C28.9194 42.3454 28.5211 42.1744 28.0587 42.1744C27.5959 42.1744 27.1946 42.3466 26.8558 42.6909C26.517 43.0355 26.3476 43.4392 26.3476 43.9016Z" fill="white"/>
<path d="M32.0341 41.1338C31.8742 41.1338 31.7944 41.059 31.7944 40.9107C31.7944 40.7619 31.8742 40.6875 32.0341 40.6875C32.1936 40.6875 32.2738 40.7619 32.2738 40.9107C32.2738 41.059 32.1936 41.1338 32.0341 41.1338ZM32.1659 45.7537H31.9015V42.0429H32.1659V45.7537Z" fill="white"/>
<path d="M35.6288 42.1748C35.3371 42.1748 35.0796 42.285 34.8565 42.5054C34.6334 42.726 34.5214 42.9818 34.5214 43.2739V45.7532H34.2573V42.0343H34.5214V42.5879C34.6209 42.4008 34.7751 42.2466 34.9842 42.1251C35.1937 42.0041 35.428 41.9434 35.6871 41.9434C35.9457 41.9434 36.1937 42.0314 36.4304 42.2078V42.5384C36.1883 42.2963 35.9209 42.1748 35.6288 42.1748Z" fill="white"/>
<path d="M38.3647 41.1338C38.2047 41.1338 38.125 41.059 38.125 40.9107C38.125 40.7619 38.2047 40.6875 38.3647 40.6875C38.5246 40.6875 38.6043 40.7619 38.6043 40.9107C38.6043 41.059 38.5246 41.1338 38.3647 41.1338ZM38.4965 45.7537H38.232V42.0429H38.4965V45.7537Z" fill="white"/>
<path d="M41.9184 45.5712V45.803C41.5266 45.803 41.1936 45.672 40.918 45.41C40.6423 45.1489 40.5048 44.8138 40.5048 44.4063V40.5381H40.7692V42.0423H41.9097V42.2741H40.7692V44.4063C40.7692 44.7422 40.8808 45.0203 41.1043 45.2406C41.3271 45.4608 41.5986 45.5712 41.9184 45.5712Z" fill="white"/>
<path d="M46.5631 42.0342H46.8276V45.7532H46.5631V45.0011C46.2817 45.5631 45.8024 45.8441 45.1251 45.8441C44.6619 45.8441 44.2739 45.6842 43.9594 45.3648C43.6454 45.0453 43.4888 44.6569 43.4888 44.1995V42.0342H43.7528V44.1995C43.7528 44.5796 43.8863 44.9102 44.1541 45.1912C44.421 45.4722 44.745 45.6126 45.1251 45.6126C45.5049 45.6126 45.84 45.4722 46.1288 45.1912C46.4181 44.9102 46.5631 44.5796 46.5631 44.1995V42.0342Z" fill="white"/>
<path d="M52.4388 42.0338V45.7528H52.1744V44.8272C52.0202 45.1413 51.7888 45.3896 51.4805 45.571C51.1715 45.7528 50.8413 45.8438 50.4884 45.8438C49.9483 45.8438 49.4855 45.6525 49.1 45.2698C48.7145 44.8867 48.5215 44.4276 48.5215 43.8933C48.5215 43.3594 48.7145 42.9004 49.1 42.5173C49.4855 42.1347 49.9483 41.9434 50.4884 41.9434C50.8413 41.9434 51.1785 42.0368 51.5008 42.2239C51.8235 42.4115 52.0479 42.6594 52.1744 42.9677V42.0338H52.4388ZM48.7859 43.9016C48.7859 44.3644 48.9554 44.7656 49.2942 45.1041C49.633 45.4429 50.0351 45.6127 50.5008 45.6127C50.9661 45.6127 51.3644 45.4429 51.695 45.1041C52.0256 44.7656 52.1909 44.3631 52.1909 43.8975C52.1909 43.4322 52.0243 43.0289 51.6909 42.6871C51.3578 42.3454 50.9595 42.1744 50.4971 42.1744C50.0343 42.1744 49.633 42.3466 49.2942 42.6909C48.9554 43.0355 48.7859 43.4392 48.7859 43.9016Z" fill="white"/>
<path d="M55.8351 45.596V45.8274C55.4438 45.8274 55.1103 45.6964 54.8351 45.4349C54.5595 45.1733 54.4219 44.8386 54.4219 44.4307V39.5547H54.6863V44.4307C54.6863 44.7667 54.7979 45.0452 55.021 45.2654C55.2442 45.4857 55.5157 45.596 55.8351 45.596Z" fill="white"/>
<path d="M61.4961 39.5547H61.7606C62.1188 39.5547 62.4192 39.6659 62.6618 39.889C62.9039 40.1122 63.0254 40.3977 63.0254 40.7448C63.0254 40.9539 62.9572 41.1675 62.8225 41.3849C62.6874 41.603 62.5291 41.7444 62.3473 41.8109C62.7717 41.9159 63.1246 42.141 63.4052 42.4881C63.6862 42.8357 63.8267 43.2725 63.8267 43.7981C63.8267 44.3245 63.6258 44.782 63.2234 45.1703C62.8213 45.5588 62.3337 45.753 61.7606 45.753H61.4961V39.5547ZM61.7606 39.7857V41.7366H61.8267C62.075 41.7366 62.2936 41.6361 62.4837 41.4344C62.6738 41.2336 62.7688 41.0026 62.7688 40.7406C62.7688 40.479 62.6754 40.2543 62.4882 40.0671C62.3006 39.8799 62.08 39.7857 61.8267 39.7857H61.7606ZM61.7606 41.9597V45.5216H61.8267C62.3006 45.5216 62.7097 45.3452 63.0539 44.9927C63.3985 44.6398 63.5704 44.2212 63.5704 43.7365C63.5704 43.2518 63.3998 42.834 63.0585 42.4844C62.7163 42.1345 62.306 41.9597 61.8267 41.9597H61.7606Z" fill="white"/>
<path d="M69.2733 42.0338V45.7528H69.0088V44.8272C68.8547 45.1413 68.6233 45.3896 68.315 45.571C68.0059 45.7528 67.6758 45.8438 67.3229 45.8438C66.7828 45.8438 66.32 45.6525 65.9345 45.2698C65.5489 44.8867 65.356 44.4276 65.356 43.8933C65.356 43.3594 65.5489 42.9004 65.9345 42.5173C66.32 42.1347 66.7828 41.9434 67.3229 41.9434C67.6758 41.9434 68.013 42.0368 68.3353 42.2239C68.658 42.4115 68.8824 42.6594 69.0088 42.9677V42.0338H69.2733ZM65.6204 43.9016C65.6204 44.3644 65.7898 44.7656 66.1287 45.1041C66.4675 45.4429 66.8696 45.6127 67.3353 45.6127C67.8006 45.6127 68.1989 45.4429 68.5295 45.1041C68.8601 44.7656 69.0253 44.3631 69.0253 43.8975C69.0253 43.4322 68.8588 43.0289 68.5254 42.6871C68.1923 42.3454 67.7939 42.1744 67.3316 42.1744C66.8688 42.1744 66.4675 42.3466 66.1287 42.6909C65.7898 43.0355 65.6204 43.4392 65.6204 43.9016Z" fill="white"/>
<path d="M71.5208 45.7532H71.2563V42.0343H71.5208V42.7863C71.8018 42.2243 72.2811 41.9434 72.9588 41.9434C73.422 41.9434 73.81 42.1032 74.1241 42.4227C74.4386 42.7426 74.5952 43.1305 74.5952 43.588V45.7532H74.3307V43.588C74.3307 43.2078 74.1972 42.8772 73.9299 42.5962C73.6629 42.3152 73.3389 42.1748 72.9588 42.1748C72.5791 42.1748 72.2439 42.3152 71.9547 42.5962C71.6658 42.8772 71.5208 43.2078 71.5208 43.588V45.7532Z" fill="white"/>
<path d="M76.5791 39.5713H76.8435V43.3233L78.3146 42.0341H78.6535L76.9506 43.5217L79.0832 45.753H78.7278L76.8435 43.7944V45.753H76.5791V39.5713Z" fill="white"/>
<path d="M86.0751 40.5303V40.7618C85.7556 40.7618 85.4842 40.8717 85.261 41.0919C85.0379 41.313 84.9263 41.5907 84.9263 41.927V44.1006H86.0834V44.3316H84.9263V45.7535H84.6619V41.927C84.6619 41.5196 84.7995 41.1845 85.0751 40.9225C85.3503 40.661 85.6837 40.5303 86.0751 40.5303Z" fill="white"/>
<path d="M88.0995 45.2539C87.7194 44.86 87.5293 44.4013 87.5293 43.8778C87.5293 43.3547 87.7223 42.9014 88.1078 42.5183C88.4933 42.1352 88.9574 41.9443 89.5003 41.9443C90.0429 41.9443 90.5057 42.1352 90.8888 42.5183C91.2718 42.9014 91.4631 43.3563 91.4631 43.8819C91.4631 44.408 91.276 44.8671 90.9012 45.258C90.5264 45.6492 90.0719 45.8447 89.5371 45.8447H89.4632C88.9342 45.8447 88.4797 45.6476 88.0995 45.2539ZM91.1987 43.8985C91.1987 43.4332 91.0322 43.0295 90.6987 42.6877C90.3652 42.3464 89.9673 42.1753 89.5045 42.1753C89.0417 42.1753 88.6409 42.3476 88.302 42.6918C87.9632 43.0365 87.7938 43.4402 87.7938 43.9026C87.7938 44.3654 87.9632 44.7666 88.302 45.105C88.6409 45.4439 89.0429 45.6133 89.5086 45.6133C89.9739 45.6133 90.3723 45.4439 90.7028 45.105C91.0334 44.7666 91.1987 44.3642 91.1987 43.8985Z" fill="white"/>
<path d="M94.6117 42.1748C94.32 42.1748 94.0625 42.285 93.8394 42.5054C93.6162 42.726 93.5043 42.9818 93.5043 43.2739V45.7532H93.2402V42.0343H93.5043V42.5879C93.6039 42.4008 93.758 42.2466 93.9671 42.1251C94.1766 42.0041 94.4109 41.9434 94.67 41.9434C94.9286 41.9434 95.1766 42.0314 95.4134 42.2078V42.5384C95.1712 42.2963 94.9038 42.1748 94.6117 42.1748Z" fill="white"/>
<path d="M101.116 39.5547H101.38C101.738 39.5547 102.039 39.6659 102.281 39.889C102.524 40.1122 102.645 40.3977 102.645 40.7448C102.645 40.9539 102.577 41.1675 102.442 41.3849C102.307 41.603 102.149 41.7444 101.967 41.8109C102.391 41.9159 102.744 42.141 103.025 42.4881C103.306 42.8357 103.446 43.2725 103.446 43.7981C103.446 44.3245 103.245 44.782 102.843 45.1703C102.441 45.5588 101.953 45.753 101.38 45.753H101.116V39.5547ZM101.38 39.7857V41.7366H101.446C101.695 41.7366 101.913 41.6361 102.103 41.4344C102.293 41.2336 102.388 41.0026 102.388 40.7406C102.388 40.479 102.295 40.2543 102.108 40.0671C101.92 39.8799 101.7 39.7857 101.446 39.7857H101.38ZM101.38 41.9597V45.5216H101.446C101.92 45.5216 102.329 45.3452 102.674 44.9927C103.018 44.6398 103.19 44.2212 103.19 43.7365C103.19 43.2518 103.019 42.834 102.678 42.4844C102.336 42.1345 101.926 41.9597 101.446 41.9597H101.38Z" fill="white"/>
<path d="M105.447 45.7535H105.182V39.5635H105.447V42.7535C105.722 42.2139 106.199 41.9437 106.876 41.9437C107.339 41.9437 107.729 42.1035 108.046 42.4229C108.363 42.7429 108.521 43.1308 108.521 43.5883V45.7535H108.256V43.5883C108.256 43.2027 108.122 42.8705 107.852 42.5924C107.582 42.3143 107.257 42.1751 106.876 42.1751C106.496 42.1751 106.163 42.3155 105.876 42.5965C105.59 42.8775 105.447 43.2081 105.447 43.5883V45.7535Z" fill="white"/>
<path d="M114.132 42.0338V45.7528H113.868V44.8272C113.714 45.1413 113.482 45.3896 113.174 45.571C112.865 45.7528 112.535 45.8438 112.182 45.8438C111.642 45.8438 111.179 45.6525 110.793 45.2698C110.408 44.8867 110.215 44.4276 110.215 43.8933C110.215 43.3594 110.408 42.9004 110.793 42.5173C111.179 42.1347 111.642 41.9434 112.182 41.9434C112.535 41.9434 112.872 42.0368 113.194 42.2239C113.517 42.4115 113.741 42.6594 113.868 42.9677V42.0338H114.132ZM110.479 43.9016C110.479 44.3644 110.649 44.7656 110.988 45.1041C111.326 45.4429 111.728 45.6127 112.194 45.6127C112.659 45.6127 113.058 45.4429 113.388 45.1041C113.719 44.7656 113.884 44.3631 113.884 43.8975C113.884 43.4322 113.718 43.0289 113.384 42.6871C113.051 42.3454 112.653 42.1744 112.19 42.1744C111.728 42.1744 111.326 42.3466 110.988 42.6909C110.649 43.0355 110.479 43.4392 110.479 43.9016Z" fill="white"/>
<path d="M117.487 42.1748C117.195 42.1748 116.938 42.285 116.715 42.5054C116.492 42.726 116.38 42.9818 116.38 43.2739V45.7532H116.116V42.0343H116.38V42.5879C116.479 42.4008 116.634 42.2466 116.843 42.1251C117.052 42.0041 117.286 41.9434 117.545 41.9434C117.804 41.9434 118.052 42.0314 118.289 42.2078V42.5384C118.047 42.2963 117.779 42.1748 117.487 42.1748Z" fill="white"/>
<path d="M123.694 42.0338V45.7528H123.43V44.8272C123.276 45.1413 123.044 45.3896 122.736 45.571C122.427 45.7528 122.097 45.8438 121.744 45.8438C121.204 45.8438 120.741 45.6525 120.355 45.2698C119.97 44.8867 119.777 44.4276 119.777 43.8933C119.777 43.3594 119.97 42.9004 120.355 42.5173C120.741 42.1347 121.204 41.9434 121.744 41.9434C122.097 41.9434 122.434 42.0368 122.756 42.2239C123.079 42.4115 123.303 42.6594 123.43 42.9677V42.0338H123.694ZM120.041 43.9016C120.041 44.3644 120.211 44.7656 120.55 45.1041C120.888 45.4429 121.29 45.6127 121.756 45.6127C122.221 45.6127 122.62 45.4429 122.95 45.1041C123.281 44.7656 123.446 44.3631 123.446 43.8975C123.446 43.4322 123.28 43.0289 122.946 42.6871C122.613 42.3454 122.215 42.1744 121.752 42.1744C121.29 42.1744 120.888 42.3466 120.55 42.6909C120.211 43.0355 120.041 43.4392 120.041 43.9016Z" fill="white"/>
<path d="M127.008 45.5712V45.803C126.617 45.803 126.284 45.672 126.008 45.41C125.733 45.1489 125.595 44.8138 125.595 44.4063V40.5381H125.859V42.0423H127V42.2741H125.859V44.4063C125.859 44.7422 125.971 45.0203 126.194 45.2406C126.417 45.4608 126.689 45.5712 127.008 45.5712Z" fill="white"/>
<path d="M128.926 45.7535H128.661V39.5635H128.926V42.7535C129.201 42.2139 129.678 41.9437 130.355 41.9437C130.818 41.9437 131.208 42.1035 131.525 42.4229C131.842 42.7429 132 43.1308 132 43.5883V45.7535H131.735V43.5883C131.735 43.2027 131.601 42.8705 131.331 42.5924C131.061 42.3143 130.735 42.1751 130.355 42.1751C129.975 42.1751 129.642 42.3155 129.355 42.5965C129.069 42.8775 128.926 43.2081 128.926 43.5883V45.7535Z" fill="white"/>
</svg>
