<svg width="24" height="24" viewBox="0 0 24 24" fill="none" xmlns="http://www.w3.org/2000/svg">
<circle cx="12" cy="12" r="11.5" fill="#E9E1D9" stroke="#F3EDE9"/>
<path d="M15.3667 17.52C14.7133 18.1533 14 18.0533 13.3133 17.7533C12.5867 17.4467 11.92 17.4333 11.1533 17.7533C10.1933 18.1667 9.68667 18.0467 9.11334 17.52C5.86001 14.1667 6.34001 9.06 10.0333 8.87333C10.9333 8.92 11.56 9.36667 12.0867 9.40667C12.8733 9.24667 13.6267 8.78667 14.4667 8.84667C15.4733 8.92667 16.2333 9.32667 16.7333 10.0467C14.6533 11.2933 15.1467 14.0333 17.0533 14.8C16.6733 15.8 16.18 16.7933 15.36 17.5267L15.3667 17.52ZM12.02 8.83333C11.92 7.34667 13.1267 6.12 14.5133 6C14.7067 7.72 12.9533 9 12.02 8.83333Z" fill="black"/>
</svg>
