<svg width="24" height="24" viewBox="0 0 24 24" fill="none" xmlns="http://www.w3.org/2000/svg">
<circle cx="12" cy="12" r="11.5" fill="#E9E1D9" stroke="#F3EDE9"/>
<path d="M6.42468 6.2893L12.2513 12.0033L6.46801 17.77C6.37339 17.6468 6.29995 17.5086 6.25068 17.3613C6.2252 17.1945 6.2252 17.0248 6.25068 16.858V7.04464C6.23334 6.7813 6.29401 6.51797 6.42401 6.2893M14.7613 9.5113L12.8593 11.3953L7.10201 5.7333C7.28868 5.66864 7.48868 5.65064 7.68401 5.6813C7.99068 5.7653 8.28334 5.89464 8.55201 6.0633L13.7627 8.94664C14.1013 9.12864 14.4313 9.31997 14.7613 9.5113ZM12.86 12.62L14.7527 14.4786L13.3807 15.2426L9.19468 17.5693C8.84801 17.7606 8.50001 17.9433 8.16134 18.152C8.01643 18.2422 7.85393 18.3005 7.68471 18.3229C7.51548 18.3453 7.34342 18.3313 7.18001 18.282L12.86 12.62ZM17.7667 12.0033C17.7715 12.2364 17.7126 12.4664 17.5963 12.6685C17.48 12.8706 17.3107 13.0371 17.1067 13.15L15.5427 14.018L13.4847 12.0033L15.5513 9.95397C16.0813 10.2493 16.6027 10.5446 17.1233 10.8226C17.331 10.9387 17.5015 11.1112 17.6153 11.3201C17.729 11.529 17.7819 11.7659 17.7667 12.0033Z" fill="black"/>
</svg>
