<svg width="32" height="32" viewBox="0 0 32 32" fill="none" xmlns="http://www.w3.org/2000/svg">
<path d="M17.3707 2.6665C18.8707 2.6705 19.632 2.6785 20.2893 2.69717L20.548 2.7065C20.8467 2.71717 21.1413 2.7305 21.4973 2.7465C22.916 2.81317 23.884 3.03717 24.7333 3.3665C25.6133 3.70517 26.3547 4.16384 27.096 4.90384C27.7742 5.57015 28.2989 6.37647 28.6333 7.2665C28.9627 8.11584 29.1867 9.08384 29.2533 10.5038C29.2693 10.8585 29.2827 11.1532 29.2933 11.4532L29.3013 11.7118C29.3213 12.3678 29.3293 13.1292 29.332 14.6292L29.3333 15.6238V17.3705C29.3366 18.343 29.3263 19.3156 29.3027 20.2878L29.2947 20.5465C29.284 20.8465 29.2707 21.1412 29.2547 21.4958C29.188 22.9158 28.9613 23.8825 28.6333 24.7332C28.2989 25.6232 27.7742 26.4295 27.096 27.0958C26.4297 27.7741 25.6234 28.2988 24.7333 28.6332C23.884 28.9625 22.916 29.1865 21.4973 29.2532L20.548 29.2932L20.2893 29.3012C19.632 29.3198 18.8707 29.3292 17.3707 29.3318L16.376 29.3332H14.6307C13.6577 29.3366 12.6847 29.3264 11.712 29.3025L11.4533 29.2945C11.1368 29.2825 10.8203 29.2687 10.504 29.2532C9.08532 29.1865 8.11732 28.9625 7.26665 28.6332C6.37709 28.2986 5.57124 27.7739 4.90532 27.0958C4.22658 26.4297 3.70146 25.6233 3.36665 24.7332C3.03732 23.8838 2.81332 22.9158 2.74665 21.4958L2.70665 20.5465L2.69999 20.2878C2.67541 19.3156 2.66429 18.3431 2.66665 17.3705V14.6292C2.66296 13.6566 2.67274 12.6841 2.69599 11.7118L2.70532 11.4532C2.71599 11.1532 2.72932 10.8585 2.74532 10.5038C2.81199 9.08384 3.03599 8.11717 3.36532 7.2665C3.70091 6.3761 4.22695 5.56975 4.90665 4.90384C5.57219 4.2259 6.37757 3.70127 7.26665 3.3665C8.11732 3.03717 9.08399 2.81317 10.504 2.7465C10.8587 2.7305 11.1547 2.71717 11.4533 2.7065L11.712 2.6985C12.6842 2.67481 13.6568 2.66459 14.6293 2.66784L17.3707 2.6665ZM16 9.33317C14.2319 9.33317 12.5362 10.0355 11.2859 11.2858C10.0357 12.536 9.33332 14.2317 9.33332 15.9998C9.33332 17.7679 10.0357 19.4636 11.2859 20.7139C12.5362 21.9641 14.2319 22.6665 16 22.6665C17.7681 22.6665 19.4638 21.9641 20.714 20.7139C21.9643 19.4636 22.6667 17.7679 22.6667 15.9998C22.6667 14.2317 21.9643 12.536 20.714 11.2858C19.4638 10.0355 17.7681 9.33317 16 9.33317ZM16 11.9998C16.5253 11.9997 17.0454 12.1031 17.5308 12.3041C18.0161 12.505 18.4571 12.7996 18.8286 13.1709C19.2001 13.5423 19.4948 13.9832 19.6959 14.4685C19.897 14.9538 20.0006 15.4739 20.0007 15.9992C20.0007 16.5245 19.8974 17.0446 19.6964 17.53C19.4955 18.0153 19.2009 18.4563 18.8296 18.8278C18.4582 19.1993 18.0173 19.494 17.532 19.6951C17.0467 19.8962 16.5266 19.9998 16.0013 19.9998C14.9405 19.9998 13.923 19.5784 13.1729 18.8283C12.4227 18.0781 12.0013 17.0607 12.0013 15.9998C12.0013 14.939 12.4227 13.9216 13.1729 13.1714C13.923 12.4213 14.9405 11.9998 16.0013 11.9998M23.0013 7.33317C22.5593 7.33317 22.1354 7.50877 21.8228 7.82133C21.5102 8.13389 21.3347 8.55781 21.3347 8.99984C21.3347 9.44186 21.5102 9.86579 21.8228 10.1783C22.1354 10.4909 22.5593 10.6665 23.0013 10.6665C23.4433 10.6665 23.8673 10.4909 24.1798 10.1783C24.4924 9.86579 24.668 9.44186 24.668 8.99984C24.668 8.55781 24.4924 8.13389 24.1798 7.82133C23.8673 7.50877 23.4433 7.33317 23.0013 7.33317Z" fill="white"/>
</svg>
