<svg width="25" height="26" viewBox="0 0 25 26" fill="none" xmlns="http://www.w3.org/2000/svg">
<path d="M12.1928 2.76709C14.4448 2.76709 16.6046 3.66172 18.1971 5.25416C19.7895 6.84661 20.6842 9.00643 20.6842 11.2585C20.6842 14.8467 18.1629 18.7571 13.1856 23.0315C12.9088 23.2692 12.556 23.3998 12.1911 23.3995C11.8263 23.3992 11.4736 23.268 11.1973 23.0298L10.8681 22.7441C6.11117 18.5811 3.70135 14.7665 3.70135 11.2585C3.70135 9.00643 4.59598 6.84661 6.18843 5.25416C7.78088 3.66172 9.9407 2.76709 12.1928 2.76709ZM12.1928 4.07346C10.2872 4.07346 8.45963 4.83045 7.11217 6.17791C5.76472 7.52536 5.00772 9.3529 5.00772 11.2585C5.00772 14.3084 7.22681 17.8226 11.7259 21.7591L12.0508 22.0404C12.0903 22.0744 12.1407 22.093 12.1928 22.093C12.2449 22.093 12.2952 22.0744 12.3347 22.0404C17.0516 17.9889 19.3778 14.3807 19.3778 11.2585C19.3778 10.3149 19.1919 9.38063 18.8309 8.5089C18.4698 7.63717 17.9405 6.8451 17.2733 6.17791C16.6062 5.51071 15.8141 4.98147 14.9424 4.62039C14.0706 4.25931 13.1363 4.07346 12.1928 4.07346ZM12.1928 7.99257C13.0589 7.99257 13.8896 8.33666 14.5021 8.94914C15.1146 9.56161 15.4587 10.3923 15.4587 11.2585C15.4587 12.1247 15.1146 12.9554 14.5021 13.5678C13.8896 14.1803 13.0589 14.5244 12.1928 14.5244C11.3266 14.5244 10.4959 14.1803 9.8834 13.5678C9.27092 12.9554 8.92683 12.1247 8.92683 11.2585C8.92683 10.3923 9.27092 9.56161 9.8834 8.94914C10.4959 8.33666 11.3266 7.99257 12.1928 7.99257ZM12.1928 9.29894C11.6731 9.29894 11.1746 9.50539 10.8071 9.87288C10.4397 10.2404 10.2332 10.7388 10.2332 11.2585C10.2332 11.7782 10.4397 12.2766 10.8071 12.6441C11.1746 13.0116 11.6731 13.218 12.1928 13.218C12.7125 13.218 13.2109 13.0116 13.5784 12.6441C13.9459 12.2766 14.1523 11.7782 14.1523 11.2585C14.1523 10.7388 13.9459 10.2404 13.5784 9.87288C13.2109 9.50539 12.7125 9.29894 12.1928 9.29894Z" fill="white"/>
</svg>
