<svg width="24" height="24" viewBox="0 0 24 24" fill="none" xmlns="http://www.w3.org/2000/svg">
<path d="M19.4349 4.06494H4.56494C3.9019 4.06494 3.26602 4.32833 2.79717 4.79717C2.32833 5.26602 2.06494 5.9019 2.06494 6.56494V17.4349C2.06494 18.098 2.32833 18.7339 2.79717 19.2027C3.26602 19.6715 3.9019 19.9349 4.56494 19.9349H19.4349C20.098 19.9349 20.7339 19.6715 21.2027 19.2027C21.6715 18.7339 21.9349 18.098 21.9349 17.4349V6.56494C21.9349 5.9019 21.6715 5.26602 21.2027 4.79717C20.7339 4.32833 20.098 4.06494 19.4349 4.06494ZM4.56494 5.06494H19.4349C19.8134 5.06409 20.178 5.20727 20.4547 5.46542C20.7314 5.72357 20.8995 6.07735 20.9249 6.45494C18.4549 7.77494 15.9749 9.08494 13.4949 10.4049C13.16 10.6162 12.8049 10.7937 12.4349 10.9349C12.1449 10.9924 11.8458 10.9873 11.5579 10.9201C11.2699 10.8528 10.9996 10.7249 10.7649 10.5449C9.34494 9.79494 7.92494 9.03494 6.51494 8.28494C5.37494 7.68494 4.21494 7.07494 3.07494 6.46494C3.0979 6.08557 3.26496 5.72932 3.54194 5.46907C3.81892 5.20882 4.18488 5.06425 4.56494 5.06494ZM20.9349 17.4349C20.9349 17.8328 20.7769 18.2143 20.4956 18.4956C20.2143 18.7769 19.8328 18.9349 19.4349 18.9349H4.56494C4.16712 18.9349 3.78559 18.7769 3.50428 18.4956C3.22298 18.2143 3.06494 17.8328 3.06494 17.4349V7.59994C5.42494 8.83994 7.77494 10.0999 10.1349 11.3499C10.5565 11.6087 11.0104 11.8104 11.4849 11.9499C12.1793 12.063 12.8911 11.9171 13.4849 11.5399C14.9349 10.7799 16.3749 10.0099 17.8249 9.24994C18.8649 8.68994 19.8949 8.14994 20.9349 7.59994V17.4349Z" fill="white"/>
</svg>
