<svg width="166" height="53" viewBox="0 0 166 53" fill="none" xmlns="http://www.w3.org/2000/svg">
<path d="M52.5463 37.1805C52.4874 37.6502 52.5029 38.1375 52.3825 38.5894C52.0255 39.9298 51.2679 40.9522 49.8856 41.3786C48.8873 41.6867 47.8668 41.6455 46.8467 41.48C45.7331 41.2994 44.6249 41.0568 43.504 40.9578C41.1612 40.751 38.9186 41.2861 36.7318 42.0686C35.0768 42.6608 33.4412 43.3073 31.7924 43.9173C30.4647 44.4085 29.1299 44.8852 27.9566 45.7008C27.5391 45.9908 27.1608 46.3372 26.7643 46.6579C26.7862 46.6956 26.808 46.7331 26.8298 46.7708C27.2772 46.7708 27.7251 46.7871 28.1717 46.768C30.56 46.6662 32.9481 46.5567 35.3361 46.4475C38.1671 46.318 40.9984 46.3342 43.824 46.5297C45.6607 46.6568 47.4938 46.8558 49.3219 47.077C50.346 47.201 51.3558 47.4409 52.3739 47.6181C52.7106 47.6768 52.9585 47.5199 53.0462 47.2314C53.1368 46.9331 52.9977 46.6427 52.6834 46.5112C52.5313 46.4478 52.3678 46.4083 52.2067 46.3691C48.6556 45.509 45.0396 45.1601 41.3996 45.0214C40.3552 44.9815 39.3081 45.0152 38.2624 45.0152C38.2648 44.9712 38.2669 44.9275 38.2693 44.8836C40.4532 44.2317 42.6602 43.757 44.9637 43.8155C46.1608 43.8459 47.3736 43.864 48.5567 43.7117C50.3934 43.4751 51.8781 42.5851 52.7771 40.8952C53.1434 40.2065 53.336 39.5036 53.3379 38.7908V38.7703C53.3367 38.2134 53.219 37.6504 52.977 37.0834C52.9278 36.9679 52.7701 36.8989 52.6628 36.8085C52.6228 36.9323 52.5622 37.0537 52.5463 37.1805Z" fill="#060400"/>
<path d="M0.390108 36.9767C0.341891 37.0227 0.317782 37.099 0.294632 37.1657C0.115871 37.6809 0.000395686 38.2083 -1.52588e-05 38.7435V38.7462C-1.52588e-05 38.9317 0.0138199 39.1181 0.0436819 39.3054C0.407779 41.5929 1.82965 42.933 3.97615 43.58C5.20282 43.9499 6.47017 43.8982 7.72999 43.8388C9.11364 43.7736 10.4913 43.8159 11.8493 44.0898C12.9365 44.3092 14.0107 44.5931 15.0907 44.8483C14.9925 44.9368 14.9108 44.9441 14.8292 44.9447C11.8315 44.9671 8.83667 45.0732 5.8691 45.5217C4.16847 45.7788 2.48141 46.1298 0.791875 46.4563C0.369561 46.538 0.194088 46.8376 0.276414 47.2085C0.348192 47.5319 0.616813 47.6701 1.0305 47.597C1.08899 47.5867 1.14858 47.5816 1.20652 47.569C3.83711 46.9969 6.50387 46.7032 9.18652 46.5267C13.2525 46.2592 17.315 46.4 21.3779 46.6107C23.0986 46.6999 24.8215 46.7462 26.5917 46.8139C26.5578 46.7067 26.5576 46.6637 26.5361 46.6448C26.3052 46.4398 26.0809 46.2258 25.8361 46.0385C24.593 45.0878 23.1648 44.5037 21.709 43.9761C19.4651 43.1633 17.243 42.2833 14.9722 41.5536C12.6516 40.8079 10.2615 40.7079 7.85876 41.2032C6.80016 41.4214 5.74184 41.6408 4.64722 41.5917C2.72797 41.5056 1.34049 40.3831 0.922145 38.5088C0.819957 38.0507 0.835162 37.5672 0.780232 37.0972C0.768588 36.9982 0.686673 36.9072 0.636949 36.8127C0.553664 36.8663 0.460654 36.9097 0.390108 36.9767Z" fill="#060400"/>
<path d="M31.0037 48.0381C28.5332 48.1136 26.058 48.1582 23.5882 48.094C20.4758 48.013 17.3666 47.8071 15.6459 47.723C10.8904 47.6636 7.55874 47.9348 4.28365 48.7414C3.66107 48.8948 3.04081 49.0612 2.42851 49.2506C2.09277 49.3546 1.95482 49.669 2.04715 49.989C2.13208 50.2839 2.36454 50.4123 2.72302 50.3531C2.8752 50.3279 3.0252 50.2894 3.17547 50.2543C5.66908 49.673 8.19214 49.2916 10.7503 49.1652C14.2614 48.9915 17.7598 49.2748 21.2624 49.4519C23.5646 49.5682 25.8751 49.6546 28.1778 49.5965C31.5756 49.5105 34.9686 49.2504 38.3659 49.1268C41.773 49.0029 45.1618 49.2305 48.5108 49.9121C49.2092 50.0542 49.9052 50.2077 50.6032 50.3527C50.873 50.4087 51.1389 50.3557 51.2309 50.0856C51.29 49.9121 51.2709 49.6479 51.172 49.5026C51.0653 49.3456 50.8371 49.238 50.6408 49.1801C47.6748 48.3034 44.6379 47.864 41.5522 47.7314C40.9423 47.7051 40.3331 47.6939 39.7239 47.6939C36.8138 47.694 33.9111 47.9492 31.0037 48.0381Z" fill="#060400"/>
<path d="M31.2635 50.8869C27.483 51.1058 23.7035 51.0609 19.9309 50.7714C16.7735 50.5293 13.6158 50.4449 10.4518 50.5199C10.2764 50.5242 10.1014 50.5434 9.92616 50.5554C9.91918 50.589 9.91219 50.6225 9.90534 50.6562C15.3887 52.0056 20.9713 52.5273 26.606 52.563C32.1035 52.5981 41.7421 51.4363 43.315 50.5814C43.2542 50.571 43.2089 50.5583 43.1631 50.5562C42.7355 50.5382 42.3078 50.5199 41.8801 50.5053C41.3136 50.4861 40.7476 50.4776 40.1816 50.4776C37.2041 50.4776 34.2346 50.7149 31.2635 50.8869Z" fill="#060400"/>
<path d="M28.7343 35.9479L28.7327 35.9629L28.7658 35.929C28.7553 35.9353 28.7447 35.9416 28.7343 35.9479ZM24.5205 35.8875L24.5179 35.8718C24.5103 35.8675 24.5028 35.8632 24.4953 35.8588C24.5036 35.8684 24.5121 35.8779 24.5205 35.8875ZM24.4591 32.6011C23.6143 31.6351 22.713 30.7175 21.8908 29.7333C20.8711 28.5126 19.9991 27.1869 19.6412 25.6073C19.1104 23.2645 19.6308 21.0988 21.0069 19.1806C21.9814 17.8226 23.1013 16.5673 24.1814 15.2871C25.057 14.2493 25.9289 13.2137 26.5289 11.982C26.5633 11.9113 26.6157 11.8491 26.6867 11.7424C27.5215 13.4664 28.7827 14.8298 29.993 16.234C30.7223 17.0799 31.4513 17.9311 32.1114 18.8305C33.407 20.5954 34.0823 22.5608 33.8407 24.7825C33.6719 26.3319 33.0229 27.6943 32.0871 28.8993C31.1775 30.0707 30.1651 31.1624 29.192 32.284C28.2297 33.3936 27.3034 34.5233 26.9231 35.9881C26.8398 36.3091 26.7623 36.6317 26.6622 37.0329C26.3927 35.2751 25.564 33.8648 24.4591 32.6011ZM25.7748 10.8013C24.6279 12.0176 23.3074 13.0319 21.9721 14.0281C20.1806 15.3643 18.3736 16.6825 16.7874 18.2694C15.8838 19.1738 15.0363 20.1283 14.5579 21.3349C13.7318 23.4188 13.8138 25.5252 14.5185 27.6191C15.3667 30.1405 17.0647 31.9217 19.4006 33.1369C20.8658 33.8989 22.3233 34.6759 23.7824 35.4495C24.0245 35.5777 24.258 35.7216 24.4953 35.8588C23.4061 34.6304 22.1981 33.5301 20.9283 32.49C19.6413 31.436 18.3885 30.3423 17.3928 28.9885C15.7539 26.7606 15.1534 24.3406 16.0887 21.6711C16.3218 21.0058 16.7396 20.4052 17.0725 19.7749L17.0761 19.7468L17.0787 19.7669C16.2779 21.9425 16.2314 24.1153 17.1526 26.2649C17.6684 27.4684 18.4455 28.5124 19.3432 29.4534C20.4505 30.6141 21.6093 31.7255 22.7308 32.8726C24.2328 34.409 25.5041 36.1016 26.1673 38.1805C26.3597 38.7837 26.5048 39.4021 26.6786 40.039C27.042 37.9316 27.8983 36.0676 29.2452 34.4486C30.0266 33.5095 30.8892 32.6373 31.7223 31.7414C32.8218 30.559 33.9929 29.436 35.0168 28.1914C36.5661 26.3082 37.1522 24.1066 36.7666 21.6827C36.6577 20.9974 36.4583 20.3263 36.2957 19.6287C36.4172 19.824 36.5454 20.0044 36.6475 20.1985C37.823 22.433 38.0962 24.7232 37.0574 27.0898C36.3149 28.7815 35.126 30.1312 33.7632 31.3401C32.6436 32.3333 31.4902 33.2889 30.3793 34.2918C29.8115 34.8043 29.3007 35.3799 28.7658 35.929C29.1706 35.6875 29.5676 35.431 29.983 35.2094C31.4823 34.4097 33.0102 33.6608 34.4868 32.8217C36.8677 31.4691 38.4211 29.4473 39.075 26.7789C39.6458 24.4494 39.5475 22.1704 38.1307 20.1442C37.483 19.2179 36.6976 18.3549 35.8449 17.6123C34.269 16.2402 32.6042 14.9697 30.9639 13.6727C29.6397 12.6256 28.272 11.6303 27.1705 10.3319C27.003 10.1344 26.8468 9.92738 26.6797 9.71739C26.3663 10.095 26.0903 10.4667 25.7748 10.8013Z" fill="#060400"/>
<path d="M13.2945 22.8773C11.6755 25.5741 10.8583 28.472 11.2154 31.627C11.6363 35.3476 13.4648 38.2317 16.5668 40.311C17.9852 41.2615 19.583 41.8031 21.1994 42.3007C23.0979 42.8851 24.9909 43.4859 26.4738 44.9652C26.4794 44.8907 26.491 44.8461 26.4844 44.8046C26.1976 43.0005 25.4085 41.5008 23.8654 40.4485C22.7809 39.7089 21.5593 39.2856 20.3279 38.8824C18.5573 38.3025 16.9218 37.4905 15.5869 36.1537C14.3506 34.9155 13.4704 33.4621 12.9292 31.8022C13.1329 32.1521 13.3252 32.5092 13.5465 32.8472C14.4583 34.2401 15.7674 35.1688 17.1912 35.971C18.7446 36.8461 20.4394 37.3742 22.0906 38.0103C23.4577 38.5368 24.723 39.2258 25.7452 40.3018C25.8778 40.4412 26.0021 40.5885 26.1873 40.7964C25.4064 38.6664 23.9675 37.0372 22.0372 36.0356C20.614 35.2973 19.15 34.6257 17.7809 33.7976C14.6183 31.8845 11.9888 27.7299 13.4402 22.8698C13.4679 22.7776 13.4475 22.6709 13.4489 22.5707C13.398 22.6733 13.3533 22.7795 13.2945 22.8773ZM13.4489 22.568V22.5707L13.4526 22.5632L13.4489 22.568Z" fill="#060400"/>
<path d="M26.8297 44.9759L26.8454 44.9748C26.846 44.9695 26.8466 44.964 26.8473 44.9585C26.8414 44.9644 26.8355 44.9701 26.8297 44.9759ZM27.2673 40.5858L27.2748 40.5933C27.2785 40.5852 27.2821 40.577 27.2858 40.5689L27.2673 40.5858ZM39.924 23.0217C40.2681 24.2855 40.4332 25.5723 40.2174 26.8673C39.7418 29.7222 38.283 31.995 35.8797 33.5815C34.6381 34.401 33.2678 35.0323 31.931 35.6994C30.1983 36.564 28.7453 37.7207 27.7972 39.4381C27.5978 39.7991 27.4537 40.1906 27.2858 40.5689C27.6439 40.241 27.988 39.8959 28.3647 39.5909C29.4324 38.7261 30.6764 38.1921 31.96 37.7465C33.7019 37.1418 35.4085 36.4639 36.9764 35.4753C38.3757 34.5931 39.5943 33.5429 40.2873 31.9903C40.3111 31.937 40.3864 31.9067 40.4377 31.8658C40.4329 31.8232 40.4281 31.7807 40.4233 31.7383L40.4403 31.7366V31.8643C40.3789 32.0044 40.3143 32.143 40.2564 32.2847C39.2944 34.6471 37.8238 36.5956 35.5315 37.7927C34.4851 38.3393 33.3541 38.7301 32.2452 39.1484C31.1191 39.5732 30.0052 40.0046 29.0549 40.7727C27.7174 41.8542 27.045 43.2803 26.8473 44.9585C27.0266 44.7823 27.1947 44.5921 27.3898 44.4355C28.5222 43.5262 29.856 43.0306 31.2137 42.5795C32.4636 42.1646 33.7396 41.8049 34.9436 41.2815C39.577 39.268 42.3335 34.899 42.1815 29.8507C42.1023 27.2218 41.3053 24.8033 39.8692 22.5987C39.885 22.7405 39.887 22.886 39.924 23.0217ZM39.8582 22.582C39.8619 22.5875 39.8655 22.5931 39.8692 22.5987C39.8684 22.5912 39.8674 22.5838 39.8666 22.5764L39.8582 22.582Z" fill="#060400"/>
<path d="M26.5415 20.0278C26.0514 21.1675 25.2928 22.1217 24.4945 23.0566C23.902 23.7501 23.2625 24.4351 22.8277 25.2249C21.816 27.0635 22.0396 28.8734 23.2871 30.5384C24.2537 31.8285 25.388 32.9946 26.1442 34.4391C26.1475 34.4453 26.1666 34.4433 26.1854 34.4462C26.1776 34.2709 26.1476 34.0945 26.1659 33.9232C26.3077 32.5953 25.9435 31.435 25.0535 30.4351C24.9216 30.2869 24.8278 30.0995 24.7397 29.919C24.4939 29.4156 24.395 28.8896 24.4957 28.3274C24.6494 27.4699 25.3115 26.7244 26.1396 26.5414C27.0487 26.3405 27.7845 26.648 28.3237 27.3902C28.8654 28.1358 28.9493 28.9649 28.5449 29.7834C28.2735 30.3325 27.8966 30.832 27.5447 31.3384C26.865 32.3164 27.1021 33.4071 27.0736 34.378C27.6879 33.5313 28.3198 32.6434 28.9709 31.7697C29.3397 31.2748 29.7694 30.8237 30.1209 30.3176C31.1989 28.7645 31.4104 27.1009 30.5165 25.41C30.1335 24.6853 29.5551 24.0629 29.0565 23.4007C28.422 22.558 27.7663 21.7308 27.145 20.8786C26.9395 20.5966 26.8121 20.2577 26.6192 19.8875C26.575 19.9669 26.5552 19.996 26.5415 20.0278Z" fill="#060400"/>
<path d="M26.5544 30.1437C26.3297 29.8405 26.0732 29.5547 25.8874 29.2302C25.5668 28.6703 25.8171 27.9964 26.3706 27.8568C26.6981 27.7743 27.0037 27.841 27.2439 28.0816C27.499 28.3374 27.6133 28.671 27.4518 28.9864C27.2419 29.3963 26.9482 29.7652 26.6905 30.1518C26.6452 30.149 26.5997 30.1464 26.5544 30.1437Z" fill="#FFCE0A"/>
<path d="M2.63383 30.4441C2.66876 30.6664 2.77164 30.7606 2.983 30.8211C3.80407 31.0557 4.61883 31.3125 5.43689 31.5577C6.62972 31.9151 7.82297 32.2717 9.01759 32.6236C9.31758 32.712 9.53565 32.5691 9.66304 32.3136C9.79646 32.0457 9.71167 31.8002 9.48291 31.618C9.38278 31.5384 9.26114 31.4798 9.14101 31.4325C7.25354 30.6897 5.36525 29.9485 3.47559 29.2111C3.12642 29.075 2.76999 28.9571 2.32645 28.7985C2.44452 29.4203 2.55288 29.93 2.63383 30.4441Z" fill="#060400"/>
<path d="M50.4952 28.9799C49.3844 29.3996 48.2746 29.822 47.1667 30.2497C46.1359 30.6476 45.1057 31.0467 44.0799 31.4576C43.658 31.6266 43.498 31.9563 43.6332 32.3021C43.7556 32.6154 44.0386 32.7067 44.4753 32.5761C46.4438 31.987 48.4131 31.401 50.379 30.8035C50.4926 30.7689 50.6437 30.6564 50.6659 30.5556C50.7848 30.0145 50.8685 29.4658 50.975 28.8576C50.7797 28.9063 50.6319 28.9282 50.4952 28.9799Z" fill="#060400"/>
<path d="M50.8343 25.723C49.9405 26.1096 49.0437 26.4893 48.1561 26.8894C46.9649 27.4266 45.7771 27.9717 44.5967 28.5319C44.2206 28.7104 44.1132 29.0537 44.2646 29.3944C44.4054 29.7115 44.6503 29.792 45.0741 29.6353C47.0351 28.9104 48.9947 28.182 50.9524 27.4483C51.0382 27.4162 51.1593 27.3268 51.1647 27.2564C51.2075 26.716 51.2254 26.1737 51.2539 25.5712C51.072 25.6366 50.9501 25.673 50.8343 25.723Z" fill="#060400"/>
<path d="M2.12793 27.0655C2.12423 27.2728 2.20245 27.376 2.40368 27.4474C3.12023 27.7018 3.82883 27.9784 4.54032 28.2464C5.79671 28.7198 7.05365 29.1919 8.30895 29.6679C8.62703 29.7886 8.86976 29.699 9.04167 29.4187C9.2007 29.1595 9.12934 28.843 8.85592 28.6285C8.71702 28.5194 8.55895 28.4288 8.39813 28.3551C6.93969 27.6882 5.48069 27.0225 4.01746 26.3662C3.40446 26.0913 2.78092 25.8394 2.13067 25.5638C2.13067 26.1035 2.13643 26.5846 2.12793 27.0655Z" fill="#060400"/>
<path d="M3.01571 32.2932C3.17105 32.7867 3.33857 33.2768 3.47665 33.775C3.55172 34.0462 3.69308 34.1769 3.97444 34.2325C5.46645 34.5269 6.95407 34.8424 8.44429 35.1457C8.89797 35.238 9.35289 35.3313 9.81123 35.3933C10.1049 35.4333 10.3293 35.2748 10.4061 34.9914C10.4849 34.7013 10.3933 34.445 10.107 34.3002C9.98095 34.2365 9.84315 34.193 9.70699 34.1528C8.96701 33.9345 8.22539 33.7216 7.48514 33.5038C6.02834 33.075 4.57223 32.6441 3.11584 32.2141C3.08242 32.2406 3.04913 32.2669 3.01571 32.2932Z" fill="#060400"/>
<path d="M50.1189 32.2791C49.0676 32.5771 48.0154 32.8718 46.9663 33.1767C45.7573 33.5281 44.5495 33.8835 43.3448 34.2486C42.9668 34.3632 42.8059 34.6734 42.9034 35.0238C42.986 35.3203 43.2415 35.4658 43.6096 35.391C45.5761 34.9916 47.5416 34.5864 49.5062 34.1767C49.5968 34.1578 49.7243 34.0953 49.7506 34.0228C49.9554 33.4574 50.1397 32.8844 50.3515 32.2504C50.2095 32.2674 50.1623 32.2667 50.1189 32.2791Z" fill="#060400"/>
<path d="M6.73038 10.7975C6.68641 10.8616 6.70806 11.0269 6.76285 11.0925C6.97558 11.347 7.20859 11.5858 7.44378 11.8204C8.62059 12.9955 9.79658 14.1715 10.9822 15.3376C11.2771 15.6276 11.5564 15.631 11.7995 15.4016C12.1243 15.095 12.1417 14.8998 11.8742 14.5371C11.8176 14.4608 11.7569 14.3873 11.6953 14.315C10.455 12.8595 9.21413 11.4043 7.97377 9.94859C7.88185 9.84079 7.79336 9.72997 7.64583 9.55093C7.29995 10.016 7.00366 10.3989 6.73038 10.7975Z" fill="#060400"/>
<path d="M44.6826 10.7617C43.6383 11.9925 42.5945 13.2237 41.5511 14.4551C41.3858 14.6503 41.2411 14.8516 41.3626 15.1294C41.5597 15.5795 41.972 15.6802 42.33 15.3287C43.6933 13.99 45.0456 12.6395 46.4002 11.2916C46.5064 11.1859 46.5987 11.0665 46.7187 10.929C46.3759 10.4787 46.0486 10.049 45.6908 9.57929C45.3251 10.0082 45.0029 10.3842 44.6826 10.7617Z" fill="#060400"/>
<path d="M8.74233 8.30524C8.53125 8.50921 8.51837 8.66619 8.72083 8.89714C9.45642 9.73546 10.1728 10.5906 10.895 11.4405C11.402 12.0373 11.8993 12.6425 12.4158 13.231C12.6841 13.5367 12.9467 13.546 13.2168 13.3049C13.5087 13.0444 13.5212 12.8432 13.24 12.4324C12.1343 10.8173 11.024 9.20535 9.91394 7.59348C9.86175 7.51773 9.79339 7.45308 9.68408 7.32747C9.34957 7.6769 9.05616 8.00169 8.74233 8.30524Z" fill="#060400"/>
<path d="M43.4251 7.60138C42.8525 8.43177 42.2818 9.26365 41.711 10.0954C41.1673 10.8881 40.6236 11.6811 40.0806 12.4744C39.932 12.6913 39.8427 12.9153 40.0101 13.1658C40.2541 13.5306 40.6102 13.5676 40.9334 13.2167C41.3512 12.763 41.7368 12.2797 42.1359 11.809C43.0329 10.7514 43.9297 9.69378 44.8605 8.59614C44.4593 8.17355 44.0713 7.76508 43.6545 7.32591C43.553 7.44687 43.4818 7.51919 43.4251 7.60138Z" fill="#060400"/>
<path d="M5.31536 12.9997C5.06016 13.3282 5.16536 13.5279 5.44275 13.7644C6.51039 14.6747 7.56117 15.6048 8.62497 16.5196C9.06646 16.8993 9.51672 17.2701 9.97821 17.6251C10.2874 17.8629 10.5024 17.8312 10.7239 17.569C10.9994 17.2432 10.9724 17.048 10.5796 16.6594C9.10797 15.2045 7.63432 13.752 6.1604 12.2997C6.08629 12.2267 6.0004 12.1659 5.88095 12.0672C5.6837 12.3985 5.53042 12.723 5.31536 12.9997Z" fill="#060400"/>
<path d="M2.14459 23.6725C2.07679 24.1003 2.25801 24.2981 2.64869 24.4504C3.75385 24.8816 4.84231 25.3555 5.93761 25.8123C6.72622 26.1413 7.51523 26.4697 8.3037 26.7992C8.58341 26.9162 8.79053 26.8276 8.93231 26.5735C9.06997 26.3264 8.95751 26.1384 8.76368 25.9876C8.64273 25.8934 8.51136 25.8097 8.37589 25.7378C7.15963 25.0927 5.94296 24.4482 4.72314 23.81C3.92618 23.3929 3.12388 22.9864 2.24391 22.5339C2.20788 22.9701 2.19966 23.325 2.14459 23.6725Z" fill="#060400"/>
<path d="M50.5396 22.7995C48.818 23.7113 47.0975 24.6258 45.378 25.5416C45.1056 25.6868 44.8319 25.8313 44.5713 25.9963C44.323 26.1532 44.3311 26.4054 44.4395 26.6288C44.552 26.8605 44.755 26.9213 45.011 26.8138C47.0033 25.9763 48.999 25.1467 50.9889 24.3038C51.0812 24.2645 51.1895 24.1204 51.1879 24.0267C51.1808 23.5561 51.1397 23.0858 51.1062 22.5462C50.8755 22.6486 50.7019 22.7135 50.5396 22.7995Z" fill="#060400"/>
<path d="M42.6711 16.7904C42.4124 17.0523 42.4393 17.353 42.6944 17.6119C42.9408 17.8623 43.1841 17.796 43.4198 17.5978C43.9106 17.1848 44.4013 16.7715 44.8877 16.3531C45.9145 15.4703 46.9408 14.5865 47.9606 13.6956C48.0797 13.5917 48.2864 13.5016 48.1396 13.265C47.9032 12.8838 47.6782 12.4956 47.4002 12.0296C45.7826 13.6558 44.2224 15.2187 42.6711 16.7904Z" fill="#060400"/>
<path d="M4.0473 15.6628C3.93798 15.8826 3.98771 16.0176 4.18647 16.1637C5.26602 16.9586 6.33242 17.7719 7.40978 18.5698C8.01031 19.0145 8.62138 19.4448 9.23205 19.8754C9.463 20.0381 9.69121 20.0567 9.89107 19.8099C10.0868 19.568 10.0838 19.3366 9.86751 19.1117C9.80175 19.0435 9.73463 18.976 9.66244 18.9149C8.77576 18.1631 7.88634 17.4142 7.00062 16.6611C6.19928 15.9796 5.40177 15.2936 4.55591 14.5698C4.37468 14.9616 4.21948 15.3164 4.0473 15.6628Z" fill="#060400"/>
<path d="M48.6613 14.6765C46.9577 16.1406 45.253 17.6034 43.554 19.073C43.2874 19.3035 43.2726 19.5816 43.4815 19.8242C43.6958 20.0732 43.9281 20.0464 44.1726 19.8654C44.7746 19.4201 45.3812 18.9809 45.9816 18.5331C47.0582 17.7304 48.1337 16.9258 49.202 16.1118C49.2808 16.0518 49.3637 15.8842 49.3337 15.8132C49.1648 15.4113 48.9622 15.0239 48.7741 14.638C48.7038 14.6613 48.6772 14.6627 48.6613 14.6765Z" fill="#060400"/>
<path d="M2.51854 20.8025C2.43594 21.1033 2.53416 21.2735 2.81305 21.4207C3.82001 21.9522 4.81189 22.512 5.81227 23.0558C6.68758 23.5317 7.56727 23.9995 8.44382 24.473C8.6597 24.5897 8.82888 24.5384 8.96983 24.3488C9.11544 24.153 9.13544 23.9522 8.96682 23.7662C8.86422 23.6531 8.746 23.5476 8.61738 23.4661C6.7836 22.3046 4.94709 21.1477 3.11003 19.9914C3.01359 19.9306 2.90661 19.8866 2.75251 19.8083C2.66922 20.1669 2.60498 20.4877 2.51854 20.8025Z" fill="#060400"/>
<path d="M10.5982 6.46843C11.3459 7.57141 12.0595 8.62343 12.7721 9.676C13.1518 10.2369 13.5161 10.8091 13.9184 11.3529C14.013 11.4809 14.2548 11.6036 14.3912 11.571C14.5689 11.5285 14.7823 11.3558 14.844 11.1888C14.9001 11.0365 14.8122 10.7969 14.7229 10.6305C14.0369 9.35409 13.3363 8.0855 12.6377 6.81596C12.3875 6.36104 12.1297 5.91037 11.8508 5.41436C11.409 5.78613 11.0075 6.12392 10.5982 6.46843Z" fill="#060400"/>
<path d="M48.8569 20.8514C47.4249 21.7646 45.9913 22.6756 44.5648 23.5974C44.2398 23.8074 44.1785 24.0587 44.3393 24.3191C44.5215 24.6144 44.7592 24.5688 45.0162 24.4284C46.913 23.3918 48.8114 22.3585 50.7054 21.3168C50.7801 21.2759 50.871 21.1511 50.8587 21.0827C50.7827 20.6671 50.679 20.2567 50.5675 19.7699C49.9385 20.1674 49.3964 20.5073 48.8569 20.8514Z" fill="#060400"/>
<path d="M3.16721 18.0471C3.02995 18.3734 3.10899 18.5675 3.42213 18.7606C4.50456 19.4279 5.56329 20.1333 6.63585 20.8166C7.33747 21.2634 8.04677 21.6983 8.75441 22.1355C8.98084 22.2755 9.19467 22.3024 9.3785 22.0534C9.55877 21.809 9.52603 21.5899 9.32124 21.3856C9.23755 21.3021 9.14577 21.2248 9.05002 21.1555C7.32679 19.9084 5.60288 18.6624 3.87732 17.4186C3.76499 17.3378 3.63815 17.2769 3.47898 17.1838C3.36747 17.4963 3.28076 17.7774 3.16721 18.0471Z" fill="#060400"/>
<path d="M40.7482 6.74885C40.0213 8.0688 39.289 9.38574 38.5725 10.7113C38.3769 11.0732 38.4524 11.3443 38.736 11.5205C38.9936 11.6802 39.2466 11.607 39.4859 11.2702C39.8433 10.7673 40.1876 10.2552 40.5323 9.7434C41.2597 8.66289 41.9835 7.57992 42.733 6.46215C42.3165 6.10599 41.9244 5.77094 41.4923 5.40163C41.2262 5.88312 40.9867 6.31571 40.7482 6.74885Z" fill="#060400"/>
<path d="M12.9443 4.61602C12.8902 4.65711 12.8776 4.833 12.918 4.90656C13.8463 6.59294 14.7804 8.27617 15.7242 9.95405C15.9537 10.3623 16.3074 10.3629 16.6033 9.99652C16.7939 9.76036 16.6761 9.54544 16.5817 9.33147C15.8432 7.65852 15.1012 5.9872 14.3575 4.31658C14.2908 4.16672 14.2057 4.02508 14.0935 3.81194C13.6777 4.09836 13.3019 4.34534 12.9443 4.61602Z" fill="#060400"/>
<path d="M38.9069 4.52167C38.1908 6.11463 37.4744 7.70731 36.7621 9.30205C36.5571 9.76067 36.6303 10.043 36.979 10.2097C37.2607 10.3442 37.4592 10.2345 37.7127 9.77971C38.6431 8.11059 39.5696 6.43941 40.5237 4.72249C40.101 4.41619 39.6937 4.121 39.2484 3.79813C39.1165 4.07717 39.0077 4.29757 38.9069 4.52167Z" fill="#060400"/>
<path d="M49.542 17.3691C47.7751 18.6584 46.0078 19.9473 44.2434 21.2402C43.8663 21.5168 43.7913 21.772 43.9822 22.0413C44.1713 22.3077 44.3404 22.3161 44.7858 22.0323C46.2997 21.0678 47.8067 20.0926 49.3203 19.1276C50.3612 18.4639 50.3643 18.4683 49.8861 17.3349C49.8731 17.3038 49.846 17.2786 49.7971 17.212C49.7009 17.2708 49.6174 17.3143 49.542 17.3691Z" fill="#060400"/>
<path d="M5.63761 38.6071C5.61734 38.6384 5.59706 38.6699 5.57679 38.7013C5.81185 39.0243 6.02883 39.3632 6.29101 39.6624C6.3958 39.7817 6.6021 39.8777 6.7599 39.8744C8.20862 39.845 9.65665 39.7878 11.105 39.7466C11.288 39.7414 11.4715 39.7437 11.6549 39.7459C11.9594 39.7496 12.2635 39.7533 12.5646 39.7229C12.7275 39.7065 12.9434 39.5221 13.0057 39.3637C13.0982 39.1276 12.9759 38.8944 12.7118 38.7973C12.6033 38.7575 12.4808 38.7425 12.3641 38.7398C10.3809 38.6934 8.39738 38.6499 6.41388 38.6077C6.31909 38.6057 6.2243 38.6051 6.12937 38.6051C5.96541 38.6051 5.80144 38.6071 5.63761 38.6071Z" fill="#060400"/>
<path d="M47.1658 38.6168C46.1085 38.6333 45.0515 38.6513 43.9942 38.6758C42.9493 38.6998 41.9043 38.724 40.86 38.7654C40.4934 38.7799 40.3105 38.9898 40.3294 39.2985C40.3474 39.5904 40.5393 39.7487 40.8942 39.7569C42.7822 39.8006 44.67 39.8462 46.558 39.8797C46.6941 39.8822 46.8797 39.8352 46.9602 39.7411C47.2353 39.4184 47.474 39.0644 47.784 38.6444C47.5347 38.6327 47.366 38.6165 47.2033 38.6165C47.1908 38.6165 47.1782 38.6165 47.1658 38.6168Z" fill="#060400"/>
<path d="M36.813 2.9517C36.5533 3.67879 36.2909 4.40493 36.0376 5.13436C35.6755 6.1772 35.3117 7.21963 34.972 8.26973C34.9216 8.42562 34.9379 8.66753 35.029 8.79232C35.2775 9.13285 35.6134 9.02491 35.8225 8.55383C36.4731 7.08909 37.1382 5.63037 37.7604 4.15357C38.2366 3.02347 38.4024 3.30908 37.1848 2.64171C37.134 2.6139 37.0733 2.60417 36.9633 2.5687C36.9063 2.71348 36.8561 2.83143 36.813 2.9517Z" fill="#060400"/>
<path d="M4.71263 36.8548C4.8781 37.2275 5.17522 37.3816 5.5526 37.3933C7.20255 37.4441 8.85276 37.4829 10.5027 37.5316C10.7813 37.5398 11.0321 37.4816 11.0505 37.1689C11.0682 36.8688 10.843 36.7568 10.5615 36.7185C9.24576 36.539 7.9306 36.3563 6.61736 36.1603C5.82451 36.0419 5.03536 35.8973 4.16512 35.7511C4.37018 36.1613 4.55592 36.5016 4.71263 36.8548Z" fill="#060400"/>
<path d="M15.5002 3.00744C15.2273 3.1499 15.1972 3.28674 15.3212 3.56166C16.0422 5.16229 16.7438 6.77169 17.4525 8.37794C17.5097 8.5078 17.5364 8.67683 17.6351 8.75696C17.7634 8.86134 17.9641 8.96751 18.1065 8.93888C18.2511 8.9097 18.3624 8.7171 18.4747 8.6093C18.399 8.34944 18.3535 8.16562 18.2919 7.9874C17.7693 6.47485 17.2599 4.95751 16.7134 3.45358C16.4997 2.86552 16.4692 2.62731 16.2998 2.62731C16.1678 2.62731 15.952 2.77155 15.5002 3.00744Z" fill="#060400"/>
<path d="M48.8461 35.8017C46.7844 36.1137 44.7229 36.4282 42.6615 36.7415C42.4085 36.78 42.2781 36.942 42.2814 37.1793C42.2849 37.4471 42.4767 37.5409 42.72 37.5343C44.4161 37.4878 46.1126 37.4491 47.8078 37.378C48.0323 37.3686 48.3317 37.2491 48.4536 37.0786C48.7247 36.6996 48.9053 36.2558 49.1425 35.8002C49.0543 35.8002 48.9896 35.7961 48.9344 35.7961C48.9028 35.7961 48.8742 35.7974 48.8461 35.8017Z" fill="#060400"/>
<path d="M34.718 2.24477C34.3843 3.28377 34.0442 4.32059 33.7164 5.36137C33.5457 5.90327 33.3956 6.45161 33.2328 7.00913C33.2757 7.10036 33.2979 7.19638 33.3553 7.26117C33.5803 7.51514 33.9131 7.4413 34.0468 7.08816C34.2905 6.44504 34.5126 5.79396 34.7378 5.14412C35.0639 4.20292 35.389 3.26145 35.7008 2.31545C35.7326 2.21888 35.7103 2.04286 35.643 1.98519C35.4632 1.83067 35.306 1.7541 35.171 1.7541C34.9729 1.7541 34.8225 1.9193 34.718 2.24477Z" fill="#060400"/>
<path d="M17.6978 2.45034C18.2155 3.98974 18.7444 5.5253 19.2733 7.061C19.3031 7.14785 19.3513 7.26113 19.4226 7.29401C19.5402 7.34825 19.7 7.39455 19.8116 7.35593C19.9324 7.31401 20.0184 7.17127 20.0867 7.1047C20.0664 6.96347 20.066 6.90238 20.0486 6.84663C19.5446 5.22929 19.0407 3.61194 18.5288 1.99707C18.5011 1.90967 18.4156 1.79762 18.3363 1.77694C18.3007 1.76762 18.2648 1.76324 18.2291 1.76324C17.9017 1.76338 17.5904 2.13035 17.6978 2.45034Z" fill="#060400"/>
<path d="M32.8741 1.44726C32.8173 1.60274 32.776 1.7641 32.7311 1.92382C32.5734 2.48257 32.4173 3.04159 32.2489 3.64198C32.3025 3.7202 32.3469 3.83431 32.4301 3.89677C32.6774 4.08279 32.91 3.99937 33.0223 3.65801C33.2374 3.00529 33.4071 2.33723 33.6312 1.6878C33.7553 1.32864 33.5711 1.22741 33.2985 1.12727C33.2398 1.10563 33.1908 1.09618 33.1494 1.09618C32.9633 1.09618 32.9318 1.28919 32.8741 1.44726Z" fill="#060400"/>
<path d="M19.9182 1.20877C19.8096 1.24712 19.6507 1.42972 19.6715 1.50506C19.8831 2.26846 20.1168 3.02638 20.3752 3.77539C20.4076 3.86922 20.6301 3.96675 20.7425 3.94566C20.874 3.92087 20.9814 3.76799 21.0968 3.67266C20.8372 2.8194 20.6047 2.02573 20.339 1.24329C20.3267 1.20685 20.2124 1.1848 20.098 1.1848C20.0315 1.1848 19.9649 1.19233 19.9182 1.20877Z" fill="#060400"/>
<path d="M22.0768 0.587425C21.659 0.590301 21.5731 0.699338 21.6699 1.10604C21.7086 1.26781 21.7377 1.43274 21.7888 1.59054C21.8799 1.87149 22.1064 1.97025 22.3392 1.79437C22.4388 1.71903 22.5184 1.50712 22.4865 1.39014C22.4109 1.11261 22.4931 0.753035 22.1473 0.588657C22.1403 0.585233 22.1321 0.584137 22.1233 0.584137C22.1083 0.584137 22.0917 0.587425 22.0768 0.587425Z" fill="#060400"/>
<path d="M26.4695 0.00328758C26.0517 0.00616418 25.9658 0.115202 26.0627 0.5219C26.1013 0.683675 26.1305 0.848601 26.1816 1.0064C26.2727 1.28735 26.4991 1.38612 26.732 1.21023C26.8315 1.13489 26.9111 0.922982 26.8792 0.806C26.8036 0.528475 26.8858 0.168898 26.5401 0.00452039C26.5331 0.00109584 26.5248 0 26.5161 0C26.501 0 26.4844 0.00328758 26.4695 0.00328758Z" fill="#060400"/>
<path d="M30.9657 0.780524C30.8904 0.988736 30.8703 1.21654 30.815 1.4331C30.7532 1.67515 30.876 1.8272 31.0839 1.83199C31.2223 1.83528 31.4196 1.73063 31.4909 1.61365C31.5896 1.45119 31.5995 1.2327 31.6388 1.03641C31.7024 0.718334 31.602 0.593407 31.1729 0.557381C31.1305 0.600667 31.004 0.674637 30.9657 0.780524Z" fill="#060400"/>
<path d="M27.2638 40.6061C27.2553 40.6548 27.2585 40.6363 27.2638 40.6061V40.6061ZM27.2638 40.6061V40.6059C27.2431 40.6298 27.2294 40.6454 27.2638 40.6061ZM27.2638 40.6059C27.2674 40.6018 27.2712 40.5976 27.2749 40.5933L27.2674 40.5858C27.2661 40.5926 27.265 40.5995 27.2638 40.6059Z" fill="#060400"/>
<path d="M24.5004 35.8724C24.5073 35.8776 24.5142 35.8829 24.5212 35.888C24.5212 35.888 24.5185 35.8718 24.5175 35.8714L24.5156 35.8713C24.5101 35.8713 24.5052 35.8718 24.5004 35.8724Z" fill="#060400"/>
<path d="M28.7329 35.9615C28.7348 35.959 28.7365 35.9564 28.7383 35.9541C28.7369 35.952 28.7356 35.9497 28.7342 35.9476C28.7342 35.9476 28.7327 35.9621 28.7329 35.9615ZM28.7383 35.9541C28.7411 35.9586 28.7439 35.9629 28.7467 35.9673C28.7473 35.9583 28.7481 35.9494 28.7488 35.9405L28.7383 35.9541Z" fill="#060400"/>
<path d="M39.8358 22.5887C39.842 22.5875 39.8486 22.5863 39.8564 22.5835C39.8577 22.5819 39.8659 22.5764 39.8659 22.5764C39.8558 22.5804 39.8458 22.5847 39.8358 22.5887Z" fill="#060400"/>
<path d="M13.449 22.5679L13.4713 22.5745L13.4526 22.5632L13.449 22.5679Z" fill="#060400"/>
<path d="M28.0972 4.41316C28.0993 5.2483 27.4272 5.90497 26.5667 5.90856C25.7465 5.91202 25.0858 5.25318 25.0836 4.42964C25.0813 3.55728 25.7434 2.89248 26.6122 2.89498C27.4474 2.89743 28.095 3.55938 28.0972 4.41316Z" fill="#FFCE0A"/>
<path d="M67.3463 33.9923C66.738 33.7923 66.113 33.484 65.4297 32.9424C65.088 32.6424 64.8714 32.434 64.7794 32.3007C63.6544 30.9927 63.3461 29.6422 63.3378 28.2339C63.3378 26.6926 63.8461 25.1174 64.838 23.5341C64.9127 23.4508 64.9714 23.4094 65.038 23.4094H65.0544C65.121 23.4094 65.1714 23.4591 65.1714 23.5758C65.1714 23.6508 65.088 23.8094 64.938 24.0424C64.0631 25.5843 63.7631 26.834 63.7631 28.2089C63.7711 30.5591 65.163 32.7591 67.6546 33.584C68.2879 33.7843 68.9629 33.8843 69.6712 33.8843C69.9045 33.8843 70.1462 33.8757 70.3878 33.851C71.9711 33.7093 73.6793 33.1174 75.4213 31.7428C75.6629 31.5341 75.9462 31.2671 76.2795 30.9424C76.6629 30.5175 76.9045 30.2341 76.9962 30.0922C78.3545 28.2756 78.7794 26.5926 78.7794 25.084C78.7711 23.4177 78.1961 21.9678 77.0379 20.7262C76.3129 19.9679 75.6212 19.5009 75.1129 19.2176C74.3296 18.7673 73.4793 18.3927 72.563 18.0927C72.2297 18.0093 72.0631 17.9513 72.0631 17.9173C72.0297 17.8847 72.0127 17.843 72.0044 17.8093C72.0044 17.659 72.1547 17.5593 72.4297 17.5173C73.3963 17.259 74.046 16.951 74.638 16.6007C74.9963 16.376 75.3879 16.076 75.8046 15.6924C76.1379 15.3428 76.3629 15.0844 76.4712 14.9341C76.8045 14.4675 77.0379 14.0925 77.1545 13.8005C77.5128 13.0595 77.6878 12.3675 77.6878 11.7172C77.6795 10.5759 77.1045 10.0676 76.2462 10.0676C76.1796 10.0676 76.1129 10.0757 76.0379 10.0843C74.8213 10.201 73.4963 11.0343 72.0631 12.6009C71.6461 13.1009 71.3294 13.5262 71.1378 13.8842C71.0711 13.9591 71.0295 14.0345 71.0295 14.1011C70.2295 17.8677 68.7462 24.4094 67.8296 27.6842C67.7046 28.1006 67.5963 28.4006 67.5046 28.6005C67.3879 28.8009 67.2879 28.8422 67.1379 28.8592H67.1046C66.8213 28.8592 66.688 28.4092 66.688 27.8673C66.688 25.7093 67.5629 21.1429 68.6795 17.9426C69.1879 16.451 69.7462 15.1758 70.3378 14.1095C70.4545 13.9262 70.5128 13.8092 70.5128 13.7425C70.7628 12.5675 70.9628 11.4673 71.1128 10.4597L70.9711 10.4757C70.8378 10.4757 70.7628 10.4176 70.7295 10.2256C70.7295 10.1343 70.7461 10.0593 70.9128 9.61798C71.0461 9.31737 71.1628 9.23402 71.3461 9.21803H71.3794C71.6214 9.21803 71.7378 9.47604 71.7378 9.90932C71.7378 10.2923 71.6044 11.1839 71.3294 12.6009C72.1631 11.5679 73.1547 10.7676 73.7127 10.4343C74.3463 9.97598 75.3713 9.52601 76.1796 9.45935C76.2795 9.44267 76.3712 9.44267 76.4545 9.44267C77.6962 9.44267 78.2961 10.3343 78.2961 11.534C78.2961 12.5512 77.9545 13.5762 77.2628 14.6094C77.1212 14.8345 76.8962 15.1174 76.5795 15.4678C76.1796 15.9091 75.8546 16.2091 75.6212 16.376C74.8046 17.043 73.9546 17.501 73.3127 17.7096C74.1877 18.018 75.1463 18.4426 76.3295 19.2756C76.5379 19.426 76.8045 19.6426 77.1295 19.9339C78.0378 20.8178 78.3711 21.3842 78.6544 21.9678C79.1794 23.0261 79.3294 23.8927 79.3294 24.9594V25.001C79.3294 26.2176 78.9794 27.5259 78.2961 28.9172C77.3795 30.6758 76.0046 32.067 74.163 33.101C73.721 33.359 73.146 33.6007 72.4544 33.8426C71.7128 34.0756 71.0544 34.2256 70.4628 34.2756C70.1128 34.3089 69.7795 34.3257 69.4628 34.3257C68.7795 34.3257 68.1296 34.234 67.3463 33.9923ZM68.8045 21.8842C68.9212 21.3342 69.2879 19.5843 69.8962 16.626L70.0378 15.9927H70.0295C69.4712 17.251 68.9379 18.901 68.4296 20.9592C68.0296 22.5424 67.4879 25.3673 67.4213 27.6256L67.4296 27.6342C67.9296 25.7843 68.3879 23.8674 68.8045 21.8842Z" fill="black"/>
<path d="M81.4289 27.7996V27.6583C81.4289 27.2913 81.5286 26.2167 81.7286 24.4331C82.1956 21.1502 82.8035 18.392 83.5535 16.1414C83.9708 14.9081 84.3868 13.8832 84.7951 13.0832C85.0204 12.7252 85.2538 12.5419 85.4951 12.5419C85.6871 12.5419 85.7957 12.5746 85.8454 12.8246L85.8541 12.8662C85.8541 13.0419 85.7704 13.2502 85.5874 13.5082C85.5287 13.5416 85.4871 13.5582 85.4454 13.5582H85.3954L85.3288 13.5416C84.6705 14.6751 84.1121 16.0748 83.6618 17.7417C83.0785 19.7749 82.5955 22.4918 82.2202 25.8834C82.1869 26.325 82.1456 26.6166 82.1036 26.7749V26.7833H82.1202C82.4452 26.0833 82.8952 25.3167 83.4535 24.4831C84.2288 23.4251 84.8538 22.9001 85.3288 22.9001C85.6621 22.9001 85.8701 22.9668 86.0701 23.3745C86.1207 23.5331 86.1537 23.6751 86.1621 23.8084L86.2287 24.8581C86.2954 25.5581 86.587 25.983 87.0873 26.1413C87.212 26.1666 87.3287 26.183 87.437 26.1914C88.2953 26.1914 89.5369 25.5914 91.1785 24.3998L91.2705 24.3831C91.3452 24.4247 91.3872 24.4664 91.3955 24.533L91.4035 24.5667C91.4035 24.6498 91.1955 24.8164 90.7785 25.0664C89.3039 26.0747 88.1456 26.5747 87.3037 26.5747C86.629 26.5747 86.1367 26.2 85.8371 25.4417C85.7291 25.1497 85.6701 24.8917 85.6454 24.6667C85.5787 24.0331 85.5454 23.6751 85.3538 23.5748L85.2371 23.5665C84.9704 23.5665 84.4871 23.9834 83.7791 24.8247C83.2285 25.5664 82.7536 26.333 82.3702 27.1163C82.1536 27.55 81.9869 27.8249 81.8869 27.9413C81.8036 28.0166 81.7203 28.0499 81.6369 28.0499C81.5286 28.0499 81.4619 27.9669 81.4289 27.7996Z" fill="black"/>
<path d="M93.7455 23.7346C93.8282 23.7346 93.8788 23.8095 93.9035 23.9592C93.9035 25.2425 94.3035 25.8758 95.1118 25.8758C95.6534 25.8758 96.3537 25.5762 97.22 24.9758L97.9037 24.4008C97.945 24.3842 97.9784 24.3675 97.995 24.3675C98.07 24.3759 98.1034 24.4092 98.1034 24.4758C98.1034 24.5425 97.8953 24.7508 97.47 25.0925C96.8704 25.5515 96.3868 25.8431 96.0368 25.9591C95.6118 26.1425 95.2368 26.2258 94.9038 26.2258C94.2785 26.2258 93.8452 25.8591 93.5866 25.1258C93.4866 24.8592 93.4282 24.7258 93.4122 24.7258C93.3616 24.7258 93.1455 24.8841 92.7366 25.2008C92.2199 25.5591 91.7706 25.7341 91.3953 25.7341H91.387C91.0703 25.7341 90.8787 25.5925 90.7953 25.3095C90.7867 25.2592 90.7867 25.2258 90.7867 25.2008V25.1258C90.7867 24.7675 91.0036 24.4259 91.4366 24.0925C91.7616 23.8762 92.1366 23.7675 92.5619 23.7675H92.5789C92.8532 23.7675 93.1455 23.8259 93.4789 23.9262V23.9178C93.5702 23.7929 93.6619 23.7346 93.7282 23.7346H93.7455ZM91.4036 25.3842H91.462C91.82 25.3842 92.3619 25.0508 93.0869 24.4008C93.0869 24.3842 93.1119 24.3592 93.1619 24.3009C92.9039 24.2429 92.6699 24.2095 92.4533 24.2095C91.8453 24.2095 91.42 24.4259 91.1783 24.8508C91.145 24.9508 91.1286 25.0175 91.1286 25.0675C91.1286 25.2425 91.22 25.3511 91.4036 25.3842Z" fill="black"/>
<path d="M98.845 23.1753C98.845 23.1753 98.8533 23.1919 98.8533 23.2416C98.6784 24.4086 98.5284 25.3502 98.4117 26.0665V26.0752H98.4284C98.545 25.7168 98.72 25.3252 98.945 24.9002C99.57 23.8836 100.137 23.375 100.637 23.375C100.87 23.375 101.037 23.4419 101.162 23.5919V23.6336C101.145 23.6752 101.103 23.6916 101.045 23.6916H101.028C100.978 23.6916 100.853 23.6836 100.662 23.6752C100.187 23.6752 99.695 24.1919 99.1867 25.2415C98.8533 25.8335 98.545 26.5835 98.2617 27.4918C98.1867 27.8501 98.0617 28.0251 97.8784 28.0251C97.7284 28.0251 97.6367 27.9334 97.6034 27.7418V27.7167C97.6034 27.2084 97.8201 25.6835 98.2617 23.1333C98.345 22.9919 98.4534 22.9253 98.595 22.9253C98.7617 22.9503 98.845 23.0336 98.845 23.1753Z" fill="black"/>
<path d="M112.295 14.1005C112.295 14.2421 112.128 14.8338 111.786 15.8588C111.478 16.8754 111.228 17.7753 111.028 18.5507H111.036C115.128 18.517 117.711 18.5006 118.794 18.5006H120.194C120.378 18.5006 120.636 18.5006 120.969 18.509C121.086 18.542 121.145 18.5753 121.145 18.6253C121.145 18.6753 121.078 18.717 120.944 18.7337H119.72C118.603 18.7337 115.694 18.7836 110.994 18.892H110.936C109.953 22.6171 109.461 26.3087 109.461 29.9585V30.3172C109.461 30.7671 109.478 31.4088 109.503 32.2421H109.52C109.569 32.2254 109.619 32.2087 109.67 32.2004C109.761 32.2004 109.811 32.2587 109.819 32.3757C109.819 32.5337 109.736 32.692 109.569 32.842C109.528 32.867 109.47 32.8837 109.411 32.8837H109.378C109.203 32.8837 109.078 32.717 109.003 32.3921V30.9255C109.003 26.842 109.511 22.8338 110.52 18.9006H110.436C109.594 20.7922 108.761 22.3921 107.953 23.7004C107.611 24.3087 107.128 24.9837 106.511 25.717C105.97 26.292 105.511 26.5837 105.145 26.5837C104.686 26.5837 104.395 26.2003 104.253 25.4337C104.22 25.342 104.186 25.3004 104.169 25.292H104.153C104.103 25.292 103.92 25.4587 103.603 25.7837C103.103 26.2337 102.711 26.459 102.428 26.459C102.178 26.459 102.036 26.292 101.994 25.9587V25.892C101.994 25.342 102.27 24.7004 102.628 24.2754C103.061 23.7671 103.486 23.5084 103.911 23.5084H103.92C104.245 23.5084 104.544 23.6671 104.811 23.9838C104.811 24.0004 104.82 24.0254 104.828 24.0754C104.828 24.2087 104.745 24.2837 104.569 24.3087C104.528 24.3087 104.42 24.2337 104.253 24.0921C104.136 24.0171 104.011 23.9838 103.878 23.9838H103.861C103.411 23.9838 102.936 24.4587 102.645 25.1004C102.511 25.467 102.436 25.709 102.436 25.8337C102.436 25.9837 102.486 26.0503 102.594 26.0503C102.92 26.0503 103.528 25.542 104.395 24.509C104.428 24.4921 104.461 24.4754 104.478 24.4754H104.528C104.628 24.4754 104.678 24.6087 104.678 24.867C104.678 25.3253 104.753 25.692 104.911 25.9923C105.02 26.1003 105.145 26.1586 105.303 26.1586C106.02 26.1586 107.136 24.7587 108.661 21.9505C109.161 20.9922 109.644 19.9836 110.103 18.9419C110.111 18.9256 110.111 18.917 110.111 18.909H110.103C109.886 18.909 109.286 18.917 108.303 18.9256C106.303 18.9256 105.236 18.8589 105.086 18.7337C104.936 18.692 104.861 18.634 104.861 18.5673C104.861 18.4503 105.011 18.3506 105.303 18.259C105.411 18.2337 105.536 18.2173 105.678 18.2173H105.903C106.103 18.2173 106.203 18.2753 106.203 18.3923V18.442C106.203 18.467 106.195 18.5006 106.161 18.542V18.5507C106.561 18.5586 106.87 18.5673 107.111 18.5673H110.278C110.895 17.1254 111.361 15.8337 111.686 14.6755C111.778 14.1505 111.903 13.8838 112.078 13.8838C112.228 13.8838 112.295 13.9588 112.295 14.1005Z" fill="black"/>
<path d="M111.586 27.7996V27.6583C111.586 27.2913 111.686 26.2167 111.886 24.4331C112.353 21.1502 112.961 18.392 113.711 16.1414C114.128 14.9081 114.544 13.8832 114.953 13.0832C115.177 12.7252 115.411 12.5419 115.652 12.5419C115.844 12.5419 115.953 12.5746 116.002 12.8246L116.011 12.8662C116.011 13.0419 115.928 13.2502 115.744 13.5082C115.686 13.5416 115.644 13.5582 115.602 13.5582H115.553L115.486 13.5416C114.827 14.6751 114.269 16.0748 113.819 17.7417C113.236 19.7749 112.753 22.4918 112.377 25.8834C112.344 26.325 112.302 26.6166 112.261 26.7749V26.7833H112.277C112.602 26.0833 113.052 25.3167 113.611 24.4831C114.386 23.4251 115.011 22.9001 115.486 22.9001C115.819 22.9001 116.027 22.9668 116.227 23.3745C116.278 23.5331 116.311 23.6751 116.319 23.8084L116.386 24.8581C116.453 25.5581 116.744 25.983 117.244 26.1413C117.369 26.1666 117.486 26.183 117.594 26.1914C118.453 26.1914 119.694 25.5914 121.336 24.3998L121.427 24.3831C121.502 24.4247 121.544 24.4664 121.553 24.533L121.561 24.5667C121.561 24.6498 121.353 24.8164 120.936 25.0664C119.461 26.0747 118.303 26.5747 117.461 26.5747C116.786 26.5747 116.294 26.2 115.994 25.4417C115.886 25.1497 115.827 24.8917 115.802 24.6667C115.736 24.0331 115.703 23.6751 115.511 23.5748L115.394 23.5665C115.128 23.5665 114.644 23.9834 113.936 24.8247C113.386 25.5664 112.911 26.333 112.527 27.1163C112.311 27.55 112.144 27.8249 112.044 27.9413C111.961 28.0166 111.877 28.0499 111.794 28.0499C111.686 28.0499 111.619 27.9669 111.586 27.7996Z" fill="black"/>
<path d="M134.886 8C135.935 8 136.927 8.425 137.852 9.2753C138.344 9.76692 138.669 10.1749 138.844 10.4836C139.119 10.8919 139.361 11.3332 139.569 11.8085C139.761 12.2335 139.961 12.8002 140.152 13.5001C140.452 14.7417 140.602 15.9083 140.602 16.992V17.4086C140.602 19.4919 140.144 21.6585 139.236 23.9083C138.827 24.8917 138.286 25.9253 137.594 27.0086C137.16 27.6915 136.594 28.4252 135.91 29.2335C135.169 30.0335 134.602 30.6001 134.211 30.9167C133.477 31.525 132.886 31.9503 132.427 32.2083C131.069 33.0333 129.819 33.442 128.669 33.442C127.527 33.442 126.586 33.0333 125.852 32.2083C125.269 31.5 124.977 30.5418 124.977 29.3418C124.977 27.7169 125.519 25.775 126.602 23.5084C126.302 22.5088 126.161 21.4084 126.161 20.2252C126.161 17.6416 126.802 15.1504 128.077 12.7585C128.377 12.2252 128.769 11.6502 129.252 11.0252C129.477 10.7419 129.802 10.4 130.219 9.99993C130.902 9.39996 131.452 9.00867 131.869 8.81702C132.227 8.617 132.619 8.44164 133.044 8.29168C133.694 8.10033 134.244 8 134.686 8H134.886ZM126.536 20.3668C126.536 21.2501 126.636 22.1334 126.836 23.017C126.861 22.9751 127.086 22.5668 127.502 21.7918C128.202 20.5418 128.986 19.3332 129.844 18.1503C130.294 17.542 130.911 16.817 131.694 15.992C132.527 15.2001 133.136 14.7001 133.527 14.5001C133.844 14.2751 134.186 14.1088 134.544 13.9834C134.652 13.9501 134.752 13.9251 134.836 13.9251H134.852C135.094 13.9585 135.219 14.0751 135.219 14.2751C135.219 14.5334 134.994 14.8251 134.544 15.1584C134.336 15.3001 134.169 15.3751 134.052 15.3921C133.852 15.3504 133.753 15.2587 133.753 15.1084V15.0667H133.744C133.419 15.2667 132.969 15.625 132.402 16.1503C131.694 16.8666 131.244 17.3503 131.061 17.6086C130.519 18.2419 129.986 18.9582 129.452 19.7502C128.886 20.5918 128.31 21.5334 127.744 22.5834C126.294 25.3416 125.569 27.6085 125.569 29.3748V29.4418C125.569 31.0584 126.177 32.1417 127.402 32.6916C127.819 32.8586 128.252 32.9416 128.719 32.9416C129.786 32.9416 131.027 32.5 132.427 31.617C132.894 31.3251 133.486 30.8668 134.202 30.2501C134.894 29.5918 135.335 29.1418 135.527 28.9002C136.252 28.0665 136.869 27.2502 137.369 26.4499C137.91 25.592 138.411 24.642 138.852 23.6084C139.086 23.042 139.319 22.3754 139.544 21.6085C139.961 20.0919 140.169 18.7002 140.169 17.425V17.0083C140.169 15.6501 139.944 14.2668 139.502 12.8502C139.236 12.1169 138.952 11.4919 138.644 10.9749C137.594 9.25 136.294 8.39202 134.719 8.39202C133.652 8.39202 132.469 8.82504 131.169 9.70863C130.394 10.3003 129.711 10.9919 129.135 11.7835C128.611 12.5251 128.185 13.2752 127.852 14.0334C126.977 16.0417 126.536 18.1333 126.536 20.3252V20.3668Z" fill="black"/>
<path d="M162.21 9.67591C162.659 9.67591 162.943 10.2343 163.059 11.3512C163.093 11.6845 163.11 12.0425 163.11 12.4425V12.8758C163.11 14.6924 162.751 18.4759 162.043 24.2257C161.659 27.4842 161.459 29.8428 161.459 31.2924V31.4507C161.459 32.751 161.635 33.5259 161.976 33.7756C162.01 33.8509 162.018 33.8926 162.018 33.9259C162.018 34.1009 161.943 34.2009 161.776 34.2426C161.768 34.2509 161.743 34.2593 161.701 34.2593C161.335 34.2593 161.101 33.6176 160.993 32.3427C160.968 31.8924 160.96 31.4594 160.96 31.0594C160.96 28.8925 161.276 24.826 161.926 18.8592C162.31 15.3261 162.501 12.8758 162.501 11.5259C162.501 10.6759 162.36 10.2509 162.076 10.2509H162.043C161.509 10.2509 160.459 11.7512 158.884 14.7677C157.584 17.276 156.143 20.3592 154.543 24.0177C154.268 24.6426 154.059 24.9676 153.926 24.9843C153.926 25.0176 153.834 25.0509 153.651 25.076C153.259 25.076 153.068 24.3926 153.068 23.0177V22.6594C153.068 22.1424 153.135 20.3675 153.259 17.3426C153.284 16.9093 153.293 16.476 153.293 16.051C153.293 14.1677 153.084 13.0178 152.676 12.6092C152.634 12.5758 152.585 12.5592 152.535 12.5592C152.21 12.5928 151.768 13.0675 151.193 13.9678C150.318 15.359 149.226 17.6843 147.918 20.9425C146.059 25.7343 144.376 30.5757 142.859 35.4676C142.759 35.6508 142.668 35.7425 142.585 35.7425H142.551C142.459 35.7425 142.401 35.6675 142.368 35.5092C142.676 34.4422 143.168 32.9093 143.826 30.8924C145.826 24.826 147.676 19.9592 149.368 16.309C150.059 14.8594 150.734 13.7011 151.393 12.8425C151.843 12.2925 152.268 12.0178 152.651 12.0178C153.301 12.0178 153.701 12.7262 153.851 14.1511C153.918 14.7927 153.951 15.6094 153.951 16.626C153.951 17.3843 153.893 19.4259 153.768 22.7677V23.4674C153.768 24.0177 153.81 24.2924 153.884 24.2924H153.918C153.968 24.2924 154.151 23.976 154.459 23.3341C154.868 22.4761 155.651 20.7092 156.826 18.0509C158.143 15.0924 159.268 12.9011 160.21 11.4592C161.018 10.2676 161.676 9.67591 162.193 9.67591H162.21Z" fill="black"/>
<path d="M64.0564 38.6788H64.2615C64.9794 38.6788 65.5586 38.9153 65.9986 39.3871C66.4387 39.8595 66.6589 40.4258 66.6589 41.0857C66.6589 41.7463 66.44 42.311 66.0018 42.7812C65.5637 43.2513 64.9836 43.4863 64.2615 43.4863H64.0564V38.6788ZM64.3128 38.8711H64.2615V43.2876H64.3128C64.9368 43.2876 65.4483 43.0719 65.848 42.6405C66.2477 42.2087 66.4473 41.6905 66.4473 41.0857C66.4473 40.4809 66.2477 39.9608 65.848 39.5249C65.4483 39.0893 64.9368 38.8711 64.3128 38.8711Z" fill="black"/>
<path d="M68.287 39.9037C68.163 39.9037 68.1011 39.8456 68.1011 39.7306C68.1011 39.6153 68.163 39.5575 68.287 39.5575C68.411 39.5575 68.4729 39.6153 68.4729 39.7306C68.4729 39.8456 68.411 39.9037 68.287 39.9037ZM68.3896 43.4869H68.1844V40.6088H68.3896V43.4869Z" fill="black"/>
<path d="M72.6906 40.6016H72.8957V43.2172C72.8957 43.7127 72.7589 44.1037 72.4855 44.3903C72.2121 44.6761 71.8531 44.8197 71.4086 44.8197C71.165 44.8197 70.9278 44.7639 70.6971 44.6527C70.4663 44.5415 70.2868 44.3963 70.1586 44.2172V43.9223C70.2699 44.1271 70.4439 44.2982 70.6811 44.4348C70.9182 44.5717 71.1608 44.6399 71.4086 44.6399C71.7845 44.6399 72.0925 44.513 72.3316 44.2588C72.571 44.0043 72.6906 43.6573 72.6906 43.2172V42.7877C72.5752 43.0226 72.3935 43.2105 72.1457 43.3518C71.898 43.4925 71.6416 43.5634 71.3766 43.5634C70.9577 43.5634 70.5987 43.415 70.2997 43.1175C70.0006 42.8208 69.851 42.465 69.851 42.0503C69.851 41.6359 70.0006 41.2804 70.2997 40.9833C70.5987 40.6862 70.9577 40.5375 71.3766 40.5375C71.6544 40.5375 71.914 40.607 72.1554 40.7462C72.3967 40.8849 72.5752 41.0763 72.6906 41.3199V40.6016ZM70.0561 42.0503C70.0561 42.4137 70.1875 42.7265 70.4503 42.9897C70.7131 43.2522 71.025 43.3836 71.3862 43.3836C71.7474 43.3836 72.056 43.2522 72.3124 42.9897C72.5688 42.7265 72.697 42.4137 72.697 42.0503C72.697 41.6871 72.5688 41.3743 72.3124 41.1112C72.056 40.8484 71.7474 40.7173 71.3862 40.7173C71.025 40.7173 70.7131 40.8484 70.4503 41.1112C70.1875 41.3743 70.0561 41.6871 70.0561 42.0503Z" fill="black"/>
<path d="M74.62 39.9037C74.4963 39.9037 74.4344 39.8456 74.4344 39.7306C74.4344 39.6153 74.4963 39.5575 74.62 39.5575C74.744 39.5575 74.8059 39.6153 74.8059 39.7306C74.8059 39.8456 74.744 39.9037 74.62 39.9037ZM74.7228 43.4869H74.5177V40.6088H74.7228V43.4869Z" fill="black"/>
<rect x="76.2165" y="40.8073" width="1.99351" height="0.702788" fill="black"/>
<path d="M81.2513 38.9361C81.0824 38.8339 80.8933 38.7826 80.6837 38.7826C80.4744 38.7826 80.2962 38.8477 80.1488 38.9778C80.0014 39.1082 79.9277 39.2868 79.9277 39.513V39.5451C79.9277 39.8143 80.0773 40.0601 80.3764 40.2823C80.5046 40.3762 80.6488 40.4691 80.809 40.5611C80.9693 40.653 81.1295 40.7514 81.2898 40.8559C81.45 40.9607 81.5952 41.0719 81.7254 41.1893C81.8561 41.3069 81.9628 41.4511 82.0458 41.6219C82.1295 41.7931 82.1712 41.9809 82.1712 42.1863V42.2501C82.1712 42.6562 82.0334 42.9786 81.7577 43.218C81.4821 43.4575 81.1411 43.577 80.7353 43.577C80.201 43.577 79.7866 43.3571 79.4918 42.9168V42.5706C79.6027 42.8145 79.7661 43.0119 79.9821 43.1635C80.1978 43.3155 80.4661 43.3911 80.7866 43.3911C81.1071 43.3911 81.385 43.2885 81.6199 43.0834C81.8548 42.8783 81.9725 42.6049 81.9725 42.2629V42.2244C81.9725 42.011 81.9167 41.8152 81.8055 41.6382C81.6946 41.4607 81.5558 41.3155 81.3891 41.202C81.2225 41.0889 81.0408 40.9704 80.844 40.8463C80.6475 40.7223 80.4661 40.6072 80.2994 40.5002C80.1328 40.3934 79.9937 40.2588 79.8825 40.0963C79.7716 39.9339 79.7161 39.7569 79.7161 39.5643V39.5195C79.7161 39.2204 79.8123 38.9919 80.0046 38.8339C80.1969 38.6759 80.4341 38.5964 80.7161 38.5964C81.1094 38.5964 81.4212 38.7419 81.652 39.0323V39.3592C81.5536 39.1797 81.4199 39.0387 81.2513 38.9361Z" fill="black"/>
<path d="M83.5812 44.7682V40.6017H83.7863V41.3071C83.9017 41.0718 84.0821 40.8837 84.328 40.743C84.5738 40.6017 84.8289 40.5315 85.0939 40.5315C85.517 40.5315 85.8769 40.6799 86.174 40.9766C86.4711 41.2738 86.6195 41.6298 86.6195 42.0439C86.6195 42.4583 86.4711 42.8144 86.174 43.1115C85.8769 43.4083 85.517 43.5567 85.0939 43.5567C84.8375 43.5567 84.5876 43.4871 84.344 43.3487C84.1007 43.2096 83.9145 43.0227 83.7863 42.7878V44.7682H83.5812ZM83.7735 42.0503C83.7735 42.4093 83.9049 42.7205 84.1677 42.983C84.4305 43.2458 84.7423 43.3775 85.1036 43.3775C85.4644 43.3775 85.7734 43.2458 86.0298 42.983C86.2862 42.7205 86.4144 42.4083 86.4144 42.0471C86.4144 41.6862 86.2852 41.3734 86.0266 41.1084C85.7683 40.8433 85.4593 40.7107 85.1007 40.7107C84.7417 40.7107 84.4305 40.8443 84.1677 41.1112C83.9049 41.3786 83.7735 41.6917 83.7735 42.0503Z" fill="black"/>
<path d="M88.1839 39.9037C88.0599 39.9037 87.998 39.8456 87.998 39.7306C87.998 39.6153 88.0599 39.5575 88.1839 39.5575C88.3076 39.5575 88.3698 39.6153 88.3698 39.7306C88.3698 39.8456 88.3076 39.9037 88.1839 39.9037ZM88.2861 43.4869H88.081V40.6088H88.2861V43.4869Z" fill="black"/>
<path d="M90.972 40.711C90.7457 40.711 90.546 40.7965 90.3729 40.9674C90.1999 41.1385 90.113 41.3369 90.113 41.5635V43.4865H89.9082V40.602H90.113V41.0314C90.1903 40.8863 90.3098 40.7667 90.472 40.6725C90.6345 40.5786 90.8162 40.5315 91.0172 40.5315C91.2178 40.5315 91.4101 40.5998 91.5937 40.7366V40.993C91.4059 40.8052 91.1986 40.711 90.972 40.711Z" fill="black"/>
<path d="M93.0939 39.9037C92.9699 39.9037 92.9081 39.8456 92.9081 39.7306C92.9081 39.6153 92.9699 39.5575 93.0939 39.5575C93.218 39.5575 93.2798 39.6153 93.2798 39.7306C93.2798 39.8456 93.218 39.9037 93.0939 39.9037ZM93.1962 43.4869H92.9911V40.6088H93.1962V43.4869Z" fill="black"/>
<path d="M95.8503 43.3456V43.5254C95.5465 43.5254 95.2882 43.4238 95.0744 43.2206C94.8606 43.018 94.7539 42.7581 94.7539 42.4421V39.4419H94.959V40.6086H95.8436V40.7883H94.959V42.4421C94.959 42.7026 95.0456 42.9184 95.219 43.0892C95.3917 43.26 95.6023 43.3456 95.8503 43.3456Z" fill="black"/>
<path d="M99.4526 40.6025H99.6577V43.487H99.4526V42.9037C99.2343 43.3396 98.8625 43.5575 98.3372 43.5575C97.978 43.5575 97.677 43.4335 97.4331 43.1858C97.1895 42.938 97.0681 42.6368 97.0681 42.282V40.6025H97.2729V42.282C97.2729 42.5768 97.3764 42.8332 97.5841 43.0511C97.7911 43.2691 98.0424 43.378 98.3372 43.378C98.6318 43.378 98.8917 43.2691 99.1157 43.0511C99.3401 42.8332 99.4526 42.5768 99.4526 42.282V40.6025Z" fill="black"/>
<path d="M104.01 40.6017V43.4862H103.805V42.7682C103.686 43.0118 103.506 43.2045 103.267 43.3451C103.027 43.4862 102.771 43.5567 102.497 43.5567C102.079 43.5567 101.72 43.4083 101.421 43.1115C101.122 42.8144 100.972 42.4583 100.972 42.0439C100.972 41.6298 101.122 41.2738 101.421 40.9766C101.72 40.6799 102.079 40.5315 102.497 40.5315C102.771 40.5315 103.033 40.6039 103.283 40.7491C103.533 40.8946 103.707 41.0869 103.805 41.326V40.6017H104.01ZM101.177 42.0503C101.177 42.4093 101.308 42.7205 101.571 42.983C101.834 43.2458 102.146 43.3775 102.507 43.3775C102.868 43.3775 103.177 43.2458 103.433 42.983C103.69 42.7205 103.818 42.4083 103.818 42.0471C103.818 41.6862 103.689 41.3734 103.43 41.1084C103.172 40.8433 102.863 40.7107 102.504 40.7107C102.145 40.7107 101.834 40.8443 101.571 41.1112C101.308 41.3786 101.177 41.6917 101.177 42.0503Z" fill="black"/>
<path d="M106.644 43.3645V43.544C106.341 43.544 106.082 43.4424 105.869 43.2395C105.655 43.0366 105.548 42.777 105.548 42.4607V38.6788H105.753V42.4607C105.753 42.7213 105.84 42.9373 106.013 43.1081C106.186 43.2789 106.396 43.3645 106.644 43.3645Z" fill="black"/>
<path d="M111.035 38.6788H111.24C111.518 38.6788 111.751 38.765 111.939 38.9381C112.127 39.1111 112.221 39.3326 112.221 39.6018C112.221 39.764 112.168 39.9297 112.064 40.0983C111.959 40.2675 111.836 40.3771 111.695 40.4287C112.025 40.5101 112.298 40.6848 112.516 40.954C112.734 41.2235 112.843 41.5623 112.843 41.97C112.843 42.3783 112.687 42.7331 112.375 43.0343C112.063 43.3356 111.685 43.4862 111.24 43.4862H111.035V38.6788ZM111.24 38.8579V40.371H111.292C111.484 40.371 111.654 40.2932 111.801 40.1367C111.949 39.981 112.022 39.8018 112.022 39.5986C112.022 39.3957 111.95 39.2214 111.805 39.0762C111.659 38.931 111.488 38.8579 111.292 38.8579H111.24ZM111.24 40.5441V43.3068H111.292C111.659 43.3068 111.976 43.17 112.243 42.8965C112.511 42.6229 112.644 42.2982 112.644 41.9223C112.644 41.5463 112.512 41.2223 112.247 40.9511C111.982 40.6797 111.663 40.5441 111.292 40.5441H111.24Z" fill="black"/>
<path d="M117.067 40.6017V43.4862H116.862V42.7682C116.742 43.0118 116.563 43.2045 116.324 43.3451C116.084 43.4862 115.828 43.5567 115.554 43.5567C115.135 43.5567 114.776 43.4083 114.477 43.1115C114.178 42.8144 114.029 42.4583 114.029 42.0439C114.029 41.6298 114.178 41.2738 114.477 40.9766C114.776 40.6799 115.135 40.5315 115.554 40.5315C115.828 40.5315 116.09 40.6039 116.34 40.7491C116.59 40.8946 116.764 41.0869 116.862 41.326V40.6017H117.067ZM114.234 42.0503C114.234 42.4093 114.365 42.7205 114.628 42.983C114.891 43.2458 115.203 43.3775 115.564 43.3775C115.925 43.3775 116.234 43.2458 116.49 42.983C116.747 42.7205 116.875 42.4083 116.875 42.0471C116.875 41.6862 116.746 41.3734 116.487 41.1084C116.229 40.8433 115.92 40.7107 115.561 40.7107C115.202 40.7107 114.891 40.8443 114.628 41.1112C114.365 41.3786 114.234 41.6917 114.234 42.0503Z" fill="black"/>
<path d="M118.81 43.4865H118.605V40.602H118.81V41.1853C119.028 40.7494 119.4 40.5315 119.926 40.5315C120.285 40.5315 120.586 40.6555 120.83 40.9032C121.074 41.1514 121.195 41.4523 121.195 41.8071V43.4865H120.99V41.8071C120.99 41.5122 120.886 41.2558 120.679 41.0379C120.472 40.8199 120.221 40.711 119.926 40.711C119.631 40.711 119.371 40.8199 119.147 41.0379C118.923 41.2558 118.81 41.5122 118.81 41.8071V43.4865Z" fill="black"/>
<path d="M122.734 38.6924H122.939V41.6025L124.08 40.6026H124.342L123.022 41.7563L124.676 43.487H124.4L122.939 41.9678V43.487H122.734V38.6924Z" fill="black"/>
<path d="M130.099 39.4359V39.6154C129.851 39.6154 129.64 39.7006 129.467 39.8715C129.294 40.0429 129.208 40.2583 129.208 40.5192V42.205H130.105V42.3842H129.208V43.487H129.003V40.5192C129.003 40.2032 129.109 39.9433 129.323 39.74C129.537 39.5372 129.795 39.4359 130.099 39.4359Z" fill="black"/>
<path d="M131.669 43.0992C131.374 42.7937 131.227 42.4379 131.227 42.0319C131.227 41.6261 131.376 41.2745 131.675 40.9774C131.974 40.6803 132.334 40.5322 132.755 40.5322C133.176 40.5322 133.535 40.6803 133.832 40.9774C134.129 41.2745 134.278 41.6274 134.278 42.0351C134.278 42.4431 134.133 42.7991 133.842 43.1024C133.551 43.4058 133.199 43.5574 132.784 43.5574H132.727C132.316 43.5574 131.964 43.4046 131.669 43.0992ZM134.073 42.0479C134.073 41.687 133.944 41.3739 133.685 41.1088C133.426 40.8441 133.118 40.7114 132.759 40.7114C132.4 40.7114 132.089 40.845 131.826 41.112C131.563 41.3793 131.432 41.6924 131.432 42.0511C131.432 42.41 131.563 42.7212 131.826 42.9837C132.089 43.2465 132.401 43.3779 132.762 43.3779C133.123 43.3779 133.432 43.2465 133.688 42.9837C133.945 42.7212 134.073 42.4091 134.073 42.0479Z" fill="black"/>
<path d="M136.72 40.711C136.494 40.711 136.294 40.7965 136.121 40.9674C135.948 41.1385 135.861 41.3369 135.861 41.5635V43.4865H135.656V40.602H135.861V41.0314C135.938 40.8863 136.058 40.7667 136.22 40.6725C136.382 40.5786 136.564 40.5315 136.765 40.5315C136.966 40.5315 137.158 40.5998 137.342 40.7366V40.993C137.154 40.8052 136.946 40.711 136.72 40.711Z" fill="black"/>
<path d="M141.765 38.6788H141.97C142.248 38.6788 142.481 38.765 142.669 38.9381C142.857 39.1111 142.951 39.3326 142.951 39.6018C142.951 39.764 142.898 39.9297 142.794 40.0983C142.689 40.2675 142.566 40.3771 142.425 40.4287C142.754 40.5101 143.028 40.6848 143.245 40.954C143.463 41.2235 143.572 41.5623 143.572 41.97C143.572 42.3783 143.417 42.7331 143.104 43.0343C142.793 43.3356 142.414 43.4862 141.97 43.4862H141.765V38.6788ZM141.97 38.8579V40.371H142.021C142.214 40.371 142.383 40.2932 142.531 40.1367C142.678 39.981 142.752 39.8018 142.752 39.5986C142.752 39.3957 142.679 39.2214 142.534 39.0762C142.389 38.931 142.218 38.8579 142.021 38.8579H141.97ZM141.97 40.5441V43.3068H142.021C142.389 43.3068 142.706 43.17 142.973 42.8965C143.24 42.6229 143.374 42.2982 143.374 41.9223C143.374 41.5463 143.241 41.2223 142.977 40.9511C142.711 40.6797 142.393 40.5441 142.021 40.5441H141.97Z" fill="black"/>
<path d="M145.123 43.4874H144.918V38.6863H145.123V41.1606C145.337 40.742 145.707 40.5324 146.232 40.5324C146.591 40.5324 146.894 40.6564 147.139 40.9041C147.385 41.1523 147.508 41.4532 147.508 41.808V43.4874H147.303V41.808C147.303 41.509 147.198 41.2513 146.989 41.0356C146.779 40.8199 146.527 40.7119 146.232 40.7119C145.937 40.7119 145.679 40.8208 145.457 41.0388C145.235 41.2567 145.123 41.5131 145.123 41.808V43.4874Z" fill="black"/>
<path d="M151.86 40.6017V43.4862H151.655V42.7682C151.536 43.0118 151.356 43.2045 151.117 43.3451C150.877 43.4862 150.621 43.5567 150.348 43.5567C149.929 43.5567 149.57 43.4083 149.271 43.1115C148.972 42.8144 148.822 42.4583 148.822 42.0439C148.822 41.6298 148.972 41.2738 149.271 40.9766C149.57 40.6799 149.929 40.5315 150.348 40.5315C150.621 40.5315 150.883 40.6039 151.133 40.7491C151.383 40.8946 151.557 41.0869 151.655 41.326V40.6017H151.86ZM149.027 42.0503C149.027 42.4093 149.159 42.7205 149.421 42.983C149.684 43.2458 149.996 43.3775 150.357 43.3775C150.718 43.3775 151.027 43.2458 151.284 42.983C151.54 42.7205 151.668 42.4083 151.668 42.0471C151.668 41.6862 151.539 41.3734 151.28 41.1084C151.022 40.8433 150.713 40.7107 150.354 40.7107C149.995 40.7107 149.684 40.8443 149.421 41.1112C149.159 41.3786 149.027 41.6917 149.027 42.0503Z" fill="black"/>
<path d="M154.462 40.711C154.236 40.711 154.037 40.7965 153.863 40.9674C153.69 41.1385 153.604 41.3369 153.604 41.5635V43.4865H153.399V40.602H153.604V41.0314C153.681 40.8863 153.8 40.7667 153.962 40.6725C154.125 40.5786 154.307 40.5315 154.508 40.5315C154.708 40.5315 154.901 40.5998 155.084 40.7366V40.993C154.896 40.8052 154.689 40.711 154.462 40.711Z" fill="black"/>
<path d="M159.277 40.6017V43.4862H159.072V42.7682C158.952 43.0118 158.773 43.2045 158.533 43.3451C158.294 43.4862 158.038 43.5567 157.764 43.5567C157.345 43.5567 156.986 43.4083 156.687 43.1115C156.388 42.8144 156.238 42.4583 156.238 42.0439C156.238 41.6298 156.388 41.2738 156.687 40.9766C156.986 40.6799 157.345 40.5315 157.764 40.5315C158.038 40.5315 158.299 40.6039 158.549 40.7491C158.799 40.8946 158.973 41.0869 159.072 41.326V40.6017H159.277ZM156.443 42.0503C156.443 42.4093 156.575 42.7205 156.838 42.983C157.1 43.2458 157.412 43.3775 157.774 43.3775C158.134 43.3775 158.443 43.2458 158.7 42.983C158.956 42.7205 159.084 42.4083 159.084 42.0471C159.084 41.6862 158.955 41.3734 158.697 41.1084C158.438 40.8433 158.129 40.7107 157.771 40.7107C157.412 40.7107 157.1 40.8443 156.838 41.1112C156.575 41.3786 156.443 41.6917 156.443 42.0503Z" fill="black"/>
<path d="M161.847 43.3456V43.5254C161.544 43.5254 161.285 43.4238 161.071 43.2206C160.858 43.018 160.751 42.7581 160.751 42.4421V39.4419H160.956V40.6086H161.841V40.7883H160.956V42.4421C160.956 42.7026 161.043 42.9184 161.216 43.0892C161.389 43.26 161.599 43.3456 161.847 43.3456Z" fill="black"/>
<path d="M163.334 43.4874H163.129V38.6863H163.334V41.1606C163.548 40.742 163.917 40.5324 164.443 40.5324C164.802 40.5324 165.104 40.6564 165.35 40.9041C165.596 41.1523 165.719 41.4532 165.719 41.808V43.4874H165.514V41.808C165.514 41.509 165.409 41.2513 165.2 41.0356C164.99 40.8199 164.738 40.7119 164.443 40.7119C164.148 40.7119 163.89 40.8208 163.668 41.0388C163.445 41.2567 163.334 41.5131 163.334 41.808V43.4874Z" fill="black"/>
</svg>
