<svg width="635" height="635" viewBox="0 0 635 635" fill="none" xmlns="http://www.w3.org/2000/svg">
<mask id="path-1-inside-1_737_723" fill="white">
<path d="M165.719 324.634C160.203 324.902 155.916 329.597 156.524 335.086C160.573 371.622 176.994 405.797 203.22 431.839C229.445 457.881 263.735 474.062 300.298 477.855C305.792 478.424 310.457 474.104 310.686 468.586L313.51 400.433C313.738 394.915 309.427 390.325 303.991 389.347C289.456 386.732 275.966 379.762 265.376 369.246C254.786 358.729 247.721 345.289 245.003 330.772C243.987 325.344 239.368 321.064 233.851 321.332L165.719 324.634Z"/>
</mask>
<path d="M165.719 324.634C160.203 324.902 155.916 329.597 156.524 335.086C160.573 371.622 176.994 405.797 203.22 431.839C229.445 457.881 263.735 474.062 300.298 477.855C305.792 478.424 310.457 474.104 310.686 468.586L313.51 400.433C313.738 394.915 309.427 390.325 303.991 389.347C289.456 386.732 275.966 379.762 265.376 369.246C254.786 358.729 247.721 345.289 245.003 330.772C243.987 325.344 239.368 321.064 233.851 321.332L165.719 324.634Z" fill="#F6EED7" stroke="#5E4507" stroke-opacity="0.21" stroke-width="2" mask="url(#path-1-inside-1_737_723)"/>
<mask id="path-2-inside-2_737_723" fill="white">
<path d="M309.739 166.481C309.438 160.967 304.717 156.708 299.232 157.35C262.721 161.62 228.646 178.249 202.764 204.632C176.882 231.015 160.909 265.402 157.339 301.988C156.803 307.485 161.151 312.124 166.67 312.319L234.84 314.729C240.359 314.924 244.922 310.585 245.867 305.143C248.394 290.592 255.282 277.06 265.734 266.407C276.186 255.753 289.583 248.606 304.083 245.801C309.505 244.752 313.756 240.107 313.455 234.592L309.739 166.481Z"/>
</mask>
<path d="M309.739 166.481C309.438 160.967 304.717 156.708 299.232 157.35C262.721 161.62 228.646 178.249 202.764 204.632C176.882 231.015 160.909 265.402 157.339 301.988C156.803 307.485 161.151 312.124 166.67 312.319L234.84 314.729C240.359 314.924 244.922 310.585 245.867 305.143C248.394 290.592 255.282 277.06 265.734 266.407C276.186 255.753 289.583 248.606 304.083 245.801C309.505 244.752 313.756 240.107 313.455 234.592L309.739 166.481Z" fill="#F6EED7" stroke="#5E4507" stroke-opacity="0.21" stroke-width="2" mask="url(#path-2-inside-2_737_723)"/>
<mask id="path-3-inside-3_737_723" fill="white">
<path d="M467.459 313.209C472.98 313.064 477.371 308.466 476.885 302.964C473.653 266.347 457.999 231.814 432.361 205.193C406.723 178.573 372.803 161.63 336.334 157.023C330.854 156.331 326.094 160.545 325.742 166.057L321.398 234.131C321.046 239.642 325.254 244.327 330.666 245.426C345.14 248.365 358.471 255.634 368.823 266.384C379.176 277.134 385.939 290.729 388.332 305.303C389.227 310.753 393.749 315.134 399.27 314.99L467.459 313.209Z"/>
</mask>
<path d="M467.459 313.209C472.98 313.064 477.371 308.466 476.885 302.964C473.653 266.347 457.999 231.814 432.361 205.193C406.723 178.573 372.803 161.63 336.334 157.023C330.854 156.331 326.094 160.545 325.742 166.057L321.398 234.131C321.046 239.642 325.254 244.327 330.666 245.426C345.14 248.365 358.471 255.634 368.823 266.384C379.176 277.134 385.939 290.729 388.332 305.303C389.227 310.753 393.749 315.134 399.27 314.99L467.459 313.209Z" fill="#F6EED7" stroke="#5E4507" stroke-opacity="0.21" stroke-width="2" mask="url(#path-3-inside-3_737_723)"/>
<mask id="path-4-inside-4_737_723" fill="white">
<path d="M323.229 468.654C323.44 474.173 328.092 478.507 333.587 477.955C370.162 474.277 404.502 458.203 430.809 432.243C457.116 406.283 473.644 372.16 477.807 335.637C478.432 330.149 474.16 325.44 468.644 325.156L400.523 321.64C395.007 321.356 390.375 325.621 389.341 331.046C386.579 345.554 379.472 358.972 368.849 369.455C358.226 379.938 344.714 386.867 330.171 389.436C324.732 390.397 320.406 394.973 320.618 400.492L323.229 468.654Z"/>
</mask>
<path d="M323.229 468.654C323.44 474.173 328.092 478.507 333.587 477.955C370.162 474.277 404.502 458.203 430.809 432.243C457.116 406.283 473.644 372.16 477.807 335.637C478.432 330.149 474.16 325.44 468.644 325.156L400.523 321.64C395.007 321.356 390.375 325.621 389.341 331.046C386.579 345.554 379.472 358.972 368.849 369.455C358.226 379.938 344.714 386.867 330.171 389.436C324.732 390.397 320.406 394.973 320.618 400.492L323.229 468.654Z" fill="#F6EED7" stroke="#5E4507" stroke-opacity="0.21" stroke-width="2" mask="url(#path-4-inside-4_737_723)"/>
<path d="M387.082 388.701H410.139" stroke="#5E4507" stroke-miterlimit="2.6131" stroke-linecap="round" stroke-linejoin="round"/>
<path d="M410.139 388.701C410.728 388.701 411.211 389.183 411.211 389.772" stroke="#5E4507" stroke-miterlimit="2.6131" stroke-linecap="round" stroke-linejoin="round"/>
<path d="M411.211 389.772V407.913" stroke="#5E4507" stroke-miterlimit="2.6131" stroke-linecap="round" stroke-linejoin="round"/>
<path d="M411.211 407.913C411.211 408.505 410.728 408.987 410.139 408.987" stroke="#5E4507" stroke-miterlimit="2.6131" stroke-linecap="round" stroke-linejoin="round"/>
<path d="M410.139 408.987H387.082" stroke="#5E4507" stroke-miterlimit="2.6131" stroke-linecap="round" stroke-linejoin="round"/>
<path d="M387.082 408.987C386.493 408.987 386.011 408.505 386.011 407.913" stroke="#5E4507" stroke-miterlimit="2.6131" stroke-linecap="round" stroke-linejoin="round"/>
<path d="M386.011 407.913V389.772" stroke="#5E4507" stroke-miterlimit="2.6131" stroke-linecap="round" stroke-linejoin="round"/>
<path d="M386.011 389.772C386.011 389.183 386.493 388.701 387.082 388.701" stroke="#5E4507" stroke-miterlimit="2.6131" stroke-linecap="round" stroke-linejoin="round"/>
<path d="M391.035 386.226V390.604" stroke="#5E4507" stroke-miterlimit="2.6131" stroke-linecap="round" stroke-linejoin="round"/>
<path d="M391.035 392.889C391.625 392.889 392.106 392.405 392.106 391.817C392.106 391.227 391.625 390.745 391.035 390.745C390.445 390.745 389.964 391.227 389.964 391.817C389.964 392.405 390.445 392.889 391.035 392.889Z" stroke="#5E4507" stroke-miterlimit="2.6131" stroke-linecap="round" stroke-linejoin="round"/>
<path d="M406.187 386.226V390.745" stroke="#5E4507" stroke-miterlimit="2.6131" stroke-linecap="round" stroke-linejoin="round"/>
<path d="M406.187 392.889C406.776 392.889 407.256 392.405 407.256 391.817C407.256 391.227 406.776 390.745 406.187 390.745C405.596 390.745 405.116 391.227 405.116 391.817C405.116 392.405 405.596 392.889 406.187 392.889Z" stroke="#5E4507" stroke-miterlimit="2.6131" stroke-linecap="round" stroke-linejoin="round"/>
<path d="M388.823 395.521H408.398" stroke="#5E4507" stroke-miterlimit="2.6131" stroke-linecap="round" stroke-linejoin="round"/>
<path d="M389.418 398.25H390.369" stroke="#5E4507" stroke-miterlimit="2.6131" stroke-linecap="round" stroke-linejoin="round"/>
<path d="M390.369 398.25C390.697 398.25 390.965 398.517 390.965 398.844" stroke="#5E4507" stroke-miterlimit="2.6131" stroke-linecap="round" stroke-linejoin="round"/>
<path d="M390.965 398.844V399.796" stroke="#5E4507" stroke-miterlimit="2.6131" stroke-linecap="round" stroke-linejoin="round"/>
<path d="M390.965 399.795C390.965 400.122 390.697 400.391 390.369 400.391" stroke="#5E4507" stroke-miterlimit="2.6131" stroke-linecap="round" stroke-linejoin="round"/>
<path d="M390.369 400.391H389.418" stroke="#5E4507" stroke-miterlimit="2.6131" stroke-linecap="round" stroke-linejoin="round"/>
<path d="M389.418 400.391C389.091 400.391 388.823 400.122 388.823 399.795" stroke="#5E4507" stroke-miterlimit="2.6131" stroke-linecap="round" stroke-linejoin="round"/>
<path d="M388.823 399.796V398.844" stroke="#5E4507" stroke-miterlimit="2.6131" stroke-linecap="round" stroke-linejoin="round"/>
<path d="M388.823 398.844C388.823 398.517 389.091 398.25 389.418 398.25" stroke="#5E4507" stroke-miterlimit="2.6131" stroke-linecap="round" stroke-linejoin="round"/>
<path d="M400.698 398.25H401.649" stroke="#5E4507" stroke-miterlimit="2.6131" stroke-linecap="round" stroke-linejoin="round"/>
<path d="M401.648 398.25C401.976 398.25 402.244 398.517 402.244 398.844" stroke="#5E4507" stroke-miterlimit="2.6131" stroke-linecap="round" stroke-linejoin="round"/>
<path d="M402.244 398.844V399.796" stroke="#5E4507" stroke-miterlimit="2.6131" stroke-linecap="round" stroke-linejoin="round"/>
<path d="M402.244 399.795C402.244 400.122 401.976 400.391 401.648 400.391" stroke="#5E4507" stroke-miterlimit="2.6131" stroke-linecap="round" stroke-linejoin="round"/>
<path d="M401.649 400.391H400.698" stroke="#5E4507" stroke-miterlimit="2.6131" stroke-linecap="round" stroke-linejoin="round"/>
<path d="M400.698 400.391C400.37 400.391 400.102 400.122 400.102 399.795" stroke="#5E4507" stroke-miterlimit="2.6131" stroke-linecap="round" stroke-linejoin="round"/>
<path d="M400.102 399.796V398.844" stroke="#5E4507" stroke-miterlimit="2.6131" stroke-linecap="round" stroke-linejoin="round"/>
<path d="M400.102 398.844C400.102 398.517 400.37 398.25 400.698 398.25" stroke="#5E4507" stroke-miterlimit="2.6131" stroke-linecap="round" stroke-linejoin="round"/>
<path d="M406.337 398.25H407.289" stroke="#5E4507" stroke-miterlimit="2.6131" stroke-linecap="round" stroke-linejoin="round"/>
<path d="M407.289 398.25C407.617 398.25 407.884 398.517 407.884 398.844" stroke="#5E4507" stroke-miterlimit="2.6131" stroke-linecap="round" stroke-linejoin="round"/>
<path d="M407.884 398.844V399.796" stroke="#5E4507" stroke-miterlimit="2.6131" stroke-linecap="round" stroke-linejoin="round"/>
<path d="M407.884 399.795C407.884 400.122 407.617 400.391 407.289 400.391" stroke="#5E4507" stroke-miterlimit="2.6131" stroke-linecap="round" stroke-linejoin="round"/>
<path d="M407.289 400.391H406.337" stroke="#5E4507" stroke-miterlimit="2.6131" stroke-linecap="round" stroke-linejoin="round"/>
<path d="M406.337 400.391C406.01 400.391 405.743 400.122 405.743 399.795" stroke="#5E4507" stroke-miterlimit="2.6131" stroke-linecap="round" stroke-linejoin="round"/>
<path d="M405.743 399.796V398.844" stroke="#5E4507" stroke-miterlimit="2.6131" stroke-linecap="round" stroke-linejoin="round"/>
<path d="M405.743 398.844C405.743 398.517 406.01 398.25 406.337 398.25" stroke="#5E4507" stroke-miterlimit="2.6131" stroke-linecap="round" stroke-linejoin="round"/>
<path d="M389.418 403.755H390.369" stroke="#5E4507" stroke-miterlimit="2.6131" stroke-linecap="round" stroke-linejoin="round"/>
<path d="M390.369 403.755C390.697 403.755 390.965 404.023 390.965 404.35" stroke="#5E4507" stroke-miterlimit="2.6131" stroke-linecap="round" stroke-linejoin="round"/>
<path d="M390.965 404.35V405.303" stroke="#5E4507" stroke-miterlimit="2.6131" stroke-linecap="round" stroke-linejoin="round"/>
<path d="M390.965 405.303C390.965 405.629 390.697 405.897 390.369 405.897" stroke="#5E4507" stroke-miterlimit="2.6131" stroke-linecap="round" stroke-linejoin="round"/>
<path d="M390.369 405.897H389.418" stroke="#5E4507" stroke-miterlimit="2.6131" stroke-linecap="round" stroke-linejoin="round"/>
<path d="M389.418 405.897C389.091 405.897 388.823 405.629 388.823 405.303" stroke="#5E4507" stroke-miterlimit="2.6131" stroke-linecap="round" stroke-linejoin="round"/>
<path d="M388.823 405.303V404.35" stroke="#5E4507" stroke-miterlimit="2.6131" stroke-linecap="round" stroke-linejoin="round"/>
<path d="M388.823 404.35C388.823 404.023 389.091 403.755 389.418 403.755" stroke="#5E4507" stroke-miterlimit="2.6131" stroke-linecap="round" stroke-linejoin="round"/>
<path d="M395.058 403.755H396.009" stroke="#5E4507" stroke-miterlimit="2.6131" stroke-linecap="round" stroke-linejoin="round"/>
<path d="M396.009 403.755C396.337 403.755 396.605 404.023 396.605 404.35" stroke="#5E4507" stroke-miterlimit="2.6131" stroke-linecap="round" stroke-linejoin="round"/>
<path d="M396.605 404.35V405.303" stroke="#5E4507" stroke-miterlimit="2.6131" stroke-linecap="round" stroke-linejoin="round"/>
<path d="M396.605 405.303C396.605 405.629 396.337 405.897 396.009 405.897" stroke="#5E4507" stroke-miterlimit="2.6131" stroke-linecap="round" stroke-linejoin="round"/>
<path d="M396.009 405.897H395.058" stroke="#5E4507" stroke-miterlimit="2.6131" stroke-linecap="round" stroke-linejoin="round"/>
<path d="M395.058 405.897C394.731 405.897 394.462 405.629 394.462 405.303" stroke="#5E4507" stroke-miterlimit="2.6131" stroke-linecap="round" stroke-linejoin="round"/>
<path d="M394.462 405.303V404.35" stroke="#5E4507" stroke-miterlimit="2.6131" stroke-linecap="round" stroke-linejoin="round"/>
<path d="M394.462 404.35C394.462 404.023 394.731 403.755 395.058 403.755" stroke="#5E4507" stroke-miterlimit="2.6131" stroke-linecap="round" stroke-linejoin="round"/>
<path d="M400.698 403.755H401.649" stroke="#5E4507" stroke-miterlimit="2.6131" stroke-linecap="round" stroke-linejoin="round"/>
<path d="M401.648 403.755C401.976 403.755 402.244 404.023 402.244 404.35" stroke="#5E4507" stroke-miterlimit="2.6131" stroke-linecap="round" stroke-linejoin="round"/>
<path d="M402.244 404.35V405.303" stroke="#5E4507" stroke-miterlimit="2.6131" stroke-linecap="round" stroke-linejoin="round"/>
<path d="M402.244 405.303C402.244 405.629 401.976 405.897 401.648 405.897" stroke="#5E4507" stroke-miterlimit="2.6131" stroke-linecap="round" stroke-linejoin="round"/>
<path d="M401.649 405.897H400.698" stroke="#5E4507" stroke-miterlimit="2.6131" stroke-linecap="round" stroke-linejoin="round"/>
<path d="M400.698 405.897C400.37 405.897 400.102 405.629 400.102 405.303" stroke="#5E4507" stroke-miterlimit="2.6131" stroke-linecap="round" stroke-linejoin="round"/>
<path d="M400.102 405.303V404.35" stroke="#5E4507" stroke-miterlimit="2.6131" stroke-linecap="round" stroke-linejoin="round"/>
<path d="M400.102 404.35C400.102 404.023 400.37 403.755 400.698 403.755" stroke="#5E4507" stroke-miterlimit="2.6131" stroke-linecap="round" stroke-linejoin="round"/>
<path d="M394.688 399.164L395.481 399.892" stroke="#5E4507" stroke-miterlimit="2.6131" stroke-linecap="round" stroke-linejoin="round"/>
<path d="M396.935 398.304L395.481 399.891" stroke="#5E4507" stroke-miterlimit="2.6131" stroke-linecap="round" stroke-linejoin="round"/>
<path d="M406.128 404.671L406.921 405.398" stroke="#5E4507" stroke-miterlimit="2.6131" stroke-linecap="round" stroke-linejoin="round"/>
<path d="M408.375 403.81L406.921 405.398" stroke="#5E4507" stroke-miterlimit="2.6131" stroke-linecap="round" stroke-linejoin="round"/>
<g clip-path="url(#clip0_737_723)">
<path d="M228.611 252.047C236.033 252.047 242.051 246.029 242.051 238.607C242.051 231.184 236.033 225.167 228.611 225.167C221.188 225.167 215.171 231.184 215.171 238.607C215.171 246.029 221.188 252.047 228.611 252.047Z" stroke="#5E4507" stroke-miterlimit="10" stroke-linecap="round"/>
<path d="M228.611 252.047C232.322 252.047 235.331 246.029 235.331 238.607C235.331 231.184 232.322 225.167 228.611 225.167C224.899 225.167 221.891 231.184 221.891 238.607C221.891 246.029 224.899 252.047 228.611 252.047Z" stroke="#5E4507" stroke-miterlimit="10" stroke-linecap="round"/>
<path d="M218.175 247.252C220.64 245.735 224.399 244.767 228.611 244.767C232.765 244.767 236.478 245.709 238.943 247.189" stroke="#5E4507" stroke-miterlimit="10"/>
<path d="M239.046 229.962C236.582 231.478 232.822 232.447 228.611 232.447C224.457 232.447 220.743 231.505 218.278 230.025" stroke="#5E4507" stroke-miterlimit="10"/>
<path d="M215.171 238.606H242.051" stroke="#5E4507" stroke-miterlimit="10"/>
<path d="M228.611 225.167V252.047" stroke="#5E4507" stroke-miterlimit="10"/>
</g>
<path d="M233.23 400.641V400.272H233.22L233.209 400.272L233.23 400.641ZM242.494 397.472L242.678 397.792L243.318 397.424L243.133 397.104L242.494 397.472ZM240.997 393.392L240.813 393.072L240.173 393.44L240.357 393.76L240.997 393.392ZM243.169 402.06L243.354 401.74L242.714 401.371L242.53 401.691L243.169 402.06ZM240.357 405.457L240.173 405.776L240.812 406.145L240.997 405.826L240.357 405.457ZM236.594 408.259H236.963V407.521H236.594V408.259ZM232.609 407.521H232.24V408.259H232.609V407.521ZM228.215 405.826L228.399 406.145L229.039 405.776L228.854 405.457L228.215 405.826ZM226.682 401.691L226.497 401.371L225.858 401.74L226.042 402.06L226.682 401.691ZM228.854 393.761L229.039 393.441L228.4 393.072L228.215 393.391L228.854 393.761ZM226.069 397.103L225.885 397.423L226.524 397.792L226.709 397.472L226.069 397.103ZM236.594 391.688H236.963V390.949H236.594V391.688ZM232.609 390.949H232.24V391.688H232.609V390.949ZM233.23 400.641V401.01H236.005V400.641V400.272H233.23V400.641ZM236.005 400.641V401.01C237.334 401.01 238.411 402.088 238.411 403.419H238.781H239.15C239.15 401.681 237.742 400.272 236.005 400.272V400.641ZM237.046 398.21H236.677C236.677 399.349 235.754 400.272 234.617 400.272V400.641V401.01C236.163 401.01 237.415 399.756 237.415 398.21H237.046ZM234.617 400.641V400.272C233.481 400.272 232.558 399.349 232.558 398.21H232.189H231.82C231.82 399.756 233.072 401.01 234.617 401.01V400.641ZM232.189 398.21H232.558C232.558 397.07 233.481 396.148 234.617 396.148V395.778V395.409C233.072 395.409 231.82 396.663 231.82 398.21H232.189ZM234.617 395.778V396.148C235.754 396.148 236.677 397.07 236.677 398.21H237.046H237.415C237.415 396.663 236.163 395.409 234.617 395.409V395.778ZM230.454 403.419H230.824C230.824 403.046 230.945 402.462 231.308 401.966C231.659 401.486 232.251 401.065 233.25 401.01L233.23 400.641L233.209 400.272C231.989 400.34 231.193 400.871 230.711 401.531C230.241 402.174 230.085 402.918 230.085 403.419H230.454ZM242.813 397.288L243.133 397.104L240.997 393.392L240.677 393.576L240.357 393.76L242.494 397.472L242.813 397.288ZM242.85 401.875L242.53 401.691L240.357 405.457L240.677 405.641L240.997 405.826L243.169 402.06L242.85 401.875ZM236.594 407.89V407.521H232.609V407.89V408.259H236.594V407.89ZM228.535 405.641L228.854 405.457L226.682 401.691L226.362 401.875L226.042 402.06L228.215 405.826L228.535 405.641ZM228.535 393.576L228.215 393.391L226.069 397.103L226.389 397.288L226.709 397.472L228.854 393.761L228.535 393.576ZM236.594 391.318V390.949H232.609V391.318V391.688H236.594V391.318ZM230.08 389.783L230.02 390.147C230.664 390.252 231.102 390.86 230.997 391.506L231.362 391.565L231.726 391.624C231.896 390.577 231.186 389.589 230.139 389.419L230.08 389.783ZM231.362 391.565L230.997 391.506C230.893 392.152 230.286 392.59 229.642 392.485L229.583 392.85L229.524 393.214C230.571 393.384 231.556 392.672 231.726 391.624L231.362 391.565ZM229.583 392.85L229.642 392.485C228.999 392.381 228.561 391.773 228.665 391.127L228.301 391.067L227.936 391.008C227.767 392.056 228.477 393.044 229.524 393.214L229.583 392.85ZM228.301 391.067L228.665 391.127C228.77 390.48 229.377 390.043 230.02 390.147L230.08 389.783L230.139 389.419C229.092 389.248 228.106 389.961 227.936 391.008L228.301 391.067ZM239.659 389.79L239.6 390.154C240.244 390.259 240.682 390.867 240.577 391.513L240.941 391.572L241.306 391.631C241.475 390.584 240.765 389.596 239.718 389.426L239.659 389.79ZM240.941 391.572L240.577 391.513C240.472 392.159 239.865 392.597 239.222 392.492L239.162 392.856L239.103 393.221C240.15 393.391 241.136 392.679 241.306 391.631L240.941 391.572ZM239.162 392.856L239.222 392.492C238.578 392.387 238.14 391.78 238.245 391.133L237.88 391.074L237.516 391.015C237.346 392.063 238.056 393.051 239.103 393.221L239.162 392.856ZM237.88 391.074L238.245 391.133C238.349 390.487 238.957 390.05 239.6 390.154L239.659 389.79L239.718 389.426C238.671 389.255 237.686 389.968 237.516 391.015L237.88 391.074ZM244.41 398.071L244.351 398.436C244.994 398.54 245.432 399.148 245.328 399.794L245.692 399.854L246.056 399.913C246.226 398.865 245.516 397.877 244.469 397.707L244.41 398.071ZM245.692 399.854L245.328 399.794C245.223 400.44 244.616 400.878 243.972 400.774L243.913 401.138L243.854 401.502C244.901 401.672 245.887 400.96 246.056 399.913L245.692 399.854ZM243.913 401.138L243.972 400.774C243.329 400.669 242.891 400.061 242.995 399.415L242.631 399.356L242.267 399.297C242.097 400.344 242.807 401.332 243.854 401.502L243.913 401.138ZM242.631 399.356L242.995 399.415C243.1 398.769 243.707 398.331 244.351 398.436L244.41 398.071L244.469 397.707C243.422 397.537 242.436 398.249 242.267 399.297L242.631 399.356ZM225.308 398.072L225.249 398.437C225.893 398.541 226.331 399.149 226.226 399.795L226.59 399.854L226.955 399.913C227.124 398.866 226.414 397.878 225.367 397.708L225.308 398.072ZM226.59 399.854L226.226 399.795C226.121 400.441 225.514 400.879 224.871 400.774L224.811 401.139L224.752 401.503C225.799 401.673 226.785 400.961 226.955 399.913L226.59 399.854ZM224.811 401.139L224.871 400.774C224.227 400.67 223.789 400.062 223.894 399.416L223.529 399.357L223.165 399.298C222.995 400.345 223.705 401.333 224.752 401.503L224.811 401.139ZM223.529 399.357L223.894 399.416C223.998 398.77 224.606 398.332 225.249 398.437L225.308 398.072L225.367 397.708C224.32 397.538 223.335 398.25 223.165 399.298L223.529 399.357ZM230.088 406.357L230.029 406.721C230.673 406.825 231.111 407.433 231.006 408.08L231.37 408.139L231.735 408.198C231.904 407.15 231.195 406.162 230.148 405.992L230.088 406.357ZM231.37 408.139L231.006 408.08C230.901 408.726 230.294 409.163 229.651 409.059L229.592 409.423L229.532 409.787C230.579 409.958 231.565 409.245 231.735 408.198L231.37 408.139ZM229.592 409.423L229.651 409.059C229.007 408.954 228.569 408.346 228.674 407.7L228.309 407.641L227.945 407.582C227.775 408.629 228.485 409.617 229.532 409.787L229.592 409.423ZM228.309 407.641L228.674 407.7C228.778 407.054 229.386 406.616 230.029 406.721L230.088 406.357L230.148 405.992C229.1 405.822 228.115 406.534 227.945 407.582L228.309 407.641ZM239.65 406.363L239.591 406.728C240.234 406.832 240.672 407.44 240.568 408.087L240.932 408.146L241.296 408.205C241.466 407.157 240.756 406.169 239.709 405.999L239.65 406.363ZM240.932 408.146L240.568 408.087C240.463 408.733 239.856 409.17 239.212 409.066L239.153 409.43L239.094 409.794C240.141 409.965 241.127 409.252 241.296 408.205L240.932 408.146ZM239.153 409.43L239.212 409.066C238.569 408.961 238.131 408.353 238.235 407.707L237.871 407.648L237.507 407.589C237.337 408.636 238.047 409.624 239.094 409.794L239.153 409.43ZM237.871 407.648L238.235 407.707C238.34 407.061 238.947 406.623 239.591 406.728L239.65 406.363L239.709 405.999C238.662 405.829 237.676 406.541 237.507 407.589L237.871 407.648Z" fill="#5E4507"/>
<path d="M408.564 233.12H404.657C404.445 233.12 404.274 233.291 404.274 233.503V244.929C404.274 245.14 404.445 245.311 404.657 245.311H408.564C408.776 245.311 408.947 245.14 408.947 244.929V233.503C408.947 233.291 408.776 233.12 408.564 233.12ZM408.182 244.546H405.04V233.886H408.182V244.546Z" fill="#5E4507"/>
<path d="M416.554 225.902H412.647C412.435 225.902 412.264 226.073 412.264 226.285V244.928C412.264 245.14 412.435 245.311 412.647 245.311H416.554C416.766 245.311 416.937 245.14 416.937 244.928V226.285C416.937 226.073 416.766 225.902 416.554 225.902ZM416.171 244.546H413.029V226.667H416.171V244.546Z" fill="#5E4507"/>
<path d="M400.575 238.033H396.667C396.456 238.033 396.284 238.204 396.284 238.416V244.928C396.284 245.14 396.456 245.311 396.667 245.311H400.575C400.786 245.311 400.957 245.14 400.957 244.928V238.416C400.957 238.204 400.786 238.033 400.575 238.033ZM400.192 244.545H397.05V238.798H400.192V244.545Z" fill="#5E4507"/>
<defs>
<clipPath id="clip0_737_723">
<rect width="28" height="28" fill="white" transform="translate(214.611 224.606)"/>
</clipPath>
</defs>
</svg>
