<svg width="60" height="60" viewBox="0 0 60 60" fill="none" xmlns="http://www.w3.org/2000/svg">
<rect x="0.5" y="0.5" width="59" height="59" rx="14.5" stroke="#5E4507"/>
<path fill-rule="evenodd" clip-rule="evenodd" d="M29.924 15.6667C26.8454 15.6667 24.4334 15.6667 22.5507 15.9201C20.6254 16.1787 19.1054 16.7201 17.912 17.9121C16.7187 19.1054 16.1787 20.6254 15.92 22.5521C15.6667 24.4334 15.6667 26.8454 15.6667 29.9241V30.0761C15.6667 33.1547 15.6667 35.5667 15.92 37.4494C16.1787 39.3747 16.72 40.8947 17.912 42.0881C19.1054 43.2814 20.6254 43.8214 22.552 44.0801C24.4334 44.3334 26.8454 44.3334 29.924 44.3334H30.076C33.1547 44.3334 35.5667 44.3334 37.4494 44.0801C39.3747 43.8214 40.8947 43.2801 42.088 42.0881C43.2814 40.8947 43.8214 39.3747 44.08 37.4481C44.3334 35.5667 44.3334 33.1547 44.3334 30.0761V29.9241C44.3334 26.8454 44.3334 24.4334 44.08 22.5507C43.8214 20.6254 43.28 19.1054 42.088 17.9121C40.8947 16.7187 39.3747 16.1787 37.448 15.9201C35.5667 15.6667 33.1547 15.6667 30.076 15.6667H29.924ZM29 17.6667C26.3414 17.6694 24.364 17.6934 22.8187 17.9014C21.1134 18.1307 20.0854 18.5681 19.3254 19.3267C18.5667 20.0867 18.1307 21.1134 17.9014 22.8187C17.6947 24.3641 17.6694 26.3414 17.6667 29.0001H23.2187C22.7404 28.4017 22.3966 27.7073 22.2107 26.9641C21.492 24.0934 24.0934 21.4921 26.964 22.2107C27.7072 22.3966 28.4016 22.7404 29 23.2187V17.6667ZM17.6667 31.0001C17.6694 33.6587 17.6934 35.6361 17.9014 37.1814C18.1307 38.8867 18.568 39.9147 19.3267 40.6747C20.0867 41.4334 21.1134 41.8694 22.8187 42.0987C24.364 42.3054 26.3414 42.3307 29 42.3334V32.8321C28.4739 33.8844 27.6651 34.7695 26.6642 35.3879C25.6633 36.0063 24.5099 36.3337 23.3334 36.3334C23.0681 36.3334 22.8138 36.2281 22.6262 36.0405C22.4387 35.853 22.3334 35.5986 22.3334 35.3334C22.3334 35.0682 22.4387 34.8138 22.6262 34.6263C22.8138 34.4388 23.0681 34.3334 23.3334 34.3334C24.3089 34.3336 25.256 34.0047 26.0214 33.3997C26.7867 32.7948 27.3256 31.9493 27.5507 31.0001H17.6667ZM31 42.3334C33.6587 42.3307 35.636 42.3067 37.1814 42.0987C38.8867 41.8694 39.9147 41.4321 40.6747 40.6734C41.4334 39.9134 41.8694 38.8867 42.0987 37.1814C42.3054 35.6361 42.3307 33.6587 42.3334 31.0001H32.4494C32.6745 31.9493 33.2133 32.7948 33.9787 33.3997C34.744 34.0047 35.6911 34.3336 36.6667 34.3334C36.9319 34.3334 37.1863 34.4388 37.3738 34.6263C37.5613 34.8138 37.6667 35.0682 37.6667 35.3334C37.6667 35.5986 37.5613 35.853 37.3738 36.0405C37.1863 36.2281 36.9319 36.3334 36.6667 36.3334C35.4901 36.3337 34.3368 36.0063 33.3359 35.3879C32.335 34.7695 31.5261 33.8844 31 32.8321V42.3334ZM42.3334 29.0001H36.7814C37.2602 28.4018 37.6044 27.7074 37.7907 26.9641C38.508 24.0934 35.9067 21.4921 33.0374 22.2107C32.2937 22.3964 31.5988 22.7403 31 23.2187V17.6667C33.6587 17.6694 35.636 17.6934 37.1814 17.9014C38.8867 18.1307 39.9147 18.5681 40.6747 19.3267C41.4334 20.0867 41.8694 21.1134 42.0987 22.8187C42.3054 24.3641 42.3307 26.3414 42.3334 29.0001ZM31 29.0001V27.3734C31.0023 26.6324 31.2514 25.9133 31.708 25.3297C32.1646 24.7461 32.8027 24.3313 33.5214 24.1507C33.843 24.0704 34.1799 24.0747 34.4993 24.1633C34.8187 24.2518 35.1098 24.4215 35.3442 24.6559C35.5786 24.8903 35.7483 25.1814 35.8368 25.5008C35.9254 25.8202 35.9297 26.1571 35.8494 26.4787C35.669 27.197 35.2545 27.8347 34.6715 28.2913C34.0884 28.7478 33.3699 28.9972 32.6294 29.0001H31ZM29 27.3694C28.9969 26.6291 28.7473 25.9109 28.2908 25.3281C27.8343 24.7453 27.1967 24.3311 26.4787 24.1507C26.1571 24.0704 25.8202 24.0747 25.5007 24.1633C25.1813 24.2518 24.8902 24.4215 24.6558 24.6559C24.4214 24.8903 24.2517 25.1814 24.1632 25.5008C24.0747 25.8202 24.0704 26.1571 24.1507 26.4787C24.3311 27.197 24.7455 27.8347 25.3286 28.2913C25.9116 28.7478 26.6301 28.9972 27.3707 29.0001H29V27.3694Z" fill="black"/>
</svg>
