<svg width="163" height="43" viewBox="0 0 163 43" fill="none" xmlns="http://www.w3.org/2000/svg">
<rect x="0.479004" width="162.165" height="42.9982" rx="6.1426" fill="black"/>
<path d="M58.8964 9.90661C59.6434 9.90661 60.2887 10.0475 60.8326 10.3292C61.383 10.6044 61.8023 11.0008 62.0906 11.5184C62.3854 12.036 62.5328 12.6454 62.5328 13.3465C62.5328 14.0475 62.3854 14.6569 62.0906 15.1745C61.8023 15.6856 61.383 16.0787 60.8326 16.3539C60.2887 16.6225 59.6434 16.7568 58.8964 16.7568H56.7637V9.90661H58.8964ZM58.8964 16.0197C59.781 16.0197 60.4558 15.7871 60.921 15.3219C61.3862 14.8502 61.6188 14.1917 61.6188 13.3465C61.6188 12.4947 61.383 11.8297 60.9112 11.3514C60.446 10.873 59.7744 10.6339 58.8964 10.6339H57.6581V16.0197H58.8964ZM66.0615 16.8453C65.5569 16.8453 65.0983 16.7306 64.6855 16.5013C64.2793 16.272 63.9582 15.9477 63.7224 15.5283C63.493 15.1024 63.3784 14.611 63.3784 14.0541C63.3784 13.5037 63.4963 13.0189 63.7322 12.5995C63.9746 12.1736 64.3022 11.8493 64.715 11.6265C65.1278 11.3972 65.5897 11.2826 66.1008 11.2826C66.6118 11.2826 67.0738 11.3972 67.4865 11.6265C67.8993 11.8493 68.2237 12.1704 68.4595 12.5897C68.702 13.009 68.8232 13.4972 68.8232 14.0541C68.8232 14.611 68.6987 15.1024 68.4497 15.5283C68.2073 15.9477 67.8764 16.272 67.4571 16.5013C67.0377 16.7306 66.5725 16.8453 66.0615 16.8453ZM66.0615 16.059C66.3825 16.059 66.6839 15.9837 66.9656 15.833C67.2474 15.6823 67.4734 15.4562 67.6438 15.1548C67.8207 14.8535 67.9092 14.4865 67.9092 14.0541C67.9092 13.6217 67.824 13.2547 67.6536 12.9533C67.4833 12.6519 67.2605 12.4292 66.9853 12.285C66.7101 12.1343 66.412 12.059 66.0909 12.059C65.7633 12.059 65.4619 12.1343 65.1868 12.285C64.9181 12.4292 64.7019 12.6519 64.5381 12.9533C64.3743 13.2547 64.2924 13.6217 64.2924 14.0541C64.2924 14.4931 64.371 14.8633 64.5283 15.1647C64.6921 15.4661 64.9083 15.6921 65.1769 15.8428C65.4456 15.987 65.7404 16.059 66.0615 16.059ZM77.1736 11.371L75.493 16.7568H74.5692L73.2719 12.4816L71.9746 16.7568H71.0507L69.3603 11.371H70.2743L71.5126 15.892L72.8493 11.371H73.7633L75.0704 15.9018L76.2891 11.371H77.1736ZM80.6854 11.2727C81.3406 11.2727 81.8713 11.4726 82.2775 11.8722C82.6838 12.2654 82.8869 12.8354 82.8869 13.5823V16.7568H82.0023V13.7101C82.0023 13.1728 81.868 12.7633 81.5994 12.4816C81.3307 12.1933 80.9638 12.0492 80.4986 12.0492C80.0269 12.0492 79.6501 12.1966 79.3684 12.4914C79.0932 12.7863 78.9556 13.2154 78.9556 13.7789V16.7568H78.0612V11.371H78.9556V12.1376C79.1325 11.8624 79.3717 11.6495 79.6731 11.4988C79.981 11.3481 80.3184 11.2727 80.6854 11.2727ZM85.2422 9.484V16.7568H84.3478V9.484H85.2422ZM89.1154 16.8453C88.6109 16.8453 88.1522 16.7306 87.7394 16.5013C87.3332 16.272 87.0122 15.9477 86.7763 15.5283C86.547 15.1024 86.4323 14.611 86.4323 14.0541C86.4323 13.5037 86.5502 13.0189 86.7861 12.5995C87.0285 12.1736 87.3561 11.8493 87.7689 11.6265C88.1817 11.3972 88.6436 11.2826 89.1547 11.2826C89.6658 11.2826 90.1277 11.3972 90.5405 11.6265C90.9533 11.8493 91.2776 12.1704 91.5135 12.5897C91.7559 13.009 91.8771 13.4972 91.8771 14.0541C91.8771 14.611 91.7526 15.1024 91.5036 15.5283C91.2612 15.9477 90.9303 16.272 90.511 16.5013C90.0916 16.7306 89.6264 16.8453 89.1154 16.8453ZM89.1154 16.059C89.4364 16.059 89.7378 15.9837 90.0196 15.833C90.3013 15.6823 90.5274 15.4562 90.6977 15.1548C90.8746 14.8535 90.9631 14.4865 90.9631 14.0541C90.9631 13.6217 90.8779 13.2547 90.7075 12.9533C90.5372 12.6519 90.3144 12.4292 90.0392 12.285C89.764 12.1343 89.4659 12.059 89.1449 12.059C88.8173 12.059 88.5159 12.1343 88.2407 12.285C87.972 12.4292 87.7558 12.6519 87.592 12.9533C87.4282 13.2547 87.3463 13.6217 87.3463 14.0541C87.3463 14.4931 87.4249 14.8633 87.5822 15.1647C87.746 15.4661 87.9622 15.6921 88.2309 15.8428C88.4995 15.987 88.7943 16.059 89.1154 16.059ZM92.7189 14.0443C92.7189 13.4939 92.8302 13.0123 93.053 12.5995C93.2758 12.1802 93.5805 11.8559 93.967 11.6265C94.3602 11.3972 94.7959 11.2826 95.2742 11.2826C95.7459 11.2826 96.1554 11.3841 96.5027 11.5872C96.85 11.7903 97.1088 12.0459 97.2791 12.3538V11.371H98.1833V16.7568H97.2791V15.7544C97.1022 16.0689 96.8369 16.3309 96.483 16.5406C96.1358 16.7437 95.7296 16.8453 95.2644 16.8453C94.7861 16.8453 94.3536 16.7274 93.967 16.4915C93.5805 16.2556 93.2758 15.9247 93.053 15.4988C92.8302 15.0729 92.7189 14.5881 92.7189 14.0443ZM97.2791 14.0541C97.2791 13.6479 97.1972 13.2941 97.0334 12.9927C96.8696 12.6913 96.6468 12.4619 96.3651 12.3047C96.0899 12.1409 95.7852 12.059 95.4511 12.059C95.1169 12.059 94.8123 12.1376 94.5371 12.2949C94.2619 12.4521 94.0424 12.6814 93.8786 12.9828C93.7148 13.2842 93.6329 13.638 93.6329 14.0443C93.6329 14.457 93.7148 14.8174 93.8786 15.1254C94.0424 15.4268 94.2619 15.6594 94.5371 15.8232C94.8123 15.9804 95.1169 16.059 95.4511 16.059C95.7852 16.059 96.0899 15.9804 96.3651 15.8232C96.6468 15.6594 96.8696 15.4268 97.0334 15.1254C97.1972 14.8174 97.2791 14.4603 97.2791 14.0541ZM99.3605 14.0443C99.3605 13.4939 99.4719 13.0123 99.6947 12.5995C99.9175 12.1802 100.222 11.8559 100.609 11.6265C101.002 11.3972 101.441 11.2826 101.926 11.2826C102.345 11.2826 102.735 11.3808 103.095 11.5774C103.456 11.7674 103.731 12.0197 103.921 12.3342V9.484H104.825V16.7568H103.921V15.7445C103.744 16.0656 103.482 16.3309 103.135 16.5406C102.787 16.7437 102.381 16.8453 101.916 16.8453C101.438 16.8453 101.002 16.7274 100.609 16.4915C100.222 16.2556 99.9175 15.9247 99.6947 15.4988C99.4719 15.0729 99.3605 14.5881 99.3605 14.0443ZM103.921 14.0541C103.921 13.6479 103.839 13.2941 103.675 12.9927C103.511 12.6913 103.289 12.4619 103.007 12.3047C102.732 12.1409 102.427 12.059 102.093 12.059C101.759 12.059 101.454 12.1376 101.179 12.2949C100.904 12.4521 100.684 12.6814 100.52 12.9828C100.356 13.2842 100.275 13.638 100.275 14.0443C100.275 14.457 100.356 14.8174 100.52 15.1254C100.684 15.4268 100.904 15.6594 101.179 15.8232C101.454 15.9804 101.759 16.059 102.093 16.059C102.427 16.059 102.732 15.9804 103.007 15.8232C103.289 15.6594 103.511 15.4268 103.675 15.1254C103.839 14.8174 103.921 14.4603 103.921 14.0541ZM111.306 16.8453C110.801 16.8453 110.342 16.7306 109.93 16.5013C109.523 16.272 109.202 15.9477 108.966 15.5283C108.737 15.1024 108.622 14.611 108.622 14.0541C108.622 13.5037 108.74 13.0189 108.976 12.5995C109.219 12.1736 109.546 11.8493 109.959 11.6265C110.372 11.3972 110.834 11.2826 111.345 11.2826C111.856 11.2826 112.318 11.3972 112.731 11.6265C113.143 11.8493 113.468 12.1704 113.704 12.5897C113.946 13.009 114.067 13.4972 114.067 14.0541C114.067 14.611 113.943 15.1024 113.694 15.5283C113.451 15.9477 113.12 16.272 112.701 16.5013C112.282 16.7306 111.817 16.8453 111.306 16.8453ZM111.306 16.059C111.627 16.059 111.928 15.9837 112.21 15.833C112.491 15.6823 112.717 15.4562 112.888 15.1548C113.065 14.8535 113.153 14.4865 113.153 14.0541C113.153 13.6217 113.068 13.2547 112.898 12.9533C112.727 12.6519 112.505 12.4292 112.229 12.285C111.954 12.1343 111.656 12.059 111.335 12.059C111.007 12.059 110.706 12.1343 110.431 12.285C110.162 12.4292 109.946 12.6519 109.782 12.9533C109.618 13.2547 109.536 13.6217 109.536 14.0541C109.536 14.4931 109.615 14.8633 109.772 15.1647C109.936 15.4661 110.152 15.6921 110.421 15.8428C110.69 15.987 110.984 16.059 111.306 16.059ZM117.867 11.2727C118.522 11.2727 119.053 11.4726 119.459 11.8722C119.866 12.2654 120.069 12.8354 120.069 13.5823V16.7568H119.184V13.7101C119.184 13.1728 119.05 12.7633 118.781 12.4816C118.513 12.1933 118.146 12.0492 117.681 12.0492C117.209 12.0492 116.832 12.1966 116.55 12.4914C116.275 12.7863 116.138 13.2154 116.138 13.7789V16.7568H115.243V11.371H116.138V12.1376C116.314 11.8624 116.554 11.6495 116.855 11.4988C117.163 11.3481 117.5 11.2727 117.867 11.2727ZM125.241 12.1081V15.2826C125.241 15.5447 125.297 15.7314 125.408 15.8428C125.519 15.9477 125.713 16.0001 125.988 16.0001H126.646V16.7568H125.84C125.342 16.7568 124.969 16.6422 124.72 16.4129C124.471 16.1835 124.346 15.8068 124.346 15.2826V12.1081H123.649V11.371H124.346V10.0147H125.241V11.371H126.646V12.1081H125.241ZM130.403 11.2727C130.809 11.2727 131.176 11.3612 131.504 11.5381C131.832 11.7084 132.087 11.9672 132.27 12.3145C132.461 12.6618 132.556 13.0844 132.556 13.5823V16.7568H131.671V13.7101C131.671 13.1728 131.537 12.7633 131.268 12.4816C130.999 12.1933 130.632 12.0492 130.167 12.0492C129.696 12.0492 129.319 12.1966 129.037 12.4914C128.762 12.7863 128.624 13.2154 128.624 13.7789V16.7568H127.73V9.484H128.624V12.1376C128.801 11.8624 129.044 11.6495 129.352 11.4988C129.666 11.3481 130.017 11.2727 130.403 11.2727ZM138.931 13.8575C138.931 14.0279 138.921 14.2081 138.901 14.3981H134.596C134.629 14.9288 134.809 15.3449 135.137 15.6463C135.471 15.9411 135.874 16.0885 136.346 16.0885C136.732 16.0885 137.053 16.0001 137.309 15.8232C137.571 15.6397 137.754 15.3973 137.859 15.0959H138.822C138.678 15.6135 138.39 16.0361 137.958 16.3637C137.525 16.6848 136.988 16.8453 136.346 16.8453C135.835 16.8453 135.376 16.7306 134.97 16.5013C134.57 16.272 134.256 15.9477 134.026 15.5283C133.797 15.1024 133.682 14.611 133.682 14.0541C133.682 13.4972 133.794 13.009 134.016 12.5897C134.239 12.1704 134.55 11.8493 134.95 11.6265C135.356 11.3972 135.822 11.2826 136.346 11.2826C136.857 11.2826 137.309 11.3939 137.702 11.6167C138.095 11.8395 138.397 12.1474 138.606 12.5406C138.822 12.9271 138.931 13.3661 138.931 13.8575ZM138.007 13.6708C138.007 13.3301 137.931 13.0385 137.781 12.7961C137.63 12.5471 137.424 12.3604 137.161 12.2359C136.906 12.1048 136.621 12.0393 136.306 12.0393C135.854 12.0393 135.468 12.1835 135.147 12.4718C134.832 12.7601 134.652 13.1597 134.606 13.6708H138.007ZM79.7843 27.0197C79.7843 27.3866 79.6958 27.7306 79.5189 28.0516C79.3486 28.3727 79.0767 28.6315 78.7032 28.828C78.3363 29.0246 77.8711 29.1229 77.3076 29.1229H76.1577V31.7568H74.7818V24.8968H77.3076C77.8383 24.8968 78.2904 24.9885 78.6639 25.172C79.0373 25.3554 79.3158 25.6077 79.4993 25.9287C79.6893 26.2498 79.7843 26.6134 79.7843 27.0197ZM77.2486 28.0123C77.6286 28.0123 77.9104 27.9271 78.0938 27.7568C78.2773 27.5799 78.369 27.3342 78.369 27.0197C78.369 26.3514 77.9956 26.0172 77.2486 26.0172H76.1577V28.0123H77.2486ZM82.1371 24.484V31.7568H80.7612V24.484H82.1371ZM83.1427 29.0148C83.1427 28.4644 83.2509 27.9763 83.4671 27.5504C83.6898 27.1245 83.988 26.7969 84.3614 26.5676C84.7415 26.3382 85.1641 26.2236 85.6293 26.2236C86.0355 26.2236 86.3893 26.3055 86.6907 26.4693C86.9987 26.6331 87.2444 26.8395 87.4278 27.0885V26.312H88.8136V31.7568H87.4278V30.9608C87.2509 31.2163 87.0052 31.4292 86.6907 31.5996C86.3828 31.7634 86.0257 31.8453 85.6194 31.8453C85.1608 31.8453 84.7415 31.7274 84.3614 31.4915C83.988 31.2556 83.6898 30.9247 83.4671 30.4988C83.2509 30.0664 83.1427 29.5717 83.1427 29.0148ZM87.4278 29.0344C87.4278 28.7003 87.3623 28.4153 87.2313 28.1794C87.1002 27.937 86.9233 27.7535 86.7005 27.629C86.4778 27.498 86.2386 27.4324 85.9831 27.4324C85.7276 27.4324 85.4917 27.4947 85.2755 27.6192C85.0592 27.7437 84.8823 27.9271 84.7447 28.1696C84.6137 28.4054 84.5482 28.6872 84.5482 29.0148C84.5482 29.3424 84.6137 29.6307 84.7447 29.8797C84.8823 30.1221 85.0592 30.3088 85.2755 30.4399C85.4982 30.5709 85.7341 30.6364 85.9831 30.6364C86.2386 30.6364 86.4778 30.5742 86.7005 30.4497C86.9233 30.3186 87.1002 30.1352 87.2313 29.8993C87.3623 29.6569 87.4278 29.3686 87.4278 29.0344ZM95.3664 26.312L91.9953 34.3318H90.5309L91.7103 31.6192L89.5284 26.312H91.0715L92.4769 30.1155L93.902 26.312H95.3664ZM100.819 31.8256C100.34 31.8256 99.9078 31.7437 99.5212 31.5799C99.1412 31.4161 98.8398 31.1803 98.617 30.8723C98.3943 30.5644 98.2796 30.2007 98.273 29.7814H99.7473C99.7669 30.0631 99.8652 30.2859 100.042 30.4497C100.226 30.6135 100.475 30.6954 100.789 30.6954C101.11 30.6954 101.362 30.62 101.546 30.4693C101.729 30.3121 101.821 30.109 101.821 29.86C101.821 29.6569 101.759 29.4898 101.634 29.3588C101.51 29.2277 101.353 29.1262 101.163 29.0541C100.979 28.9755 100.724 28.8903 100.396 28.7986C99.9504 28.6675 99.5867 28.5398 99.305 28.4153C99.0298 28.2842 98.7907 28.0909 98.5875 27.8354C98.391 27.5733 98.2927 27.2261 98.2927 26.7936C98.2927 26.3874 98.3943 26.0336 98.5974 25.7322C98.8005 25.4308 99.0855 25.2015 99.4524 25.0442C99.8193 24.8804 100.239 24.7985 100.71 24.7985C101.418 24.7985 101.991 24.9721 102.43 25.3194C102.876 25.6601 103.122 26.1384 103.167 26.7543H101.654C101.641 26.5184 101.539 26.3251 101.349 26.1744C101.166 26.0172 100.92 25.9386 100.612 25.9386C100.344 25.9386 100.127 26.0074 99.9635 26.145C99.8062 26.2826 99.7276 26.4824 99.7276 26.7445C99.7276 26.9279 99.7866 27.0819 99.9045 27.2064C100.029 27.3243 100.18 27.4226 100.357 27.5012C100.54 27.5733 100.796 27.6585 101.123 27.7568C101.569 27.8878 101.932 28.0189 102.214 28.1499C102.496 28.2809 102.738 28.4775 102.941 28.7396C103.145 29.0017 103.246 29.3457 103.246 29.7715C103.246 30.1385 103.151 30.4792 102.961 30.7937C102.771 31.1082 102.493 31.3604 102.126 31.5504C101.759 31.7339 101.323 31.8256 100.819 31.8256ZM106.041 27.4423V30.0762C106.041 30.2597 106.084 30.394 106.169 30.4792C106.26 30.5578 106.411 30.5971 106.621 30.5971H107.26V31.7568H106.395C105.235 31.7568 104.655 31.1934 104.655 30.0664V27.4423H104.007V26.312H104.655V24.9656H106.041V26.312H107.26V27.4423H106.041ZM110.667 31.8453C110.143 31.8453 109.671 31.7306 109.252 31.5013C108.832 31.2654 108.502 30.9345 108.259 30.5087C108.023 30.0828 107.905 29.5914 107.905 29.0344C107.905 28.4775 108.027 27.9861 108.269 27.5602C108.518 27.1343 108.855 26.8067 109.281 26.5774C109.707 26.3415 110.182 26.2236 110.706 26.2236C111.231 26.2236 111.706 26.3415 112.131 26.5774C112.557 26.8067 112.891 27.1343 113.134 27.5602C113.383 27.9861 113.507 28.4775 113.507 29.0344C113.507 29.5914 113.38 30.0828 113.124 30.5087C112.875 30.9345 112.534 31.2654 112.102 31.5013C111.676 31.7306 111.198 31.8453 110.667 31.8453ZM110.667 30.6463C110.916 30.6463 111.149 30.5873 111.365 30.4693C111.588 30.3449 111.765 30.1614 111.896 29.919C112.027 29.6765 112.092 29.3817 112.092 29.0344C112.092 28.5168 111.955 28.1204 111.679 27.8452C111.411 27.5635 111.08 27.4226 110.687 27.4226C110.294 27.4226 109.963 27.5635 109.694 27.8452C109.432 28.1204 109.301 28.5168 109.301 29.0344C109.301 29.5521 109.429 29.9517 109.684 30.2335C109.946 30.5087 110.274 30.6463 110.667 30.6463ZM115.893 27.1573C116.07 26.869 116.299 26.6429 116.581 26.4791C116.869 26.3153 117.196 26.2334 117.563 26.2334V27.6782H117.2C116.767 27.6782 116.44 27.7797 116.217 27.9828C116.001 28.1859 115.893 28.5398 115.893 29.0443V31.7568H114.517V26.312H115.893V27.1573ZM123.552 28.9165C123.552 29.1131 123.539 29.29 123.512 29.4472H119.532C119.565 29.8403 119.702 30.1483 119.945 30.3711C120.187 30.5938 120.485 30.7052 120.839 30.7052C121.35 30.7052 121.714 30.4857 121.93 30.0467H123.414C123.257 30.5709 122.955 31.0033 122.51 31.3441C122.064 31.6782 121.517 31.8453 120.869 31.8453C120.344 31.8453 119.873 31.7306 119.453 31.5013C119.041 31.2654 118.716 30.9345 118.48 30.5087C118.251 30.0828 118.136 29.5914 118.136 29.0344C118.136 28.471 118.251 27.9763 118.48 27.5504C118.71 27.1245 119.031 26.7969 119.443 26.5676C119.856 26.3382 120.331 26.2236 120.869 26.2236C121.386 26.2236 121.848 26.335 122.254 26.5577C122.667 26.7805 122.985 27.0983 123.208 27.5111C123.437 27.9173 123.552 28.3858 123.552 28.9165ZM122.127 28.5234C122.12 28.1696 121.992 27.8878 121.743 27.6782C121.494 27.4619 121.19 27.3538 120.829 27.3538C120.489 27.3538 120.2 27.4587 119.964 27.6683C119.735 27.8714 119.594 28.1565 119.542 28.5234H122.127Z" fill="white"/>
<g clip-path="url(#clip0_508_6693)">
<g clip-path="url(#clip1_508_6693)">
<path d="M33.2676 16.6355L20.445 9.30688C20.2839 9.21332 20.0812 9.21852 19.9253 9.31208C19.7642 9.40564 19.6654 9.57196 19.6654 9.75907C19.6654 9.75907 19.6706 10.4348 19.6758 11.5471L29.0159 20.8872L33.2676 16.6355Z" fill="url(#paint0_linear_508_6693)"/>
<path d="M19.676 11.5479C19.6916 15.5604 19.7383 25.3006 19.7591 30.15L29.0213 20.8879L19.676 11.5479Z" fill="url(#paint1_linear_508_6693)"/>
<path d="M40.6066 20.8302L33.2675 16.6357L29.0107 20.8874L33.8133 25.6899L40.6118 21.7294C40.7729 21.6358 40.8716 21.4643 40.8716 21.2824C40.8716 21.0953 40.7677 20.9237 40.6066 20.8302Z" fill="url(#paint2_linear_508_6693)"/>
<path d="M19.754 30.1504C19.7644 31.8812 19.7696 32.9882 19.7696 32.9882C19.7696 33.1754 19.8683 33.3469 20.0294 33.4352C20.1906 33.5288 20.3881 33.5288 20.5492 33.4352L33.8187 25.6961L29.0161 20.8936L19.754 30.1504Z" fill="url(#paint3_linear_508_6693)"/>
</g>
</g>
<defs>
<linearGradient id="paint0_linear_508_6693" x1="19.6654" y1="15.0655" x2="33.27" y2="15.0655" gradientUnits="userSpaceOnUse">
<stop stop-color="#63BE6B"/>
<stop offset="0.506" stop-color="#5BBC6A"/>
<stop offset="1" stop-color="#4AB96A"/>
</linearGradient>
<linearGradient id="paint1_linear_508_6693" x1="19.6735" y1="20.8511" x2="29.0159" y2="20.8511" gradientUnits="userSpaceOnUse">
<stop stop-color="#3EC6F2"/>
<stop offset="1" stop-color="#45AFE3"/>
</linearGradient>
<linearGradient id="paint2_linear_508_6693" x1="29.0157" y1="21.1661" x2="40.8704" y2="21.1661" gradientUnits="userSpaceOnUse">
<stop stop-color="#FAA51A"/>
<stop offset="0.387" stop-color="#FAB716"/>
<stop offset="0.741" stop-color="#FAC412"/>
<stop offset="1" stop-color="#FAC80F"/>
</linearGradient>
<linearGradient id="paint3_linear_508_6693" x1="19.7563" y1="27.1993" x2="33.8185" y2="27.1993" gradientUnits="userSpaceOnUse">
<stop stop-color="#EC3B50"/>
<stop offset="1" stop-color="#E7515B"/>
</linearGradient>
<clipPath id="clip0_508_6693">
<rect width="24.3144" height="24.3144" fill="white" transform="translate(18.2924 9.21387)"/>
</clipPath>
<clipPath id="clip1_508_6693">
<rect width="21.2508" height="24.3144" fill="white" transform="translate(19.6432 9.21387)"/>
</clipPath>
</defs>
</svg>
