<svg width="159" height="43" viewBox="0 0 159 43" fill="none" xmlns="http://www.w3.org/2000/svg">
<rect width="158.479" height="42.9982" rx="6.1426" fill="black"/>
<g clip-path="url(#clip0_508_6688)">
<g clip-path="url(#clip1_508_6688)">
<path d="M33.3662 22.1314C33.4003 25.811 36.5941 27.0354 36.6295 27.051C36.6025 27.1373 36.1192 28.7959 34.9469 30.5092C33.9334 31.9904 32.8816 33.4661 31.2248 33.4967C29.5967 33.5267 29.0732 32.5313 27.2119 32.5313C25.3511 32.5313 24.7695 33.4661 23.2283 33.5267C21.629 33.5873 20.4111 31.925 19.3893 30.4493C17.3013 27.4305 15.7057 21.9191 17.8482 18.1988C18.9126 16.3513 20.8148 15.1813 22.8794 15.1513C24.4498 15.1214 25.9321 16.2079 26.8922 16.2079C27.8517 16.2079 29.6531 14.9013 31.5468 15.0932C32.3396 15.1262 34.5649 15.4134 35.9938 17.505C35.8787 17.5764 33.3386 19.0551 33.3662 22.1314ZM30.3064 13.096C31.1555 12.0682 31.727 10.6375 31.5711 9.21387C30.3472 9.26306 28.8672 10.0294 27.9894 11.0567C27.2026 11.9663 26.5136 13.4223 26.6995 14.8177C28.0637 14.9232 29.4573 14.1245 30.3064 13.096Z" fill="white"/>
</g>
</g>
<path d="M58.4603 13.2875C58.4603 13.9886 58.3195 14.6012 58.0377 15.1254C57.756 15.643 57.3399 16.0459 56.7896 16.3342C56.2457 16.616 55.5905 16.7568 54.8239 16.7568H52.6224V9.82799H54.8239C55.5905 9.82799 56.2457 9.96886 56.7896 10.2506C57.3399 10.5258 57.756 10.9255 58.0377 11.4496C58.3195 11.9672 58.4603 12.5799 58.4603 13.2875ZM54.7551 15.9509C55.6593 15.9509 56.3506 15.7183 56.8289 15.2531C57.3072 14.7879 57.5463 14.1327 57.5463 13.2875C57.5463 12.4423 57.3072 11.7871 56.8289 11.3219C56.3571 10.8501 55.6659 10.6142 54.7551 10.6142H53.5168V15.9509H54.7551ZM62.1144 11.2924C62.632 11.2924 63.094 11.4038 63.5002 11.6265C63.913 11.8493 64.234 12.1704 64.4634 12.5897C64.6992 13.009 64.8172 13.5004 64.8172 14.0639C64.8172 14.6274 64.6992 15.1188 64.4634 15.5381C64.234 15.9509 63.913 16.2687 63.5002 16.4915C63.094 16.7142 62.632 16.8256 62.1144 16.8256C61.5968 16.8256 61.1316 16.7142 60.7188 16.4915C60.3126 16.2687 59.9915 15.9509 59.7557 15.5381C59.5198 15.1188 59.4019 14.6274 59.4019 14.0639C59.4019 13.5004 59.5198 13.009 59.7557 12.5897C59.9915 12.1704 60.3126 11.8493 60.7188 11.6265C61.1316 11.4038 61.5968 11.2924 62.1144 11.2924ZM62.1144 12.0786C61.7934 12.0786 61.4952 12.1507 61.2201 12.2949C60.9514 12.439 60.7319 12.6618 60.5616 12.9632C60.3978 13.258 60.3159 13.6249 60.3159 14.0639C60.3159 14.4964 60.3978 14.8633 60.5616 15.1647C60.7319 15.4595 60.9514 15.679 61.2201 15.8232C61.4952 15.9673 61.7934 16.0394 62.1144 16.0394C62.4355 16.0394 62.7303 15.9673 62.999 15.8232C63.2741 15.679 63.4936 15.4595 63.6574 15.1647C63.8278 14.8633 63.913 14.4964 63.913 14.0639C63.913 13.6249 63.8278 13.258 63.6574 12.9632C63.4936 12.6618 63.2741 12.439 62.999 12.2949C62.7303 12.1507 62.4355 12.0786 62.1144 12.0786ZM73.393 11.3612L71.8401 16.7568H70.877L69.3929 12.3637L67.8991 16.7568H66.9261L65.3929 11.3612H66.2971L67.447 15.9018L68.9408 11.3612H69.8745L71.3782 15.892L72.5379 11.3612H73.393ZM77.0674 11.2727C77.6964 11.2727 78.2042 11.4758 78.5908 11.8821C78.9774 12.2818 79.1706 12.8616 79.1706 13.6217V16.7568H78.2763V13.7003C78.2763 13.163 78.1387 12.7502 77.8635 12.4619C77.5883 12.1736 77.2148 12.0295 76.7431 12.0295C76.2517 12.0295 75.8586 12.19 75.5637 12.5111C75.2689 12.8256 75.1214 13.2875 75.1214 13.8968V16.7568H74.2271V11.3612H75.1214V12.6388C75.259 12.1998 75.5015 11.8624 75.8487 11.6265C76.2025 11.3907 76.6088 11.2727 77.0674 11.2727ZM81.4368 9.484V16.7568H80.5424V9.484H81.4368ZM85.3219 11.2924C85.8395 11.2924 86.3015 11.4038 86.7077 11.6265C87.1205 11.8493 87.4415 12.1704 87.6708 12.5897C87.9067 13.009 88.0247 13.5004 88.0247 14.0639C88.0247 14.6274 87.9067 15.1188 87.6708 15.5381C87.4415 15.9509 87.1205 16.2687 86.7077 16.4915C86.3015 16.7142 85.8395 16.8256 85.3219 16.8256C84.8043 16.8256 84.3391 16.7142 83.9263 16.4915C83.5201 16.2687 83.199 15.9509 82.9632 15.5381C82.7273 15.1188 82.6093 14.6274 82.6093 14.0639C82.6093 13.5004 82.7273 13.009 82.9632 12.5897C83.199 12.1704 83.5201 11.8493 83.9263 11.6265C84.3391 11.4038 84.8043 11.2924 85.3219 11.2924ZM85.3219 12.0786C85.0009 12.0786 84.7027 12.1507 84.4276 12.2949C84.1589 12.439 83.9394 12.6618 83.7691 12.9632C83.6053 13.258 83.5234 13.6249 83.5234 14.0639C83.5234 14.4964 83.6053 14.8633 83.7691 15.1647C83.9394 15.4595 84.1589 15.679 84.4276 15.8232C84.7027 15.9673 85.0009 16.0394 85.3219 16.0394C85.643 16.0394 85.9378 15.9673 86.2064 15.8232C86.4816 15.679 86.7011 15.4595 86.8649 15.1647C87.0353 14.8633 87.1205 14.4964 87.1205 14.0639C87.1205 13.6249 87.0353 13.258 86.8649 12.9632C86.7011 12.6618 86.4816 12.439 86.2064 12.2949C85.9378 12.1507 85.643 12.0786 85.3219 12.0786ZM91.4014 11.2924C91.9256 11.2924 92.3678 11.4234 92.7282 11.6855C93.0951 11.9476 93.3506 12.2981 93.4948 12.7371V11.3612H94.3892V16.7568H93.4948V15.3809C93.3506 15.8199 93.0951 16.1704 92.7282 16.4325C92.3678 16.6946 91.9256 16.8256 91.4014 16.8256C90.9231 16.8256 90.4972 16.7142 90.1237 16.4915C89.7503 16.2687 89.4554 15.9509 89.2392 15.5381C89.0295 15.1188 88.9247 14.6274 88.9247 14.0639C88.9247 13.5004 89.0295 13.009 89.2392 12.5897C89.4554 12.1704 89.7503 11.8493 90.1237 11.6265C90.4972 11.4038 90.9231 11.2924 91.4014 11.2924ZM91.6569 12.0885C91.1066 12.0885 90.6643 12.2654 90.3301 12.6192C90.0025 12.9664 89.8387 13.448 89.8387 14.0639C89.8387 14.6798 90.0025 15.1647 90.3301 15.5185C90.6643 15.8658 91.1066 16.0394 91.6569 16.0394C92.0107 16.0394 92.3252 15.9575 92.6004 15.7937C92.8822 15.6299 93.1017 15.4006 93.2589 15.1057C93.4162 14.8043 93.4948 14.457 93.4948 14.0639C93.4948 13.6708 93.4162 13.3235 93.2589 13.0221C93.1017 12.7207 92.8822 12.4914 92.6004 12.3342C92.3252 12.1704 92.0107 12.0885 91.6569 12.0885ZM98.0239 11.2924C98.5481 11.2924 98.9903 11.4234 99.3507 11.6855C99.7176 11.9476 99.9731 12.2981 100.117 12.7371V9.484H101.012V16.7568H100.117V15.3809C99.9731 15.8199 99.7176 16.1704 99.3507 16.4325C98.9903 16.6946 98.5481 16.8256 98.0239 16.8256C97.5456 16.8256 97.1197 16.7142 96.7462 16.4915C96.3728 16.2687 96.0779 15.9509 95.8617 15.5381C95.652 15.1188 95.5472 14.6274 95.5472 14.0639C95.5472 13.5004 95.652 13.009 95.8617 12.5897C96.0779 12.1704 96.3728 11.8493 96.7462 11.6265C97.1197 11.4038 97.5456 11.2924 98.0239 11.2924ZM98.2794 12.0885C97.729 12.0885 97.2868 12.2654 96.9526 12.6192C96.625 12.9664 96.4612 13.448 96.4612 14.0639C96.4612 14.6798 96.625 15.1647 96.9526 15.5185C97.2868 15.8658 97.729 16.0394 98.2794 16.0394C98.6332 16.0394 98.9477 15.9575 99.2229 15.7937C99.5047 15.6299 99.7242 15.4006 99.8814 15.1057C100.039 14.8043 100.117 14.457 100.117 14.0639C100.117 13.6708 100.039 13.3235 99.8814 13.0221C99.7242 12.7207 99.5047 12.4914 99.2229 12.3342C98.9477 12.1704 98.6332 12.0885 98.2794 12.0885ZM107.31 11.2924C107.828 11.2924 108.29 11.4038 108.696 11.6265C109.109 11.8493 109.43 12.1704 109.659 12.5897C109.895 13.009 110.013 13.5004 110.013 14.0639C110.013 14.6274 109.895 15.1188 109.659 15.5381C109.43 15.9509 109.109 16.2687 108.696 16.4915C108.29 16.7142 107.828 16.8256 107.31 16.8256C106.793 16.8256 106.328 16.7142 105.915 16.4915C105.509 16.2687 105.188 15.9509 104.952 15.5381C104.716 15.1188 104.598 14.6274 104.598 14.0639C104.598 13.5004 104.716 13.009 104.952 12.5897C105.188 12.1704 105.509 11.8493 105.915 11.6265C106.328 11.4038 106.793 11.2924 107.31 11.2924ZM107.31 12.0786C106.989 12.0786 106.691 12.1507 106.416 12.2949C106.147 12.439 105.928 12.6618 105.758 12.9632C105.594 13.258 105.512 13.6249 105.512 14.0639C105.512 14.4964 105.594 14.8633 105.758 15.1647C105.928 15.4595 106.147 15.679 106.416 15.8232C106.691 15.9673 106.989 16.0394 107.31 16.0394C107.632 16.0394 107.926 15.9673 108.195 15.8232C108.47 15.679 108.69 15.4595 108.854 15.1647C109.024 14.8633 109.109 14.4964 109.109 14.0639C109.109 13.6249 109.024 13.258 108.854 12.9632C108.69 12.6618 108.47 12.439 108.195 12.2949C107.926 12.1507 107.632 12.0786 107.31 12.0786ZM114.019 11.2727C114.648 11.2727 115.156 11.4758 115.542 11.8821C115.929 12.2818 116.122 12.8616 116.122 13.6217V16.7568H115.228V13.7003C115.228 13.163 115.09 12.7502 114.815 12.4619C114.54 12.1736 114.166 12.0295 113.695 12.0295C113.203 12.0295 112.81 12.19 112.515 12.5111C112.22 12.8256 112.073 13.2875 112.073 13.8968V16.7568H111.179V11.3612H112.073V12.6388C112.211 12.1998 112.453 11.8624 112.8 11.6265C113.154 11.3907 113.56 11.2727 114.019 11.2727ZM122.497 15.9706V16.7568H121.829C121.279 16.7568 120.866 16.6258 120.591 16.3637C120.322 16.1016 120.188 15.6626 120.188 15.0467V12.1376H119.382V11.3612H120.188V10.0147H121.092V11.3612H122.487V12.1376H121.092V15.0664C121.092 15.4137 121.154 15.6528 121.279 15.7838C121.41 15.9083 121.632 15.9706 121.947 15.9706H122.497ZM126.429 11.2727C127.058 11.2727 127.566 11.4758 127.952 11.8821C128.339 12.2818 128.532 12.8616 128.532 13.6217V16.7568H127.638V13.7003C127.638 13.163 127.5 12.7502 127.225 12.4619C126.95 12.1736 126.576 12.0295 126.105 12.0295C125.613 12.0295 125.22 12.19 124.925 12.5111C124.63 12.8256 124.483 13.2875 124.483 13.8968V16.7568H123.589V9.484H124.483V12.6388C124.621 12.1998 124.863 11.8624 125.21 11.6265C125.564 11.3907 125.97 11.2727 126.429 11.2727ZM134.867 13.7592C134.867 13.9493 134.854 14.1131 134.828 14.2507H130.513C130.533 14.8666 130.707 15.3285 131.034 15.6364C131.368 15.9444 131.775 16.0983 132.253 16.0983C132.685 16.0983 133.046 15.9902 133.334 15.774C133.629 15.5512 133.809 15.2564 133.875 14.8895H134.828C134.762 15.263 134.615 15.5971 134.386 15.892C134.163 16.1868 133.871 16.4161 133.511 16.5799C133.151 16.7437 132.744 16.8256 132.292 16.8256C131.775 16.8256 131.316 16.7142 130.916 16.4915C130.517 16.2687 130.202 15.9509 129.973 15.5381C129.75 15.1188 129.639 14.6274 129.639 14.0639C129.639 13.5004 129.75 13.009 129.973 12.5897C130.202 12.1704 130.517 11.8493 130.916 11.6265C131.316 11.4038 131.775 11.2924 132.292 11.2924C132.816 11.2924 133.272 11.4038 133.658 11.6265C134.051 11.8493 134.35 12.1474 134.553 12.5209C134.762 12.8944 134.867 13.3072 134.867 13.7592ZM133.963 13.8182C133.983 13.4185 133.917 13.0844 133.766 12.8157C133.616 12.5471 133.409 12.3473 133.147 12.2162C132.885 12.0852 132.6 12.0197 132.292 12.0197C131.801 12.0197 131.388 12.1736 131.054 12.4816C130.72 12.783 130.54 13.2285 130.513 13.8182H133.963ZM75.4278 30.3612H72.6464L72.155 31.7568H70.6906L73.246 24.8968H74.8283L77.3738 31.7568H75.9094L75.4278 30.3612ZM75.0543 29.3096L74.0322 26.3808L73.0101 29.3096H75.0543ZM81.3748 26.2432C81.8335 26.2432 82.2463 26.3546 82.6132 26.5774C82.9801 26.8002 83.2651 27.1245 83.4682 27.5504C83.6779 27.9697 83.7827 28.4644 83.7827 29.0344C83.7827 29.6045 83.6779 30.1024 83.4682 30.5283C83.2651 30.9477 82.9801 31.2687 82.6132 31.4915C82.2463 31.7142 81.8335 31.8256 81.3748 31.8256C80.9162 31.8256 80.5231 31.7175 80.1955 31.5013C79.8744 31.2785 79.6451 30.9837 79.5075 30.6168V34.3515H78.1217V26.312H79.5075V27.4423C79.6451 27.0754 79.8744 26.7838 80.1955 26.5676C80.5231 26.3514 80.9162 26.2432 81.3748 26.2432ZM80.9424 27.4521C80.5231 27.4521 80.1758 27.5963 79.9006 27.8845C79.632 28.1663 79.4977 28.5496 79.4977 29.0344C79.4977 29.5127 79.632 29.896 79.9006 30.1843C80.1758 30.4661 80.5231 30.6069 80.9424 30.6069C81.3748 30.6069 81.7221 30.4693 81.9842 30.1942C82.2463 29.9124 82.3773 29.5258 82.3773 29.0344C82.3773 28.543 82.2463 28.1565 81.9842 27.8747C81.7221 27.593 81.3748 27.4521 80.9424 27.4521ZM88.0165 26.2432C88.4752 26.2432 88.8879 26.3546 89.2549 26.5774C89.6218 26.8002 89.9068 27.1245 90.1099 27.5504C90.3196 27.9697 90.4244 28.4644 90.4244 29.0344C90.4244 29.6045 90.3196 30.1024 90.1099 30.5283C89.9068 30.9477 89.6218 31.2687 89.2549 31.4915C88.8879 31.7142 88.4752 31.8256 88.0165 31.8256C87.5579 31.8256 87.1647 31.7175 86.8371 31.5013C86.5161 31.2785 86.2868 30.9837 86.1492 30.6168V34.3515H84.7634V26.312H86.1492V27.4423C86.2868 27.0754 86.5161 26.7838 86.8371 26.5676C87.1647 26.3514 87.5579 26.2432 88.0165 26.2432ZM87.5841 27.4521C87.1647 27.4521 86.8175 27.5963 86.5423 27.8845C86.2737 28.1663 86.1393 28.5496 86.1393 29.0344C86.1393 29.5127 86.2737 29.896 86.5423 30.1843C86.8175 30.4661 87.1647 30.6069 87.5841 30.6069C88.0165 30.6069 88.3638 30.4693 88.6259 30.1942C88.8879 29.9124 89.019 29.5258 89.019 29.0344C89.019 28.543 88.8879 28.1565 88.6259 27.8747C88.3638 27.593 88.0165 27.4521 87.5841 27.4521ZM98.312 29.86C98.312 30.2138 98.2236 30.5414 98.0467 30.8428C97.8698 31.1377 97.6077 31.3768 97.2604 31.5603C96.9132 31.7372 96.4906 31.8256 95.9926 31.8256C95.5012 31.8256 95.0622 31.7437 94.6756 31.5799C94.2891 31.4096 93.9778 31.1671 93.742 30.8526C93.5126 30.5381 93.3816 30.1712 93.3488 29.7519H94.8231C94.8558 30.0336 94.9672 30.2695 95.1572 30.4595C95.3538 30.643 95.6126 30.7347 95.9336 30.7347C96.2219 30.7347 96.4414 30.6594 96.5921 30.5087C96.7494 30.3514 96.828 30.1516 96.828 29.9091C96.828 29.6929 96.7657 29.516 96.6413 29.3784C96.5168 29.2343 96.3595 29.1196 96.1695 29.0344C95.9795 28.9493 95.7174 28.851 95.3833 28.7396C94.9508 28.5954 94.597 28.4546 94.3218 28.317C94.0466 28.1728 93.8108 27.9664 93.6142 27.6978C93.4242 27.4292 93.3292 27.0786 93.3292 26.6462C93.3292 26.05 93.5421 25.5815 93.968 25.2408C94.4004 24.8935 94.9705 24.7199 95.6781 24.7199C96.4119 24.7199 96.9951 24.8968 97.4275 25.2506C97.8665 25.6044 98.1155 26.0762 98.1745 26.6659H96.6806C96.6413 26.4169 96.5364 26.2138 96.3661 26.0565C96.1957 25.8927 95.9631 25.8108 95.6683 25.8108C95.4127 25.8108 95.2063 25.8796 95.0491 26.0172C94.8918 26.1482 94.8132 26.3415 94.8132 26.5971C94.8132 26.8002 94.8722 26.9705 94.9901 27.1081C95.1146 27.2392 95.2686 27.3473 95.4521 27.4324C95.6421 27.5176 95.8976 27.6126 96.2186 27.7175C96.6642 27.8747 97.0246 28.0221 97.2997 28.1597C97.5815 28.2973 97.8206 28.5037 98.0172 28.7789C98.2138 29.0541 98.312 29.4145 98.312 29.86ZM102.242 30.5676V31.7568H101.515C100.905 31.7568 100.437 31.6094 100.109 31.3146C99.7882 31.0197 99.6277 30.5283 99.6277 29.8403V27.4816H98.8709V26.312H99.6277V24.9656H101.013V26.312H102.232V27.4816H101.013V29.86C101.013 30.1221 101.066 30.3055 101.171 30.4104C101.276 30.5152 101.452 30.5676 101.701 30.5676H102.242ZM105.755 26.2432C106.286 26.2432 106.761 26.3546 107.18 26.5774C107.606 26.8002 107.94 27.1245 108.183 27.5504C108.425 27.9697 108.546 28.4644 108.546 29.0344C108.546 29.6045 108.425 30.0992 108.183 30.5185C107.94 30.9378 107.606 31.2622 107.18 31.4915C106.761 31.7142 106.286 31.8256 105.755 31.8256C105.224 31.8256 104.746 31.7142 104.32 31.4915C103.901 31.2622 103.57 30.9378 103.328 30.5185C103.085 30.0992 102.964 29.6045 102.964 29.0344C102.964 28.4644 103.085 27.9697 103.328 27.5504C103.57 27.1245 103.901 26.8002 104.32 26.5774C104.746 26.3546 105.224 26.2432 105.755 26.2432ZM105.755 27.4423C105.369 27.4423 105.041 27.5799 104.772 27.8551C104.504 28.1237 104.369 28.5168 104.369 29.0344C104.369 29.5521 104.504 29.9485 104.772 30.2236C105.041 30.4923 105.369 30.6266 105.755 30.6266C106.142 30.6266 106.469 30.4923 106.738 30.2236C107.007 29.9485 107.141 29.5521 107.141 29.0344C107.141 28.5168 107.007 28.1237 106.738 27.8551C106.469 27.5799 106.142 27.4423 105.755 27.4423ZM110.912 27.3538C111.115 27.0066 111.383 26.7346 111.717 26.5381C112.052 26.335 112.425 26.2334 112.838 26.2334V27.7175H112.435C111.419 27.7175 110.912 28.1892 110.912 29.1327V31.7568H109.526V26.312H110.912V27.3538ZM118.725 28.828C118.725 28.9656 118.709 29.1229 118.676 29.2998H114.686C114.706 29.7847 114.837 30.1417 115.079 30.3711C115.321 30.6004 115.623 30.7151 115.983 30.7151C116.304 30.7151 116.57 30.6364 116.779 30.4792C116.996 30.3219 117.133 30.109 117.192 29.8403H118.656C118.584 30.2204 118.43 30.5611 118.195 30.8625C117.959 31.1639 117.654 31.3997 117.281 31.5701C116.914 31.7405 116.504 31.8256 116.052 31.8256C115.521 31.8256 115.05 31.7142 114.637 31.4915C114.224 31.2622 113.903 30.9378 113.674 30.5185C113.444 30.0992 113.33 29.6045 113.33 29.0344C113.33 28.4644 113.444 27.9697 113.674 27.5504C113.903 27.1245 114.224 26.8002 114.637 26.5774C115.05 26.3546 115.521 26.2432 116.052 26.2432C116.589 26.2432 117.058 26.3546 117.457 26.5774C117.864 26.8002 118.175 27.1081 118.391 27.5012C118.614 27.8878 118.725 28.3301 118.725 28.828ZM117.33 28.6905C117.349 28.2449 117.231 27.9075 116.976 27.6782C116.727 27.4488 116.419 27.3342 116.052 27.3342C115.679 27.3342 115.364 27.4488 115.109 27.6782C114.853 27.9075 114.712 28.2449 114.686 28.6905H117.33Z" fill="white"/>
<defs>
<clipPath id="clip0_508_6688">
<rect width="24.3144" height="24.3144" fill="white" transform="translate(14.128 9.21387)"/>
</clipPath>
<clipPath id="clip1_508_6688">
<rect width="19.8017" height="24.3144" fill="white" transform="translate(16.8296 9.21387)"/>
</clipPath>
</defs>
</svg>
