<svg width="32" height="32" viewBox="0 0 32 32" fill="none" xmlns="http://www.w3.org/2000/svg">
<path d="M12.204 7.2105C13.8934 4.18117 14.7374 2.6665 16 2.6665C17.2627 2.6665 18.1067 4.18117 19.796 7.2105L20.2334 7.9945C20.7134 8.85584 20.9534 9.2865 21.3267 9.5705C21.7 9.8545 22.1667 9.95984 23.1 10.1705L23.948 10.3625C27.228 11.1052 28.8667 11.4758 29.2574 12.7305C29.6467 13.9838 28.5294 15.2918 26.2934 17.9065L25.7147 18.5825C25.08 19.3252 24.7614 19.6972 24.6187 20.1558C24.476 20.6158 24.524 21.1118 24.62 22.1025L24.708 23.0052C25.0454 26.4945 25.2147 28.2385 24.1934 29.0132C23.172 29.7878 21.636 29.0812 18.5667 27.6678L17.7707 27.3025C16.8987 26.8998 16.4627 26.6998 16 26.6998C15.5374 26.6998 15.1014 26.8998 14.2294 27.3025L13.4347 27.6678C10.364 29.0812 8.82803 29.7878 7.80803 29.0145C6.78536 28.2385 6.9547 26.4945 7.29203 23.0052L7.38003 22.1038C7.47603 21.1118 7.52403 20.6158 7.38003 20.1572C7.2387 19.6972 6.92003 19.3252 6.28536 18.5838L5.7067 17.9065C3.4707 15.2932 2.35336 13.9852 2.7427 12.7305C3.13203 11.4758 4.77336 11.1038 8.05336 10.3625L8.90136 10.1705C9.83336 9.95984 10.2987 9.8545 10.6734 9.5705C11.048 9.2865 11.2867 8.85584 11.7667 7.9945L12.204 7.2105Z" fill="white"/>
</svg>
